<ttFont>
<head>
    <!-- Most of this table will be recalculated by the compiler -->
    <tableVersion value="1.0"/>
    <fontRevision value="1.002"/>
    <checkSumAdjustment value="0x477b1862"/>
    <magicNumber value="0x5f0f3cf5"/>
    <flags value="00000000 00001111"/>
    <unitsPerEm value="1000"/>
    <created value="Sun Jun 13 15:20:27 2021"/>
    <modified value="Mon Jun 14 15:25:31 2021"/>
    <xMin value="-130"/>
    <yMin value="-265"/>
    <xMax value="1165"/>
    <yMax value="1199"/>
    <macStyle value="00000000 00000000"/>
    <lowestRecPPEM value="6"/>
    <fontDirectionHint value="2"/>
    <indexToLocFormat value="0"/>
    <glyphDataFormat value="0"/>
  </head>
    <TTGlyph name=".notdef" xMin="50" yMin="-265" xMax="450" yMax="1000">
      <contour>
        <pt x="50" y="-265" on="1"/>
        <pt x="50" y="1000" on="1"/>
        <pt x="450" y="1000" on="1"/>
        <pt x="450" y="-265" on="1"/>
      </contour>
      <contour>
        <pt x="100" y="-215" on="1"/>
        <pt x="400" y="-215" on="1"/>
        <pt x="400" y="950" on="1"/>
        <pt x="100" y="950" on="1"/>
      </contour>
    </TTGlyph>
    <TTGlyph name="A" xMin="45" yMin="0" xMax="691" yMax="740">
      <contour>
        <pt x="45" y="0" on="1"/>
        <pt x="306" y="740" on="1"/>
        <pt x="429" y="740" on="1"/>
        <pt x="691" y="0" on="1"/>
        <pt x="587" y="0" on="1"/>
        <pt x="525" y="177" on="1"/>
        <pt x="211" y="177" on="1"/>
        <pt x="149" y="0" on="1"/>
      </contour>
      <contour>
        <pt x="241" y="265" on="1"/>
        <pt x="495" y="265" on="1"/>
        <pt x="368" y="628" on="1"/>
      </contour>
    </TTGlyph>
    <TTGlyph name="AE" xMin="45" yMin="0" xMax="955" yMax="740">
      <contour>
        <pt x="45" y="0" on="1"/>
        <pt x="426" y="740" on="1"/>
        <pt x="950" y="740" on="1"/>
        <pt x="950" y="654" on="1"/>
        <pt x="578" y="654" on="1"/>
        <pt x="578" y="420" on="1"/>
        <pt x="904" y="420" on="1"/>
        <pt x="904" y="334" on="1"/>
        <pt x="578" y="334" on="1"/>
        <pt x="578" y="86" on="1"/>
        <pt x="955" y="86" on="1"/>
        <pt x="955" y="0" on="1"/>
        <pt x="480" y="0" on="1"/>
        <pt x="480" y="177" on="1"/>
        <pt x="241" y="177" on="1"/>
        <pt x="149" y="0" on="1"/>
      </contour>
      <contour>
        <pt x="286" y="265" on="1"/>
        <pt x="480" y="265" on="1"/>
        <pt x="480" y="640" on="1"/>
      </contour>
    </TTGlyph>
    <TTGlyph name="Aacute" xMin="45" yMin="0" xMax="691" yMax="1001">
      <contour>
        <pt x="408" y="820" on="1"/>
        <pt x="327" y="821" on="1"/>
        <pt x="413" y="1001" on="1"/>
        <pt x="511" y="1001" on="1"/>
      </contour>
      <contour>
        <pt x="45" y="0" on="1"/>
        <pt x="306" y="740" on="1"/>
        <pt x="429" y="740" on="1"/>
        <pt x="691" y="0" on="1"/>
        <pt x="587" y="0" on="1"/>
        <pt x="525" y="177" on="1"/>
        <pt x="211" y="177" on="1"/>
        <pt x="149" y="0" on="1"/>
      </contour>
      <contour>
        <pt x="241" y="265" on="1"/>
        <pt x="495" y="265" on="1"/>
        <pt x="368" y="628" on="1"/>
      </contour>
    </TTGlyph>
    <TTGlyph name="Abreve" xMin="45" yMin="0" xMax="691" yMax="957">
      <contour>
        <pt x="368" y="815" on="1"/>
        <pt x="321" y="815" on="0"/>
        <pt x="261" y="844" on="0"/>
        <pt x="227" y="886" on="0"/>
        <pt x="212" y="928" on="0"/>
        <pt x="208" y="957" on="0"/>
        <pt x="208" y="957" on="1"/>
        <pt x="279" y="957" on="1"/>
        <pt x="279" y="957" on="0"/>
        <pt x="284" y="933" on="0"/>
        <pt x="300" y="902" on="0"/>
        <pt x="337" y="878" on="0"/>
        <pt x="368" y="878" on="1"/>
        <pt x="400" y="878" on="0"/>
        <pt x="436" y="902" on="0"/>
        <pt x="452" y="933" on="0"/>
        <pt x="457" y="957" on="0"/>
        <pt x="457" y="957" on="1"/>
        <pt x="528" y="957" on="1"/>
        <pt x="528" y="957" on="0"/>
        <pt x="524" y="928" on="0"/>
        <pt x="509" y="886" on="0"/>
        <pt x="475" y="844" on="0"/>
        <pt x="415" y="815" on="0"/>
      </contour>
      <contour>
        <pt x="45" y="0" on="1"/>
        <pt x="306" y="740" on="1"/>
        <pt x="429" y="740" on="1"/>
        <pt x="691" y="0" on="1"/>
        <pt x="587" y="0" on="1"/>
        <pt x="525" y="177" on="1"/>
        <pt x="211" y="177" on="1"/>
        <pt x="149" y="0" on="1"/>
      </contour>
      <contour>
        <pt x="241" y="265" on="1"/>
        <pt x="495" y="265" on="1"/>
        <pt x="368" y="628" on="1"/>
      </contour>
    </TTGlyph>
    <TTGlyph name="Acircumflex" xMin="45" yMin="0" xMax="691" yMax="963">
      <contour>
        <pt x="207" y="816" on="1"/>
        <pt x="328" y="963" on="1"/>
        <pt x="409" y="963" on="1"/>
        <pt x="530" y="816" on="1"/>
        <pt x="444" y="816" on="1"/>
        <pt x="368" y="908" on="1"/>
        <pt x="293" y="816" on="1"/>
      </contour>
      <contour>
        <pt x="45" y="0" on="1"/>
        <pt x="306" y="740" on="1"/>
        <pt x="429" y="740" on="1"/>
        <pt x="691" y="0" on="1"/>
        <pt x="587" y="0" on="1"/>
        <pt x="525" y="177" on="1"/>
        <pt x="211" y="177" on="1"/>
        <pt x="149" y="0" on="1"/>
      </contour>
      <contour>
        <pt x="241" y="265" on="1"/>
        <pt x="495" y="265" on="1"/>
        <pt x="368" y="628" on="1"/>
      </contour>
    </TTGlyph>
    <TTGlyph name="Adieresis" xMin="45" yMin="0" xMax="691" yMax="944">
      <contour>
        <pt x="463" y="821" on="1"/>
        <pt x="436" y="821" on="0"/>
        <pt x="401" y="857" on="0"/>
        <pt x="401" y="882" on="1"/>
        <pt x="401" y="908" on="0"/>
        <pt x="436" y="944" on="0"/>
        <pt x="463" y="944" on="1"/>
        <pt x="489" y="944" on="0"/>
        <pt x="525" y="908" on="0"/>
        <pt x="525" y="882" on="1"/>
        <pt x="525" y="857" on="0"/>
        <pt x="489" y="821" on="0"/>
      </contour>
      <contour>
        <pt x="273" y="821" on="1"/>
        <pt x="246" y="821" on="0"/>
        <pt x="211" y="857" on="0"/>
        <pt x="211" y="882" on="1"/>
        <pt x="211" y="908" on="0"/>
        <pt x="246" y="944" on="0"/>
        <pt x="273" y="944" on="1"/>
        <pt x="299" y="944" on="0"/>
        <pt x="335" y="908" on="0"/>
        <pt x="335" y="882" on="1"/>
        <pt x="335" y="857" on="0"/>
        <pt x="299" y="821" on="0"/>
      </contour>
      <contour>
        <pt x="45" y="0" on="1"/>
        <pt x="306" y="740" on="1"/>
        <pt x="429" y="740" on="1"/>
        <pt x="691" y="0" on="1"/>
        <pt x="587" y="0" on="1"/>
        <pt x="525" y="177" on="1"/>
        <pt x="211" y="177" on="1"/>
        <pt x="149" y="0" on="1"/>
      </contour>
      <contour>
        <pt x="241" y="265" on="1"/>
        <pt x="495" y="265" on="1"/>
        <pt x="368" y="628" on="1"/>
      </contour>
    </TTGlyph>
    <TTGlyph name="Agrave" xMin="45" yMin="0" xMax="691" yMax="1001">
      <contour>
        <pt x="332" y="820" on="1"/>
        <pt x="229" y="1001" on="1"/>
        <pt x="327" y="1001" on="1"/>
        <pt x="413" y="821" on="1"/>
      </contour>
      <contour>
        <pt x="45" y="0" on="1"/>
        <pt x="306" y="740" on="1"/>
        <pt x="429" y="740" on="1"/>
        <pt x="691" y="0" on="1"/>
        <pt x="587" y="0" on="1"/>
        <pt x="525" y="177" on="1"/>
        <pt x="211" y="177" on="1"/>
        <pt x="149" y="0" on="1"/>
      </contour>
      <contour>
        <pt x="241" y="265" on="1"/>
        <pt x="495" y="265" on="1"/>
        <pt x="368" y="628" on="1"/>
      </contour>
    </TTGlyph>
    <TTGlyph name="Amacron" xMin="45" yMin="0" xMax="691" yMax="908">
      <contour>
        <pt x="216" y="836" on="1"/>
        <pt x="216" y="908" on="1"/>
        <pt x="520" y="908" on="1"/>
        <pt x="520" y="836" on="1"/>
      </contour>
      <contour>
        <pt x="45" y="0" on="1"/>
        <pt x="306" y="740" on="1"/>
        <pt x="429" y="740" on="1"/>
        <pt x="691" y="0" on="1"/>
        <pt x="587" y="0" on="1"/>
        <pt x="525" y="177" on="1"/>
        <pt x="211" y="177" on="1"/>
        <pt x="149" y="0" on="1"/>
      </contour>
      <contour>
        <pt x="241" y="265" on="1"/>
        <pt x="495" y="265" on="1"/>
        <pt x="368" y="628" on="1"/>
      </contour>
    </TTGlyph>
    <TTGlyph name="Aogonek" xMin="45" yMin="-170" xMax="731" yMax="740">
      <contour>
        <pt x="45" y="0" on="1"/>
        <pt x="306" y="740" on="1"/>
        <pt x="429" y="740" on="1"/>
        <pt x="691" y="0" on="1"/>
        <pt x="691" y="0" on="0"/>
        <pt x="664" y="-14" on="0"/>
        <pt x="637" y="-42" on="0"/>
        <pt x="637" y="-63" on="1"/>
        <pt x="637" y="-81" on="0"/>
        <pt x="666" y="-106" on="0"/>
        <pt x="694" y="-106" on="1"/>
        <pt x="708" y="-106" on="0"/>
        <pt x="731" y="-101" on="0"/>
        <pt x="731" y="-101" on="1"/>
        <pt x="731" y="-164" on="1"/>
        <pt x="731" y="-164" on="0"/>
        <pt x="701" y="-170" on="0"/>
        <pt x="678" y="-170" on="1"/>
        <pt x="619" y="-170" on="0"/>
        <pt x="559" y="-117" on="0"/>
        <pt x="559" y="-80" on="1"/>
        <pt x="559" y="-51" on="0"/>
        <pt x="589" y="-12" on="0"/>
        <pt x="606" y="0" on="1"/>
        <pt x="587" y="0" on="1"/>
        <pt x="525" y="177" on="1"/>
        <pt x="211" y="177" on="1"/>
        <pt x="149" y="0" on="1"/>
      </contour>
      <contour>
        <pt x="241" y="265" on="1"/>
        <pt x="495" y="265" on="1"/>
        <pt x="368" y="628" on="1"/>
      </contour>
    </TTGlyph>
    <TTGlyph name="Aring" xMin="45" yMin="0" xMax="691" yMax="1068">
      <contour>
        <pt x="368" y="812" on="1"/>
        <pt x="333" y="812" on="0"/>
        <pt x="274" y="846" on="0"/>
        <pt x="239" y="905" on="0"/>
        <pt x="239" y="940" on="1"/>
        <pt x="239" y="976" on="0"/>
        <pt x="274" y="1034" on="0"/>
        <pt x="333" y="1068" on="0"/>
        <pt x="368" y="1068" on="1"/>
        <pt x="403" y="1068" on="0"/>
        <pt x="461" y="1034" on="0"/>
        <pt x="496" y="976" on="0"/>
        <pt x="496" y="940" on="1"/>
        <pt x="496" y="905" on="0"/>
        <pt x="461" y="846" on="0"/>
        <pt x="403" y="812" on="0"/>
      </contour>
      <contour>
        <pt x="368" y="880" on="1"/>
        <pt x="393" y="880" on="0"/>
        <pt x="428" y="915" on="0"/>
        <pt x="428" y="940" on="1"/>
        <pt x="428" y="965" on="0"/>
        <pt x="393" y="1000" on="0"/>
        <pt x="368" y="1000" on="1"/>
        <pt x="343" y="1000" on="0"/>
        <pt x="307" y="965" on="0"/>
        <pt x="307" y="940" on="1"/>
        <pt x="307" y="915" on="0"/>
        <pt x="343" y="880" on="0"/>
      </contour>
      <contour>
        <pt x="45" y="0" on="1"/>
        <pt x="306" y="740" on="1"/>
        <pt x="429" y="740" on="1"/>
        <pt x="691" y="0" on="1"/>
        <pt x="587" y="0" on="1"/>
        <pt x="525" y="177" on="1"/>
        <pt x="211" y="177" on="1"/>
        <pt x="149" y="0" on="1"/>
      </contour>
      <contour>
        <pt x="241" y="265" on="1"/>
        <pt x="495" y="265" on="1"/>
        <pt x="368" y="628" on="1"/>
      </contour>
    </TTGlyph>
    <TTGlyph name="Atilde" xMin="45" yMin="0" xMax="691" yMax="962">
      <contour>
        <pt x="436" y="827" on="1"/>
        <pt x="409" y="827" on="0"/>
        <pt x="372" y="847" on="0"/>
        <pt x="345" y="873" on="0"/>
        <pt x="321" y="893" on="0"/>
        <pt x="307" y="893" on="1"/>
        <pt x="290" y="893" on="0"/>
        <pt x="275" y="860" on="0"/>
        <pt x="275" y="833" on="1"/>
        <pt x="211" y="833" on="1"/>
        <pt x="211" y="864" on="0"/>
        <pt x="226" y="923" on="0"/>
        <pt x="266" y="962" on="0"/>
        <pt x="301" y="962" on="1"/>
        <pt x="328" y="962" on="0"/>
        <pt x="366" y="942" on="0"/>
        <pt x="393" y="917" on="0"/>
        <pt x="417" y="897" on="0"/>
        <pt x="430" y="897" on="1"/>
        <pt x="446" y="897" on="0"/>
        <pt x="461" y="929" on="0"/>
        <pt x="461" y="957" on="1"/>
        <pt x="525" y="957" on="1"/>
        <pt x="525" y="926" on="0"/>
        <pt x="510" y="866" on="0"/>
        <pt x="471" y="827" on="0"/>
      </contour>
      <contour>
        <pt x="45" y="0" on="1"/>
        <pt x="306" y="740" on="1"/>
        <pt x="429" y="740" on="1"/>
        <pt x="691" y="0" on="1"/>
        <pt x="587" y="0" on="1"/>
        <pt x="525" y="177" on="1"/>
        <pt x="211" y="177" on="1"/>
        <pt x="149" y="0" on="1"/>
      </contour>
      <contour>
        <pt x="241" y="265" on="1"/>
        <pt x="495" y="265" on="1"/>
        <pt x="368" y="628" on="1"/>
      </contour>
    </TTGlyph>
    <TTGlyph name="B" xMin="80" yMin="0" xMax="619" yMax="740">
      <contour>
        <pt x="80" y="0" on="1"/>
        <pt x="80" y="740" on="1"/>
        <pt x="365" y="740" on="1"/>
        <pt x="436" y="740" on="0"/>
        <pt x="537" y="689" on="0"/>
        <pt x="591" y="604" on="0"/>
        <pt x="591" y="554" on="1"/>
        <pt x="591" y="499" on="0"/>
        <pt x="551" y="431" on="0"/>
        <pt x="501" y="396" on="0"/>
        <pt x="486" y="390" on="1"/>
        <pt x="486" y="384" on="1"/>
        <pt x="510" y="377" on="0"/>
        <pt x="573" y="338" on="0"/>
        <pt x="619" y="266" on="0"/>
        <pt x="619" y="208" on="1"/>
        <pt x="619" y="157" on="0"/>
        <pt x="569" y="61" on="0"/>
        <pt x="461" y="0" on="0"/>
        <pt x="372" y="0" on="1"/>
      </contour>
      <contour>
        <pt x="361" y="655" on="1"/>
        <pt x="178" y="655" on="1"/>
        <pt x="178" y="419" on="1"/>
        <pt x="361" y="419" on="1"/>
        <pt x="409" y="419" on="0"/>
        <pt x="468" y="453" on="0"/>
        <pt x="495" y="508" on="0"/>
        <pt x="495" y="537" on="1"/>
        <pt x="495" y="567" on="0"/>
        <pt x="468" y="621" on="0"/>
        <pt x="409" y="655" on="0"/>
      </contour>
      <contour>
        <pt x="369" y="340" on="1"/>
        <pt x="178" y="340" on="1"/>
        <pt x="178" y="85" on="1"/>
        <pt x="369" y="85" on="1"/>
        <pt x="424" y="85" on="0"/>
        <pt x="490" y="122" on="0"/>
        <pt x="521" y="181" on="0"/>
        <pt x="521" y="213" on="1"/>
        <pt x="521" y="245" on="0"/>
        <pt x="490" y="303" on="0"/>
        <pt x="424" y="340" on="0"/>
      </contour>
    </TTGlyph>
    <TTGlyph name="C" xMin="55" yMin="-10" xMax="720" yMax="750">
      <contour>
        <pt x="405" y="-10" on="1"/>
        <pt x="318" y="-10" on="0"/>
        <pt x="186" y="55" on="0"/>
        <pt x="99" y="164" on="0"/>
        <pt x="55" y="299" on="0"/>
        <pt x="55" y="370" on="1"/>
        <pt x="55" y="441" on="0"/>
        <pt x="99" y="577" on="0"/>
        <pt x="186" y="686" on="0"/>
        <pt x="318" y="750" on="0"/>
        <pt x="405" y="750" on="1"/>
        <pt x="477" y="750" on="0"/>
        <pt x="580" y="713" on="0"/>
        <pt x="649" y="655" on="0"/>
        <pt x="692" y="589" on="0"/>
        <pt x="713" y="531" on="0"/>
        <pt x="720" y="494" on="0"/>
        <pt x="720" y="494" on="1"/>
        <pt x="622" y="494" on="1"/>
        <pt x="622" y="494" on="0"/>
        <pt x="614" y="527" on="0"/>
        <pt x="590" y="576" on="0"/>
        <pt x="542" y="626" on="0"/>
        <pt x="464" y="659" on="0"/>
        <pt x="406" y="659" on="1"/>
        <pt x="343" y="659" on="0"/>
        <pt x="249" y="610" on="0"/>
        <pt x="186" y="527" on="0"/>
        <pt x="155" y="424" on="0"/>
        <pt x="155" y="370" on="1"/>
        <pt x="155" y="316" on="0"/>
        <pt x="186" y="213" on="0"/>
        <pt x="249" y="130" on="0"/>
        <pt x="343" y="81" on="0"/>
        <pt x="406" y="81" on="1"/>
        <pt x="464" y="81" on="0"/>
        <pt x="542" y="115" on="0"/>
        <pt x="590" y="164" on="0"/>
        <pt x="614" y="213" on="0"/>
        <pt x="622" y="247" on="0"/>
        <pt x="622" y="247" on="1"/>
        <pt x="720" y="247" on="1"/>
        <pt x="720" y="247" on="0"/>
        <pt x="713" y="210" on="0"/>
        <pt x="692" y="151" on="0"/>
        <pt x="649" y="86" on="0"/>
        <pt x="580" y="27" on="0"/>
        <pt x="477" y="-10" on="0"/>
      </contour>
    </TTGlyph>
    <TTGlyph name="Cacute" xMin="55" yMin="-10" xMax="720" yMax="1001">
      <contour>
        <pt x="445" y="820" on="1"/>
        <pt x="364" y="821" on="1"/>
        <pt x="450" y="1001" on="1"/>
        <pt x="548" y="1001" on="1"/>
      </contour>
      <contour>
        <pt x="405" y="-10" on="1"/>
        <pt x="318" y="-10" on="0"/>
        <pt x="186" y="55" on="0"/>
        <pt x="99" y="164" on="0"/>
        <pt x="55" y="299" on="0"/>
        <pt x="55" y="370" on="1"/>
        <pt x="55" y="441" on="0"/>
        <pt x="99" y="577" on="0"/>
        <pt x="186" y="686" on="0"/>
        <pt x="318" y="750" on="0"/>
        <pt x="405" y="750" on="1"/>
        <pt x="477" y="750" on="0"/>
        <pt x="580" y="713" on="0"/>
        <pt x="649" y="655" on="0"/>
        <pt x="692" y="589" on="0"/>
        <pt x="713" y="531" on="0"/>
        <pt x="720" y="494" on="0"/>
        <pt x="720" y="494" on="1"/>
        <pt x="622" y="494" on="1"/>
        <pt x="622" y="494" on="0"/>
        <pt x="614" y="527" on="0"/>
        <pt x="590" y="576" on="0"/>
        <pt x="542" y="626" on="0"/>
        <pt x="464" y="659" on="0"/>
        <pt x="406" y="659" on="1"/>
        <pt x="343" y="659" on="0"/>
        <pt x="249" y="610" on="0"/>
        <pt x="186" y="527" on="0"/>
        <pt x="155" y="424" on="0"/>
        <pt x="155" y="370" on="1"/>
        <pt x="155" y="316" on="0"/>
        <pt x="186" y="213" on="0"/>
        <pt x="249" y="130" on="0"/>
        <pt x="343" y="81" on="0"/>
        <pt x="406" y="81" on="1"/>
        <pt x="464" y="81" on="0"/>
        <pt x="542" y="115" on="0"/>
        <pt x="590" y="164" on="0"/>
        <pt x="614" y="213" on="0"/>
        <pt x="622" y="247" on="0"/>
        <pt x="622" y="247" on="1"/>
        <pt x="720" y="247" on="1"/>
        <pt x="720" y="247" on="0"/>
        <pt x="713" y="210" on="0"/>
        <pt x="692" y="151" on="0"/>
        <pt x="649" y="86" on="0"/>
        <pt x="580" y="27" on="0"/>
        <pt x="477" y="-10" on="0"/>
      </contour>
    </TTGlyph>
    <TTGlyph name="Ccaron" xMin="55" yMin="-10" xMax="720" yMax="972">
      <contour>
        <pt x="365" y="805" on="1"/>
        <pt x="244" y="972" on="1"/>
        <pt x="330" y="972" on="1"/>
        <pt x="405" y="865" on="1"/>
        <pt x="481" y="972" on="1"/>
        <pt x="567" y="972" on="1"/>
        <pt x="446" y="805" on="1"/>
      </contour>
      <contour>
        <pt x="405" y="-10" on="1"/>
        <pt x="318" y="-10" on="0"/>
        <pt x="186" y="55" on="0"/>
        <pt x="99" y="164" on="0"/>
        <pt x="55" y="299" on="0"/>
        <pt x="55" y="370" on="1"/>
        <pt x="55" y="441" on="0"/>
        <pt x="99" y="577" on="0"/>
        <pt x="186" y="686" on="0"/>
        <pt x="318" y="750" on="0"/>
        <pt x="405" y="750" on="1"/>
        <pt x="477" y="750" on="0"/>
        <pt x="580" y="713" on="0"/>
        <pt x="649" y="655" on="0"/>
        <pt x="692" y="589" on="0"/>
        <pt x="713" y="531" on="0"/>
        <pt x="720" y="494" on="0"/>
        <pt x="720" y="494" on="1"/>
        <pt x="622" y="494" on="1"/>
        <pt x="622" y="494" on="0"/>
        <pt x="614" y="527" on="0"/>
        <pt x="590" y="576" on="0"/>
        <pt x="542" y="626" on="0"/>
        <pt x="464" y="659" on="0"/>
        <pt x="406" y="659" on="1"/>
        <pt x="343" y="659" on="0"/>
        <pt x="249" y="610" on="0"/>
        <pt x="186" y="527" on="0"/>
        <pt x="155" y="424" on="0"/>
        <pt x="155" y="370" on="1"/>
        <pt x="155" y="316" on="0"/>
        <pt x="186" y="213" on="0"/>
        <pt x="249" y="130" on="0"/>
        <pt x="343" y="81" on="0"/>
        <pt x="406" y="81" on="1"/>
        <pt x="464" y="81" on="0"/>
        <pt x="542" y="115" on="0"/>
        <pt x="590" y="164" on="0"/>
        <pt x="614" y="213" on="0"/>
        <pt x="622" y="247" on="0"/>
        <pt x="622" y="247" on="1"/>
        <pt x="720" y="247" on="1"/>
        <pt x="720" y="247" on="0"/>
        <pt x="713" y="210" on="0"/>
        <pt x="692" y="151" on="0"/>
        <pt x="649" y="86" on="0"/>
        <pt x="580" y="27" on="0"/>
        <pt x="477" y="-10" on="0"/>
      </contour>
    </TTGlyph>
    <TTGlyph name="Ccedilla" xMin="55" yMin="-259" xMax="720" yMax="750">
      <contour>
        <pt x="392" y="-259" on="1"/>
        <pt x="368" y="-259" on="0"/>
        <pt x="322" y="-253" on="0"/>
        <pt x="322" y="-253" on="1"/>
        <pt x="322" y="-195" on="1"/>
        <pt x="322" y="-195" on="0"/>
        <pt x="368" y="-201" on="0"/>
        <pt x="388" y="-201" on="1"/>
        <pt x="431" y="-201" on="0"/>
        <pt x="462" y="-167" on="0"/>
        <pt x="462" y="-150" on="1"/>
        <pt x="462" y="-133" on="0"/>
        <pt x="435" y="-107" on="0"/>
        <pt x="409" y="-107" on="1"/>
        <pt x="384" y="-107" on="0"/>
        <pt x="353" y="-126" on="0"/>
        <pt x="353" y="-126" on="1"/>
        <pt x="316" y="-89" on="1"/>
        <pt x="365" y="-8" on="1"/>
        <pt x="288" y="0" on="0"/>
        <pt x="171" y="69" on="0"/>
        <pt x="94" y="175" on="0"/>
        <pt x="55" y="303" on="0"/>
        <pt x="55" y="370" on="1"/>
        <pt x="55" y="441" on="0"/>
        <pt x="99" y="577" on="0"/>
        <pt x="186" y="686" on="0"/>
        <pt x="318" y="750" on="0"/>
        <pt x="405" y="750" on="1"/>
        <pt x="477" y="750" on="0"/>
        <pt x="580" y="713" on="0"/>
        <pt x="649" y="655" on="0"/>
        <pt x="692" y="589" on="0"/>
        <pt x="713" y="531" on="0"/>
        <pt x="720" y="494" on="0"/>
        <pt x="720" y="494" on="1"/>
        <pt x="622" y="494" on="1"/>
        <pt x="622" y="494" on="0"/>
        <pt x="614" y="527" on="0"/>
        <pt x="590" y="576" on="0"/>
        <pt x="542" y="626" on="0"/>
        <pt x="464" y="659" on="0"/>
        <pt x="406" y="659" on="1"/>
        <pt x="343" y="659" on="0"/>
        <pt x="249" y="610" on="0"/>
        <pt x="186" y="527" on="0"/>
        <pt x="155" y="424" on="0"/>
        <pt x="155" y="370" on="1"/>
        <pt x="155" y="316" on="0"/>
        <pt x="186" y="213" on="0"/>
        <pt x="249" y="130" on="0"/>
        <pt x="343" y="81" on="0"/>
        <pt x="406" y="81" on="1"/>
        <pt x="464" y="81" on="0"/>
        <pt x="542" y="115" on="0"/>
        <pt x="590" y="164" on="0"/>
        <pt x="614" y="213" on="0"/>
        <pt x="622" y="247" on="0"/>
        <pt x="622" y="247" on="1"/>
        <pt x="720" y="247" on="1"/>
        <pt x="720" y="247" on="0"/>
        <pt x="713" y="212" on="0"/>
        <pt x="694" y="156" on="0"/>
        <pt x="655" y="93" on="0"/>
        <pt x="591" y="34" on="0"/>
        <pt x="497" y="-6" on="0"/>
        <pt x="431" y="-9" on="1"/>
        <pt x="391" y="-72" on="1"/>
        <pt x="409" y="-67" on="0"/>
        <pt x="430" y="-67" on="1"/>
        <pt x="477" y="-67" on="0"/>
        <pt x="528" y="-111" on="0"/>
        <pt x="528" y="-149" on="1"/>
        <pt x="528" y="-175" on="0"/>
        <pt x="500" y="-226" on="0"/>
        <pt x="441" y="-259" on="0"/>
      </contour>
    </TTGlyph>
    <TTGlyph name="Cdotaccent" xMin="55" yMin="-10" xMax="720" yMax="964">
      <contour>
        <pt x="405" y="841" on="1"/>
        <pt x="378" y="841" on="0"/>
        <pt x="343" y="877" on="0"/>
        <pt x="343" y="902" on="1"/>
        <pt x="343" y="928" on="0"/>
        <pt x="378" y="964" on="0"/>
        <pt x="405" y="964" on="1"/>
        <pt x="431" y="964" on="0"/>
        <pt x="467" y="928" on="0"/>
        <pt x="467" y="902" on="1"/>
        <pt x="467" y="877" on="0"/>
        <pt x="431" y="841" on="0"/>
      </contour>
      <contour>
        <pt x="405" y="-10" on="1"/>
        <pt x="318" y="-10" on="0"/>
        <pt x="186" y="55" on="0"/>
        <pt x="99" y="164" on="0"/>
        <pt x="55" y="299" on="0"/>
        <pt x="55" y="370" on="1"/>
        <pt x="55" y="441" on="0"/>
        <pt x="99" y="577" on="0"/>
        <pt x="186" y="686" on="0"/>
        <pt x="318" y="750" on="0"/>
        <pt x="405" y="750" on="1"/>
        <pt x="477" y="750" on="0"/>
        <pt x="580" y="713" on="0"/>
        <pt x="649" y="655" on="0"/>
        <pt x="692" y="589" on="0"/>
        <pt x="713" y="531" on="0"/>
        <pt x="720" y="494" on="0"/>
        <pt x="720" y="494" on="1"/>
        <pt x="622" y="494" on="1"/>
        <pt x="622" y="494" on="0"/>
        <pt x="614" y="527" on="0"/>
        <pt x="590" y="576" on="0"/>
        <pt x="542" y="626" on="0"/>
        <pt x="464" y="659" on="0"/>
        <pt x="406" y="659" on="1"/>
        <pt x="343" y="659" on="0"/>
        <pt x="249" y="610" on="0"/>
        <pt x="186" y="527" on="0"/>
        <pt x="155" y="424" on="0"/>
        <pt x="155" y="370" on="1"/>
        <pt x="155" y="316" on="0"/>
        <pt x="186" y="213" on="0"/>
        <pt x="249" y="130" on="0"/>
        <pt x="343" y="81" on="0"/>
        <pt x="406" y="81" on="1"/>
        <pt x="464" y="81" on="0"/>
        <pt x="542" y="115" on="0"/>
        <pt x="590" y="164" on="0"/>
        <pt x="614" y="213" on="0"/>
        <pt x="622" y="247" on="0"/>
        <pt x="622" y="247" on="1"/>
        <pt x="720" y="247" on="1"/>
        <pt x="720" y="247" on="0"/>
        <pt x="713" y="210" on="0"/>
        <pt x="692" y="151" on="0"/>
        <pt x="649" y="86" on="0"/>
        <pt x="580" y="27" on="0"/>
        <pt x="477" y="-10" on="0"/>
      </contour>
    </TTGlyph>
    <TTGlyph name="D" xMin="80" yMin="0" xMax="673" yMax="740">
      <contour>
        <pt x="80" y="0" on="1"/>
        <pt x="80" y="740" on="1"/>
        <pt x="320" y="740" on="1"/>
        <pt x="409" y="740" on="0"/>
        <pt x="541" y="677" on="0"/>
        <pt x="629" y="571" on="0"/>
        <pt x="673" y="439" on="0"/>
        <pt x="673" y="370" on="1"/>
        <pt x="673" y="301" on="0"/>
        <pt x="629" y="169" on="0"/>
        <pt x="541" y="63" on="0"/>
        <pt x="409" y="0" on="0"/>
        <pt x="320" y="0" on="1"/>
      </contour>
      <contour>
        <pt x="316" y="654" on="1"/>
        <pt x="178" y="654" on="1"/>
        <pt x="178" y="86" on="1"/>
        <pt x="316" y="86" on="1"/>
        <pt x="381" y="86" on="0"/>
        <pt x="478" y="134" on="0"/>
        <pt x="543" y="215" on="0"/>
        <pt x="575" y="317" on="0"/>
        <pt x="575" y="370" on="1"/>
        <pt x="575" y="423" on="0"/>
        <pt x="543" y="525" on="0"/>
        <pt x="478" y="606" on="0"/>
        <pt x="381" y="654" on="0"/>
      </contour>
    </TTGlyph>
    <TTGlyph name="Dcaron" xMin="90" yMin="0" xMax="683" yMax="972">
      <contour>
        <pt x="290" y="805" on="1"/>
        <pt x="169" y="972" on="1"/>
        <pt x="255" y="972" on="1"/>
        <pt x="330" y="865" on="1"/>
        <pt x="406" y="972" on="1"/>
        <pt x="492" y="972" on="1"/>
        <pt x="371" y="805" on="1"/>
      </contour>
      <contour>
        <pt x="90" y="0" on="1"/>
        <pt x="90" y="740" on="1"/>
        <pt x="330" y="740" on="1"/>
        <pt x="419" y="740" on="0"/>
        <pt x="551" y="677" on="0"/>
        <pt x="639" y="571" on="0"/>
        <pt x="683" y="439" on="0"/>
        <pt x="683" y="370" on="1"/>
        <pt x="683" y="301" on="0"/>
        <pt x="639" y="169" on="0"/>
        <pt x="551" y="63" on="0"/>
        <pt x="419" y="0" on="0"/>
        <pt x="330" y="0" on="1"/>
      </contour>
      <contour>
        <pt x="326" y="654" on="1"/>
        <pt x="188" y="654" on="1"/>
        <pt x="188" y="86" on="1"/>
        <pt x="326" y="86" on="1"/>
        <pt x="391" y="86" on="0"/>
        <pt x="488" y="134" on="0"/>
        <pt x="553" y="215" on="0"/>
        <pt x="585" y="317" on="0"/>
        <pt x="585" y="370" on="1"/>
        <pt x="585" y="423" on="0"/>
        <pt x="553" y="525" on="0"/>
        <pt x="488" y="606" on="0"/>
        <pt x="391" y="654" on="0"/>
      </contour>
    </TTGlyph>
    <TTGlyph name="Dcroat" xMin="40" yMin="0" xMax="733" yMax="740">
      <contour>
        <pt x="140" y="0" on="1"/>
        <pt x="140" y="326" on="1"/>
        <pt x="40" y="326" on="1"/>
        <pt x="40" y="414" on="1"/>
        <pt x="140" y="414" on="1"/>
        <pt x="140" y="740" on="1"/>
        <pt x="380" y="740" on="1"/>
        <pt x="469" y="740" on="0"/>
        <pt x="601" y="677" on="0"/>
        <pt x="689" y="571" on="0"/>
        <pt x="733" y="439" on="0"/>
        <pt x="733" y="370" on="1"/>
        <pt x="733" y="301" on="0"/>
        <pt x="689" y="169" on="0"/>
        <pt x="601" y="63" on="0"/>
        <pt x="469" y="0" on="0"/>
        <pt x="380" y="0" on="1"/>
      </contour>
      <contour>
        <pt x="394" y="326" on="1"/>
        <pt x="238" y="326" on="1"/>
        <pt x="238" y="86" on="1"/>
        <pt x="376" y="86" on="1"/>
        <pt x="441" y="86" on="0"/>
        <pt x="538" y="134" on="0"/>
        <pt x="603" y="215" on="0"/>
        <pt x="635" y="317" on="0"/>
        <pt x="635" y="370" on="1"/>
        <pt x="635" y="423" on="0"/>
        <pt x="603" y="525" on="0"/>
        <pt x="538" y="606" on="0"/>
        <pt x="441" y="654" on="0"/>
        <pt x="376" y="654" on="1"/>
        <pt x="238" y="654" on="1"/>
        <pt x="238" y="414" on="1"/>
        <pt x="394" y="414" on="1"/>
      </contour>
    </TTGlyph>
    <TTGlyph name="E" xMin="80" yMin="0" xMax="555" yMax="740">
      <contour>
        <pt x="80" y="0" on="1"/>
        <pt x="80" y="740" on="1"/>
        <pt x="550" y="740" on="1"/>
        <pt x="550" y="654" on="1"/>
        <pt x="178" y="654" on="1"/>
        <pt x="178" y="420" on="1"/>
        <pt x="504" y="420" on="1"/>
        <pt x="504" y="334" on="1"/>
        <pt x="178" y="334" on="1"/>
        <pt x="178" y="86" on="1"/>
        <pt x="555" y="86" on="1"/>
        <pt x="555" y="0" on="1"/>
      </contour>
    </TTGlyph>
    <TTGlyph name="Eacute" xMin="90" yMin="0" xMax="565" yMax="1001">
      <contour>
        <pt x="375" y="820" on="1"/>
        <pt x="294" y="821" on="1"/>
        <pt x="380" y="1001" on="1"/>
        <pt x="478" y="1001" on="1"/>
      </contour>
      <contour>
        <pt x="90" y="0" on="1"/>
        <pt x="90" y="740" on="1"/>
        <pt x="560" y="740" on="1"/>
        <pt x="560" y="654" on="1"/>
        <pt x="188" y="654" on="1"/>
        <pt x="188" y="420" on="1"/>
        <pt x="514" y="420" on="1"/>
        <pt x="514" y="334" on="1"/>
        <pt x="188" y="334" on="1"/>
        <pt x="188" y="86" on="1"/>
        <pt x="565" y="86" on="1"/>
        <pt x="565" y="0" on="1"/>
      </contour>
    </TTGlyph>
    <TTGlyph name="Ecaron" xMin="90" yMin="0" xMax="565" yMax="972">
      <contour>
        <pt x="295" y="805" on="1"/>
        <pt x="174" y="972" on="1"/>
        <pt x="260" y="972" on="1"/>
        <pt x="335" y="865" on="1"/>
        <pt x="411" y="972" on="1"/>
        <pt x="497" y="972" on="1"/>
        <pt x="376" y="805" on="1"/>
      </contour>
      <contour>
        <pt x="90" y="0" on="1"/>
        <pt x="90" y="740" on="1"/>
        <pt x="560" y="740" on="1"/>
        <pt x="560" y="654" on="1"/>
        <pt x="188" y="654" on="1"/>
        <pt x="188" y="420" on="1"/>
        <pt x="514" y="420" on="1"/>
        <pt x="514" y="334" on="1"/>
        <pt x="188" y="334" on="1"/>
        <pt x="188" y="86" on="1"/>
        <pt x="565" y="86" on="1"/>
        <pt x="565" y="0" on="1"/>
      </contour>
    </TTGlyph>
    <TTGlyph name="Ecircumflex" xMin="90" yMin="0" xMax="565" yMax="963">
      <contour>
        <pt x="174" y="816" on="1"/>
        <pt x="295" y="963" on="1"/>
        <pt x="376" y="963" on="1"/>
        <pt x="497" y="816" on="1"/>
        <pt x="411" y="816" on="1"/>
        <pt x="335" y="908" on="1"/>
        <pt x="260" y="816" on="1"/>
      </contour>
      <contour>
        <pt x="90" y="0" on="1"/>
        <pt x="90" y="740" on="1"/>
        <pt x="560" y="740" on="1"/>
        <pt x="560" y="654" on="1"/>
        <pt x="188" y="654" on="1"/>
        <pt x="188" y="420" on="1"/>
        <pt x="514" y="420" on="1"/>
        <pt x="514" y="334" on="1"/>
        <pt x="188" y="334" on="1"/>
        <pt x="188" y="86" on="1"/>
        <pt x="565" y="86" on="1"/>
        <pt x="565" y="0" on="1"/>
      </contour>
    </TTGlyph>
    <TTGlyph name="Edieresis" xMin="90" yMin="0" xMax="565" yMax="944">
      <contour>
        <pt x="430" y="821" on="1"/>
        <pt x="403" y="821" on="0"/>
        <pt x="368" y="857" on="0"/>
        <pt x="368" y="882" on="1"/>
        <pt x="368" y="908" on="0"/>
        <pt x="403" y="944" on="0"/>
        <pt x="430" y="944" on="1"/>
        <pt x="456" y="944" on="0"/>
        <pt x="492" y="908" on="0"/>
        <pt x="492" y="882" on="1"/>
        <pt x="492" y="857" on="0"/>
        <pt x="456" y="821" on="0"/>
      </contour>
      <contour>
        <pt x="240" y="821" on="1"/>
        <pt x="213" y="821" on="0"/>
        <pt x="178" y="857" on="0"/>
        <pt x="178" y="882" on="1"/>
        <pt x="178" y="908" on="0"/>
        <pt x="213" y="944" on="0"/>
        <pt x="240" y="944" on="1"/>
        <pt x="266" y="944" on="0"/>
        <pt x="302" y="908" on="0"/>
        <pt x="302" y="882" on="1"/>
        <pt x="302" y="857" on="0"/>
        <pt x="266" y="821" on="0"/>
      </contour>
      <contour>
        <pt x="90" y="0" on="1"/>
        <pt x="90" y="740" on="1"/>
        <pt x="560" y="740" on="1"/>
        <pt x="560" y="654" on="1"/>
        <pt x="188" y="654" on="1"/>
        <pt x="188" y="420" on="1"/>
        <pt x="514" y="420" on="1"/>
        <pt x="514" y="334" on="1"/>
        <pt x="188" y="334" on="1"/>
        <pt x="188" y="86" on="1"/>
        <pt x="565" y="86" on="1"/>
        <pt x="565" y="0" on="1"/>
      </contour>
    </TTGlyph>
    <TTGlyph name="Edotaccent" xMin="90" yMin="0" xMax="565" yMax="964">
      <contour>
        <pt x="335" y="841" on="1"/>
        <pt x="308" y="841" on="0"/>
        <pt x="273" y="877" on="0"/>
        <pt x="273" y="902" on="1"/>
        <pt x="273" y="928" on="0"/>
        <pt x="308" y="964" on="0"/>
        <pt x="335" y="964" on="1"/>
        <pt x="361" y="964" on="0"/>
        <pt x="397" y="928" on="0"/>
        <pt x="397" y="902" on="1"/>
        <pt x="397" y="877" on="0"/>
        <pt x="361" y="841" on="0"/>
      </contour>
      <contour>
        <pt x="90" y="0" on="1"/>
        <pt x="90" y="740" on="1"/>
        <pt x="560" y="740" on="1"/>
        <pt x="560" y="654" on="1"/>
        <pt x="188" y="654" on="1"/>
        <pt x="188" y="420" on="1"/>
        <pt x="514" y="420" on="1"/>
        <pt x="514" y="334" on="1"/>
        <pt x="188" y="334" on="1"/>
        <pt x="188" y="86" on="1"/>
        <pt x="565" y="86" on="1"/>
        <pt x="565" y="0" on="1"/>
      </contour>
    </TTGlyph>
    <TTGlyph name="Egrave" xMin="90" yMin="0" xMax="565" yMax="1001">
      <contour>
        <pt x="299" y="820" on="1"/>
        <pt x="196" y="1001" on="1"/>
        <pt x="294" y="1001" on="1"/>
        <pt x="380" y="821" on="1"/>
      </contour>
      <contour>
        <pt x="90" y="0" on="1"/>
        <pt x="90" y="740" on="1"/>
        <pt x="560" y="740" on="1"/>
        <pt x="560" y="654" on="1"/>
        <pt x="188" y="654" on="1"/>
        <pt x="188" y="420" on="1"/>
        <pt x="514" y="420" on="1"/>
        <pt x="514" y="334" on="1"/>
        <pt x="188" y="334" on="1"/>
        <pt x="188" y="86" on="1"/>
        <pt x="565" y="86" on="1"/>
        <pt x="565" y="0" on="1"/>
      </contour>
    </TTGlyph>
    <TTGlyph name="Emacron" xMin="90" yMin="0" xMax="565" yMax="908">
      <contour>
        <pt x="183" y="836" on="1"/>
        <pt x="183" y="908" on="1"/>
        <pt x="487" y="908" on="1"/>
        <pt x="487" y="836" on="1"/>
      </contour>
      <contour>
        <pt x="90" y="0" on="1"/>
        <pt x="90" y="740" on="1"/>
        <pt x="560" y="740" on="1"/>
        <pt x="560" y="654" on="1"/>
        <pt x="188" y="654" on="1"/>
        <pt x="188" y="420" on="1"/>
        <pt x="514" y="420" on="1"/>
        <pt x="514" y="334" on="1"/>
        <pt x="188" y="334" on="1"/>
        <pt x="188" y="86" on="1"/>
        <pt x="565" y="86" on="1"/>
        <pt x="565" y="0" on="1"/>
      </contour>
    </TTGlyph>
    <TTGlyph name="Eogonek" xMin="90" yMin="-170" xMax="605" yMax="740">
      <contour>
        <pt x="90" y="0" on="1"/>
        <pt x="90" y="740" on="1"/>
        <pt x="560" y="740" on="1"/>
        <pt x="560" y="654" on="1"/>
        <pt x="188" y="654" on="1"/>
        <pt x="188" y="420" on="1"/>
        <pt x="514" y="420" on="1"/>
        <pt x="514" y="334" on="1"/>
        <pt x="188" y="334" on="1"/>
        <pt x="188" y="86" on="1"/>
        <pt x="565" y="86" on="1"/>
        <pt x="565" y="0" on="1"/>
        <pt x="565" y="0" on="0"/>
        <pt x="538" y="-14" on="0"/>
        <pt x="511" y="-42" on="0"/>
        <pt x="511" y="-63" on="1"/>
        <pt x="511" y="-81" on="0"/>
        <pt x="540" y="-106" on="0"/>
        <pt x="568" y="-106" on="1"/>
        <pt x="582" y="-106" on="0"/>
        <pt x="605" y="-101" on="0"/>
        <pt x="605" y="-101" on="1"/>
        <pt x="605" y="-164" on="1"/>
        <pt x="605" y="-164" on="0"/>
        <pt x="575" y="-170" on="0"/>
        <pt x="552" y="-170" on="1"/>
        <pt x="493" y="-170" on="0"/>
        <pt x="433" y="-117" on="0"/>
        <pt x="433" y="-80" on="1"/>
        <pt x="433" y="-51" on="0"/>
        <pt x="463" y="-12" on="0"/>
        <pt x="480" y="0" on="1"/>
      </contour>
    </TTGlyph>
    <TTGlyph name="Eth" xMin="40" yMin="0" xMax="733" yMax="740">
      <contour>
        <pt x="140" y="0" on="1"/>
        <pt x="140" y="326" on="1"/>
        <pt x="40" y="326" on="1"/>
        <pt x="40" y="414" on="1"/>
        <pt x="140" y="414" on="1"/>
        <pt x="140" y="740" on="1"/>
        <pt x="380" y="740" on="1"/>
        <pt x="469" y="740" on="0"/>
        <pt x="601" y="677" on="0"/>
        <pt x="689" y="571" on="0"/>
        <pt x="733" y="439" on="0"/>
        <pt x="733" y="370" on="1"/>
        <pt x="733" y="301" on="0"/>
        <pt x="689" y="169" on="0"/>
        <pt x="601" y="63" on="0"/>
        <pt x="469" y="0" on="0"/>
        <pt x="380" y="0" on="1"/>
      </contour>
      <contour>
        <pt x="394" y="326" on="1"/>
        <pt x="238" y="326" on="1"/>
        <pt x="238" y="86" on="1"/>
        <pt x="376" y="86" on="1"/>
        <pt x="441" y="86" on="0"/>
        <pt x="538" y="134" on="0"/>
        <pt x="603" y="215" on="0"/>
        <pt x="635" y="317" on="0"/>
        <pt x="635" y="370" on="1"/>
        <pt x="635" y="423" on="0"/>
        <pt x="603" y="525" on="0"/>
        <pt x="538" y="606" on="0"/>
        <pt x="441" y="654" on="0"/>
        <pt x="376" y="654" on="1"/>
        <pt x="238" y="654" on="1"/>
        <pt x="238" y="414" on="1"/>
        <pt x="394" y="414" on="1"/>
      </contour>
    </TTGlyph>
    <TTGlyph name="Euro" xMin="40" yMin="-10" xMax="674" yMax="750">
      <contour>
        <pt x="40" y="261" on="1"/>
        <pt x="40" y="333" on="1"/>
        <pt x="129" y="333" on="1"/>
        <pt x="127" y="351" on="0"/>
        <pt x="127" y="370" on="1"/>
        <pt x="127" y="388" on="0"/>
        <pt x="129" y="406" on="1"/>
        <pt x="40" y="406" on="1"/>
        <pt x="40" y="478" on="1"/>
        <pt x="141" y="478" on="1"/>
        <pt x="161" y="552" on="0"/>
        <pt x="256" y="675" on="0"/>
        <pt x="409" y="750" on="0"/>
        <pt x="515" y="750" on="1"/>
        <pt x="555" y="750" on="0"/>
        <pt x="628" y="741" on="0"/>
        <pt x="674" y="732" on="0"/>
        <pt x="674" y="732" on="1"/>
        <pt x="674" y="644" on="1"/>
        <pt x="674" y="644" on="0"/>
        <pt x="626" y="654" on="0"/>
        <pt x="554" y="663" on="0"/>
        <pt x="518" y="663" on="1"/>
        <pt x="442" y="663" on="0"/>
        <pt x="332" y="613" on="0"/>
        <pt x="261" y="529" on="0"/>
        <pt x="243" y="478" on="1"/>
        <pt x="547" y="478" on="1"/>
        <pt x="547" y="406" on="1"/>
        <pt x="228" y="406" on="1"/>
        <pt x="226" y="388" on="0"/>
        <pt x="226" y="370" on="1"/>
        <pt x="226" y="351" on="0"/>
        <pt x="228" y="333" on="1"/>
        <pt x="547" y="333" on="1"/>
        <pt x="547" y="261" on="1"/>
        <pt x="244" y="261" on="1"/>
        <pt x="261" y="210" on="0"/>
        <pt x="332" y="126" on="0"/>
        <pt x="443" y="76" on="0"/>
        <pt x="518" y="76" on="1"/>
        <pt x="554" y="76" on="0"/>
        <pt x="626" y="86" on="0"/>
        <pt x="674" y="95" on="0"/>
        <pt x="674" y="95" on="1"/>
        <pt x="674" y="7" on="1"/>
        <pt x="674" y="7" on="0"/>
        <pt x="628" y="-1" on="0"/>
        <pt x="555" y="-10" on="0"/>
        <pt x="515" y="-10" on="1"/>
        <pt x="409" y="-10" on="0"/>
        <pt x="256" y="64" on="0"/>
        <pt x="161" y="187" on="0"/>
        <pt x="141" y="261" on="1"/>
      </contour>
    </TTGlyph>
    <TTGlyph name="F" xMin="80" yMin="0" xMax="568" yMax="740">
      <contour>
        <pt x="80" y="0" on="1"/>
        <pt x="80" y="740" on="1"/>
        <pt x="568" y="740" on="1"/>
        <pt x="568" y="654" on="1"/>
        <pt x="178" y="654" on="1"/>
        <pt x="178" y="410" on="1"/>
        <pt x="522" y="410" on="1"/>
        <pt x="522" y="324" on="1"/>
        <pt x="178" y="324" on="1"/>
        <pt x="178" y="0" on="1"/>
      </contour>
    </TTGlyph>
    <TTGlyph name="G" xMin="55" yMin="-10" xMax="733" yMax="750">
      <contour>
        <pt x="410" y="-10" on="1"/>
        <pt x="320" y="-10" on="0"/>
        <pt x="186" y="54" on="0"/>
        <pt x="98" y="163" on="0"/>
        <pt x="55" y="298" on="0"/>
        <pt x="55" y="369" on="1"/>
        <pt x="55" y="440" on="0"/>
        <pt x="98" y="576" on="0"/>
        <pt x="187" y="685" on="0"/>
        <pt x="322" y="750" on="0"/>
        <pt x="413" y="750" on="1"/>
        <pt x="483" y="750" on="0"/>
        <pt x="584" y="714" on="0"/>
        <pt x="652" y="658" on="0"/>
        <pt x="694" y="595" on="0"/>
        <pt x="716" y="539" on="0"/>
        <pt x="723" y="503" on="0"/>
        <pt x="723" y="503" on="1"/>
        <pt x="624" y="503" on="1"/>
        <pt x="624" y="503" on="0"/>
        <pt x="616" y="535" on="0"/>
        <pt x="592" y="582" on="0"/>
        <pt x="545" y="629" on="0"/>
        <pt x="470" y="661" on="0"/>
        <pt x="414" y="661" on="1"/>
        <pt x="348" y="661" on="0"/>
        <pt x="250" y="611" on="0"/>
        <pt x="186" y="528" on="0"/>
        <pt x="154" y="425" on="0"/>
        <pt x="154" y="371" on="1"/>
        <pt x="154" y="316" on="0"/>
        <pt x="186" y="211" on="0"/>
        <pt x="251" y="128" on="0"/>
        <pt x="347" y="79" on="0"/>
        <pt x="410" y="79" on="1"/>
        <pt x="513" y="79" on="0"/>
        <pt x="634" y="200" on="0"/>
        <pt x="639" y="303" on="1"/>
        <pt x="419" y="303" on="1"/>
        <pt x="419" y="384" on="1"/>
        <pt x="733" y="384" on="1"/>
        <pt x="733" y="333" on="1"/>
        <pt x="733" y="219" on="0"/>
        <pt x="646" y="67" on="0"/>
        <pt x="500" y="-10" on="0"/>
      </contour>
    </TTGlyph>
    <TTGlyph name="Gbreve" xMin="55" yMin="-10" xMax="733" yMax="967">
      <contour>
        <pt x="413" y="815" on="1"/>
        <pt x="365" y="815" on="0"/>
        <pt x="304" y="846" on="0"/>
        <pt x="270" y="891" on="0"/>
        <pt x="256" y="936" on="0"/>
        <pt x="253" y="967" on="0"/>
        <pt x="253" y="967" on="1"/>
        <pt x="324" y="967" on="1"/>
        <pt x="324" y="967" on="0"/>
        <pt x="328" y="940" on="0"/>
        <pt x="343" y="906" on="0"/>
        <pt x="380" y="879" on="0"/>
        <pt x="413" y="879" on="1"/>
        <pt x="446" y="879" on="0"/>
        <pt x="483" y="906" on="0"/>
        <pt x="498" y="940" on="0"/>
        <pt x="502" y="967" on="0"/>
        <pt x="502" y="967" on="1"/>
        <pt x="573" y="967" on="1"/>
        <pt x="573" y="967" on="0"/>
        <pt x="570" y="936" on="0"/>
        <pt x="556" y="891" on="0"/>
        <pt x="522" y="846" on="0"/>
        <pt x="461" y="815" on="0"/>
      </contour>
      <contour>
        <pt x="410" y="-10" on="1"/>
        <pt x="320" y="-10" on="0"/>
        <pt x="186" y="54" on="0"/>
        <pt x="98" y="163" on="0"/>
        <pt x="55" y="298" on="0"/>
        <pt x="55" y="369" on="1"/>
        <pt x="55" y="440" on="0"/>
        <pt x="98" y="576" on="0"/>
        <pt x="187" y="685" on="0"/>
        <pt x="322" y="750" on="0"/>
        <pt x="413" y="750" on="1"/>
        <pt x="483" y="750" on="0"/>
        <pt x="584" y="714" on="0"/>
        <pt x="652" y="658" on="0"/>
        <pt x="694" y="595" on="0"/>
        <pt x="716" y="539" on="0"/>
        <pt x="723" y="503" on="0"/>
        <pt x="723" y="503" on="1"/>
        <pt x="624" y="503" on="1"/>
        <pt x="624" y="503" on="0"/>
        <pt x="616" y="535" on="0"/>
        <pt x="592" y="582" on="0"/>
        <pt x="545" y="629" on="0"/>
        <pt x="470" y="661" on="0"/>
        <pt x="414" y="661" on="1"/>
        <pt x="348" y="661" on="0"/>
        <pt x="250" y="611" on="0"/>
        <pt x="186" y="528" on="0"/>
        <pt x="154" y="425" on="0"/>
        <pt x="154" y="371" on="1"/>
        <pt x="154" y="316" on="0"/>
        <pt x="186" y="211" on="0"/>
        <pt x="251" y="128" on="0"/>
        <pt x="347" y="79" on="0"/>
        <pt x="410" y="79" on="1"/>
        <pt x="513" y="79" on="0"/>
        <pt x="634" y="200" on="0"/>
        <pt x="639" y="303" on="1"/>
        <pt x="419" y="303" on="1"/>
        <pt x="419" y="384" on="1"/>
        <pt x="733" y="384" on="1"/>
        <pt x="733" y="333" on="1"/>
        <pt x="733" y="219" on="0"/>
        <pt x="646" y="67" on="0"/>
        <pt x="500" y="-10" on="0"/>
      </contour>
    </TTGlyph>
    <TTGlyph name="Gcaron" xMin="55" yMin="-10" xMax="733" yMax="972">
      <contour>
        <pt x="373" y="805" on="1"/>
        <pt x="252" y="972" on="1"/>
        <pt x="338" y="972" on="1"/>
        <pt x="413" y="865" on="1"/>
        <pt x="489" y="972" on="1"/>
        <pt x="575" y="972" on="1"/>
        <pt x="454" y="805" on="1"/>
      </contour>
      <contour>
        <pt x="410" y="-10" on="1"/>
        <pt x="320" y="-10" on="0"/>
        <pt x="186" y="54" on="0"/>
        <pt x="98" y="163" on="0"/>
        <pt x="55" y="298" on="0"/>
        <pt x="55" y="369" on="1"/>
        <pt x="55" y="440" on="0"/>
        <pt x="98" y="576" on="0"/>
        <pt x="187" y="685" on="0"/>
        <pt x="322" y="750" on="0"/>
        <pt x="413" y="750" on="1"/>
        <pt x="483" y="750" on="0"/>
        <pt x="584" y="714" on="0"/>
        <pt x="652" y="658" on="0"/>
        <pt x="694" y="595" on="0"/>
        <pt x="716" y="539" on="0"/>
        <pt x="723" y="503" on="0"/>
        <pt x="723" y="503" on="1"/>
        <pt x="624" y="503" on="1"/>
        <pt x="624" y="503" on="0"/>
        <pt x="616" y="535" on="0"/>
        <pt x="592" y="582" on="0"/>
        <pt x="545" y="629" on="0"/>
        <pt x="470" y="661" on="0"/>
        <pt x="414" y="661" on="1"/>
        <pt x="348" y="661" on="0"/>
        <pt x="250" y="611" on="0"/>
        <pt x="186" y="528" on="0"/>
        <pt x="154" y="425" on="0"/>
        <pt x="154" y="371" on="1"/>
        <pt x="154" y="316" on="0"/>
        <pt x="186" y="211" on="0"/>
        <pt x="251" y="128" on="0"/>
        <pt x="347" y="79" on="0"/>
        <pt x="410" y="79" on="1"/>
        <pt x="513" y="79" on="0"/>
        <pt x="634" y="200" on="0"/>
        <pt x="639" y="303" on="1"/>
        <pt x="419" y="303" on="1"/>
        <pt x="419" y="384" on="1"/>
        <pt x="733" y="384" on="1"/>
        <pt x="733" y="333" on="1"/>
        <pt x="733" y="219" on="0"/>
        <pt x="646" y="67" on="0"/>
        <pt x="500" y="-10" on="0"/>
      </contour>
    </TTGlyph>
    <TTGlyph name="Gdotaccent" xMin="55" yMin="-10" xMax="733" yMax="964">
      <contour>
        <pt x="413" y="841" on="1"/>
        <pt x="386" y="841" on="0"/>
        <pt x="351" y="877" on="0"/>
        <pt x="351" y="902" on="1"/>
        <pt x="351" y="928" on="0"/>
        <pt x="386" y="964" on="0"/>
        <pt x="413" y="964" on="1"/>
        <pt x="439" y="964" on="0"/>
        <pt x="475" y="928" on="0"/>
        <pt x="475" y="902" on="1"/>
        <pt x="475" y="877" on="0"/>
        <pt x="439" y="841" on="0"/>
      </contour>
      <contour>
        <pt x="410" y="-10" on="1"/>
        <pt x="320" y="-10" on="0"/>
        <pt x="186" y="54" on="0"/>
        <pt x="98" y="163" on="0"/>
        <pt x="55" y="298" on="0"/>
        <pt x="55" y="369" on="1"/>
        <pt x="55" y="440" on="0"/>
        <pt x="98" y="576" on="0"/>
        <pt x="187" y="685" on="0"/>
        <pt x="322" y="750" on="0"/>
        <pt x="413" y="750" on="1"/>
        <pt x="483" y="750" on="0"/>
        <pt x="584" y="714" on="0"/>
        <pt x="652" y="658" on="0"/>
        <pt x="694" y="595" on="0"/>
        <pt x="716" y="539" on="0"/>
        <pt x="723" y="503" on="0"/>
        <pt x="723" y="503" on="1"/>
        <pt x="624" y="503" on="1"/>
        <pt x="624" y="503" on="0"/>
        <pt x="616" y="535" on="0"/>
        <pt x="592" y="582" on="0"/>
        <pt x="545" y="629" on="0"/>
        <pt x="470" y="661" on="0"/>
        <pt x="414" y="661" on="1"/>
        <pt x="348" y="661" on="0"/>
        <pt x="250" y="611" on="0"/>
        <pt x="186" y="528" on="0"/>
        <pt x="154" y="425" on="0"/>
        <pt x="154" y="371" on="1"/>
        <pt x="154" y="316" on="0"/>
        <pt x="186" y="211" on="0"/>
        <pt x="251" y="128" on="0"/>
        <pt x="347" y="79" on="0"/>
        <pt x="410" y="79" on="1"/>
        <pt x="513" y="79" on="0"/>
        <pt x="634" y="200" on="0"/>
        <pt x="639" y="303" on="1"/>
        <pt x="419" y="303" on="1"/>
        <pt x="419" y="384" on="1"/>
        <pt x="733" y="384" on="1"/>
        <pt x="733" y="333" on="1"/>
        <pt x="733" y="219" on="0"/>
        <pt x="646" y="67" on="0"/>
        <pt x="500" y="-10" on="0"/>
      </contour>
    </TTGlyph>
    <TTGlyph name="H" xMin="80" yMin="0" xMax="629" yMax="740">
      <contour>
        <pt x="80" y="0" on="1"/>
        <pt x="80" y="740" on="1"/>
        <pt x="178" y="740" on="1"/>
        <pt x="178" y="419" on="1"/>
        <pt x="531" y="419" on="1"/>
        <pt x="531" y="740" on="1"/>
        <pt x="629" y="740" on="1"/>
        <pt x="629" y="0" on="1"/>
        <pt x="531" y="0" on="1"/>
        <pt x="531" y="331" on="1"/>
        <pt x="178" y="331" on="1"/>
        <pt x="178" y="0" on="1"/>
      </contour>
    </TTGlyph>
    <TTGlyph name="Hbar" xMin="30" yMin="0" xMax="745" yMax="740">
      <contour>
        <pt x="123" y="0" on="1"/>
        <pt x="123" y="579" on="1"/>
        <pt x="30" y="579" on="1"/>
        <pt x="30" y="667" on="1"/>
        <pt x="123" y="667" on="1"/>
        <pt x="123" y="740" on="1"/>
        <pt x="221" y="740" on="1"/>
        <pt x="221" y="667" on="1"/>
        <pt x="574" y="667" on="1"/>
        <pt x="574" y="740" on="1"/>
        <pt x="672" y="740" on="1"/>
        <pt x="672" y="667" on="1"/>
        <pt x="745" y="667" on="1"/>
        <pt x="745" y="579" on="1"/>
        <pt x="672" y="579" on="1"/>
        <pt x="672" y="0" on="1"/>
        <pt x="574" y="0" on="1"/>
        <pt x="574" y="331" on="1"/>
        <pt x="221" y="331" on="1"/>
        <pt x="221" y="0" on="1"/>
      </contour>
      <contour>
        <pt x="221" y="419" on="1"/>
        <pt x="574" y="419" on="1"/>
        <pt x="574" y="579" on="1"/>
        <pt x="221" y="579" on="1"/>
      </contour>
    </TTGlyph>
    <TTGlyph name="I" xMin="80" yMin="0" xMax="178" yMax="740">
      <contour>
        <pt x="80" y="0" on="1"/>
        <pt x="80" y="740" on="1"/>
        <pt x="178" y="740" on="1"/>
        <pt x="178" y="0" on="1"/>
      </contour>
    </TTGlyph>
    <TTGlyph name="Iacute" xMin="90" yMin="0" xMax="282" yMax="1001">
      <contour>
        <pt x="179" y="820" on="1"/>
        <pt x="98" y="821" on="1"/>
        <pt x="184" y="1001" on="1"/>
        <pt x="282" y="1001" on="1"/>
      </contour>
      <contour>
        <pt x="90" y="0" on="1"/>
        <pt x="90" y="740" on="1"/>
        <pt x="188" y="740" on="1"/>
        <pt x="188" y="0" on="1"/>
      </contour>
    </TTGlyph>
    <TTGlyph name="Icircumflex" xMin="-22" yMin="0" xMax="301" yMax="983">
      <contour>
        <pt x="-22" y="816" on="1"/>
        <pt x="99" y="983" on="1"/>
        <pt x="180" y="983" on="1"/>
        <pt x="301" y="816" on="1"/>
        <pt x="215" y="816" on="1"/>
        <pt x="139" y="923" on="1"/>
        <pt x="64" y="816" on="1"/>
      </contour>
      <contour>
        <pt x="90" y="0" on="1"/>
        <pt x="90" y="740" on="1"/>
        <pt x="188" y="740" on="1"/>
        <pt x="188" y="0" on="1"/>
      </contour>
    </TTGlyph>
    <TTGlyph name="Idieresis" xMin="-18" yMin="0" xMax="296" yMax="944">
      <contour>
        <pt x="234" y="821" on="1"/>
        <pt x="207" y="821" on="0"/>
        <pt x="172" y="857" on="0"/>
        <pt x="172" y="882" on="1"/>
        <pt x="172" y="908" on="0"/>
        <pt x="207" y="944" on="0"/>
        <pt x="234" y="944" on="1"/>
        <pt x="260" y="944" on="0"/>
        <pt x="296" y="908" on="0"/>
        <pt x="296" y="882" on="1"/>
        <pt x="296" y="857" on="0"/>
        <pt x="260" y="821" on="0"/>
      </contour>
      <contour>
        <pt x="44" y="821" on="1"/>
        <pt x="17" y="821" on="0"/>
        <pt x="-18" y="857" on="0"/>
        <pt x="-18" y="882" on="1"/>
        <pt x="-18" y="908" on="0"/>
        <pt x="17" y="944" on="0"/>
        <pt x="44" y="944" on="1"/>
        <pt x="70" y="944" on="0"/>
        <pt x="106" y="908" on="0"/>
        <pt x="106" y="882" on="1"/>
        <pt x="106" y="857" on="0"/>
        <pt x="70" y="821" on="0"/>
      </contour>
      <contour>
        <pt x="90" y="0" on="1"/>
        <pt x="90" y="740" on="1"/>
        <pt x="188" y="740" on="1"/>
        <pt x="188" y="0" on="1"/>
      </contour>
    </TTGlyph>
    <TTGlyph name="Idotaccent" xMin="77" yMin="0" xMax="201" yMax="964">
      <contour>
        <pt x="139" y="841" on="1"/>
        <pt x="112" y="841" on="0"/>
        <pt x="77" y="877" on="0"/>
        <pt x="77" y="902" on="1"/>
        <pt x="77" y="928" on="0"/>
        <pt x="112" y="964" on="0"/>
        <pt x="139" y="964" on="1"/>
        <pt x="165" y="964" on="0"/>
        <pt x="201" y="928" on="0"/>
        <pt x="201" y="902" on="1"/>
        <pt x="201" y="877" on="0"/>
        <pt x="165" y="841" on="0"/>
      </contour>
      <contour>
        <pt x="90" y="0" on="1"/>
        <pt x="90" y="740" on="1"/>
        <pt x="188" y="740" on="1"/>
        <pt x="188" y="0" on="1"/>
      </contour>
    </TTGlyph>
    <TTGlyph name="Igrave" xMin="0" yMin="0" xMax="188" yMax="1001">
      <contour>
        <pt x="103" y="820" on="1"/>
        <pt x="0" y="1001" on="1"/>
        <pt x="98" y="1001" on="1"/>
        <pt x="184" y="821" on="1"/>
      </contour>
      <contour>
        <pt x="90" y="0" on="1"/>
        <pt x="90" y="740" on="1"/>
        <pt x="188" y="740" on="1"/>
        <pt x="188" y="0" on="1"/>
      </contour>
    </TTGlyph>
    <TTGlyph name="Imacron" xMin="-13" yMin="0" xMax="291" yMax="908">
      <contour>
        <pt x="-13" y="836" on="1"/>
        <pt x="-13" y="908" on="1"/>
        <pt x="291" y="908" on="1"/>
        <pt x="291" y="836" on="1"/>
      </contour>
      <contour>
        <pt x="90" y="0" on="1"/>
        <pt x="90" y="740" on="1"/>
        <pt x="188" y="740" on="1"/>
        <pt x="188" y="0" on="1"/>
      </contour>
    </TTGlyph>
    <TTGlyph name="Iogonek" xMin="56" yMin="-170" xMax="228" yMax="740">
      <contour>
        <pt x="90" y="0" on="1"/>
        <pt x="90" y="740" on="1"/>
        <pt x="188" y="740" on="1"/>
        <pt x="188" y="0" on="1"/>
        <pt x="188" y="0" on="0"/>
        <pt x="161" y="-14" on="0"/>
        <pt x="134" y="-42" on="0"/>
        <pt x="134" y="-63" on="1"/>
        <pt x="134" y="-81" on="0"/>
        <pt x="163" y="-106" on="0"/>
        <pt x="191" y="-106" on="1"/>
        <pt x="205" y="-106" on="0"/>
        <pt x="228" y="-101" on="0"/>
        <pt x="228" y="-101" on="1"/>
        <pt x="228" y="-164" on="1"/>
        <pt x="228" y="-164" on="0"/>
        <pt x="198" y="-170" on="0"/>
        <pt x="175" y="-170" on="1"/>
        <pt x="116" y="-170" on="0"/>
        <pt x="56" y="-117" on="0"/>
        <pt x="56" y="-80" on="1"/>
        <pt x="56" y="-51" on="0"/>
        <pt x="86" y="-12" on="0"/>
        <pt x="103" y="0" on="1"/>
      </contour>
    </TTGlyph>
    <TTGlyph name="Itilde" xMin="-18" yMin="0" xMax="296" yMax="962">
      <contour>
        <pt x="207" y="827" on="1"/>
        <pt x="180" y="827" on="0"/>
        <pt x="143" y="847" on="0"/>
        <pt x="116" y="873" on="0"/>
        <pt x="92" y="893" on="0"/>
        <pt x="78" y="893" on="1"/>
        <pt x="61" y="893" on="0"/>
        <pt x="46" y="860" on="0"/>
        <pt x="46" y="833" on="1"/>
        <pt x="-18" y="833" on="1"/>
        <pt x="-18" y="864" on="0"/>
        <pt x="-3" y="923" on="0"/>
        <pt x="37" y="962" on="0"/>
        <pt x="72" y="962" on="1"/>
        <pt x="99" y="962" on="0"/>
        <pt x="137" y="942" on="0"/>
        <pt x="164" y="917" on="0"/>
        <pt x="188" y="897" on="0"/>
        <pt x="201" y="897" on="1"/>
        <pt x="217" y="897" on="0"/>
        <pt x="232" y="929" on="0"/>
        <pt x="232" y="957" on="1"/>
        <pt x="296" y="957" on="1"/>
        <pt x="296" y="926" on="0"/>
        <pt x="281" y="866" on="0"/>
        <pt x="242" y="827" on="0"/>
      </contour>
      <contour>
        <pt x="90" y="0" on="1"/>
        <pt x="90" y="740" on="1"/>
        <pt x="188" y="740" on="1"/>
        <pt x="188" y="0" on="1"/>
      </contour>
    </TTGlyph>
    <TTGlyph name="J" xMin="40" yMin="-10" xMax="385" yMax="740">
      <contour>
        <pt x="131" y="-10" on="1"/>
        <pt x="97" y="-10" on="0"/>
        <pt x="40" y="-3" on="0"/>
        <pt x="40" y="-3" on="1"/>
        <pt x="40" y="84" on="1"/>
        <pt x="40" y="84" on="0"/>
        <pt x="65" y="82" on="0"/>
        <pt x="102" y="79" on="0"/>
        <pt x="119" y="79" on="1"/>
        <pt x="196" y="79" on="0"/>
        <pt x="287" y="155" on="0"/>
        <pt x="287" y="248" on="1"/>
        <pt x="287" y="740" on="1"/>
        <pt x="385" y="740" on="1"/>
        <pt x="385" y="248" on="1"/>
        <pt x="385" y="130" on="0"/>
        <pt x="256" y="-10" on="0"/>
      </contour>
    </TTGlyph>
    <TTGlyph name="K" xMin="80" yMin="0" xMax="641" yMax="740">
      <contour>
        <pt x="80" y="0" on="1"/>
        <pt x="80" y="740" on="1"/>
        <pt x="178" y="740" on="1"/>
        <pt x="178" y="406" on="1"/>
        <pt x="498" y="739" on="1"/>
        <pt x="626" y="739" on="1"/>
        <pt x="280" y="384" on="1"/>
        <pt x="641" y="0" on="1"/>
        <pt x="509" y="0" on="1"/>
        <pt x="178" y="353" on="1"/>
        <pt x="178" y="0" on="1"/>
      </contour>
    </TTGlyph>
    <TTGlyph name="L" xMin="80" yMin="0" xMax="559" yMax="740">
      <contour>
        <pt x="80" y="0" on="1"/>
        <pt x="80" y="740" on="1"/>
        <pt x="178" y="740" on="1"/>
        <pt x="178" y="86" on="1"/>
        <pt x="559" y="86" on="1"/>
        <pt x="559" y="0" on="1"/>
      </contour>
    </TTGlyph>
    <TTGlyph name="Lacute" xMin="90" yMin="0" xMax="569" yMax="1001">
      <contour>
        <pt x="188" y="820" on="1"/>
        <pt x="107" y="821" on="1"/>
        <pt x="193" y="1001" on="1"/>
        <pt x="291" y="1001" on="1"/>
      </contour>
      <contour>
        <pt x="90" y="0" on="1"/>
        <pt x="90" y="740" on="1"/>
        <pt x="188" y="740" on="1"/>
        <pt x="188" y="86" on="1"/>
        <pt x="569" y="86" on="1"/>
        <pt x="569" y="0" on="1"/>
      </contour>
    </TTGlyph>
    <TTGlyph name="Lcaron" xMin="-13" yMin="0" xMax="569" yMax="972">
      <contour>
        <pt x="108" y="805" on="1"/>
        <pt x="-13" y="972" on="1"/>
        <pt x="73" y="972" on="1"/>
        <pt x="148" y="865" on="1"/>
        <pt x="224" y="972" on="1"/>
        <pt x="310" y="972" on="1"/>
        <pt x="189" y="805" on="1"/>
      </contour>
      <contour>
        <pt x="90" y="0" on="1"/>
        <pt x="90" y="740" on="1"/>
        <pt x="188" y="740" on="1"/>
        <pt x="188" y="86" on="1"/>
        <pt x="569" y="86" on="1"/>
        <pt x="569" y="0" on="1"/>
      </contour>
    </TTGlyph>
    <TTGlyph name="Lslash" xMin="11" yMin="0" xMax="584" yMax="740">
      <contour>
        <pt x="105" y="0" on="1"/>
        <pt x="105" y="328" on="1"/>
        <pt x="11" y="300" on="1"/>
        <pt x="11" y="382" on="1"/>
        <pt x="105" y="410" on="1"/>
        <pt x="105" y="740" on="1"/>
        <pt x="203" y="740" on="1"/>
        <pt x="203" y="438" on="1"/>
        <pt x="372" y="488" on="1"/>
        <pt x="372" y="406" on="1"/>
        <pt x="203" y="356" on="1"/>
        <pt x="203" y="86" on="1"/>
        <pt x="584" y="86" on="1"/>
        <pt x="584" y="0" on="1"/>
      </contour>
    </TTGlyph>
    <TTGlyph name="M" xMin="80" yMin="0" xMax="773" yMax="740">
      <contour>
        <pt x="80" y="0" on="1"/>
        <pt x="80" y="740" on="1"/>
        <pt x="209" y="740" on="1"/>
        <pt x="427" y="300" on="1"/>
        <pt x="644" y="740" on="1"/>
        <pt x="773" y="740" on="1"/>
        <pt x="773" y="0" on="1"/>
        <pt x="677" y="0" on="1"/>
        <pt x="677" y="596" on="1"/>
        <pt x="473" y="190" on="1"/>
        <pt x="380" y="190" on="1"/>
        <pt x="176" y="598" on="1"/>
        <pt x="176" y="0" on="1"/>
      </contour>
    </TTGlyph>
    <TTGlyph name="N" xMin="80" yMin="0" xMax="652" yMax="740">
      <contour>
        <pt x="80" y="0" on="1"/>
        <pt x="80" y="740" on="1"/>
        <pt x="168" y="740" on="1"/>
        <pt x="554" y="177" on="1"/>
        <pt x="554" y="740" on="1"/>
        <pt x="652" y="740" on="1"/>
        <pt x="652" y="0" on="1"/>
        <pt x="564" y="0" on="1"/>
        <pt x="178" y="562" on="1"/>
        <pt x="178" y="0" on="1"/>
      </contour>
    </TTGlyph>
    <TTGlyph name="Nacute" xMin="90" yMin="0" xMax="662" yMax="1001">
      <contour>
        <pt x="414" y="820" on="1"/>
        <pt x="333" y="821" on="1"/>
        <pt x="419" y="1001" on="1"/>
        <pt x="517" y="1001" on="1"/>
      </contour>
      <contour>
        <pt x="90" y="0" on="1"/>
        <pt x="90" y="740" on="1"/>
        <pt x="178" y="740" on="1"/>
        <pt x="564" y="177" on="1"/>
        <pt x="564" y="740" on="1"/>
        <pt x="662" y="740" on="1"/>
        <pt x="662" y="0" on="1"/>
        <pt x="574" y="0" on="1"/>
        <pt x="188" y="562" on="1"/>
        <pt x="188" y="0" on="1"/>
      </contour>
    </TTGlyph>
    <TTGlyph name="Ncaron" xMin="90" yMin="0" xMax="662" yMax="972">
      <contour>
        <pt x="334" y="805" on="1"/>
        <pt x="213" y="972" on="1"/>
        <pt x="299" y="972" on="1"/>
        <pt x="374" y="865" on="1"/>
        <pt x="450" y="972" on="1"/>
        <pt x="536" y="972" on="1"/>
        <pt x="415" y="805" on="1"/>
      </contour>
      <contour>
        <pt x="90" y="0" on="1"/>
        <pt x="90" y="740" on="1"/>
        <pt x="178" y="740" on="1"/>
        <pt x="564" y="177" on="1"/>
        <pt x="564" y="740" on="1"/>
        <pt x="662" y="740" on="1"/>
        <pt x="662" y="0" on="1"/>
        <pt x="574" y="0" on="1"/>
        <pt x="188" y="562" on="1"/>
        <pt x="188" y="0" on="1"/>
      </contour>
    </TTGlyph>
    <TTGlyph name="Ntilde" xMin="90" yMin="0" xMax="662" yMax="962">
      <contour>
        <pt x="442" y="827" on="1"/>
        <pt x="415" y="827" on="0"/>
        <pt x="378" y="847" on="0"/>
        <pt x="351" y="873" on="0"/>
        <pt x="327" y="893" on="0"/>
        <pt x="313" y="893" on="1"/>
        <pt x="296" y="893" on="0"/>
        <pt x="281" y="860" on="0"/>
        <pt x="281" y="833" on="1"/>
        <pt x="217" y="833" on="1"/>
        <pt x="217" y="864" on="0"/>
        <pt x="232" y="923" on="0"/>
        <pt x="272" y="962" on="0"/>
        <pt x="307" y="962" on="1"/>
        <pt x="334" y="962" on="0"/>
        <pt x="372" y="942" on="0"/>
        <pt x="399" y="917" on="0"/>
        <pt x="423" y="897" on="0"/>
        <pt x="436" y="897" on="1"/>
        <pt x="452" y="897" on="0"/>
        <pt x="467" y="929" on="0"/>
        <pt x="467" y="957" on="1"/>
        <pt x="531" y="957" on="1"/>
        <pt x="531" y="926" on="0"/>
        <pt x="516" y="866" on="0"/>
        <pt x="477" y="827" on="0"/>
      </contour>
      <contour>
        <pt x="90" y="0" on="1"/>
        <pt x="90" y="740" on="1"/>
        <pt x="178" y="740" on="1"/>
        <pt x="564" y="177" on="1"/>
        <pt x="564" y="740" on="1"/>
        <pt x="662" y="740" on="1"/>
        <pt x="662" y="0" on="1"/>
        <pt x="574" y="0" on="1"/>
        <pt x="188" y="562" on="1"/>
        <pt x="188" y="0" on="1"/>
      </contour>
    </TTGlyph>
    <TTGlyph name="O" xMin="55" yMin="-10" xMax="771" yMax="750">
      <contour>
        <pt x="413" y="-10" on="1"/>
        <pt x="325" y="-10" on="0"/>
        <pt x="191" y="55" on="0"/>
        <pt x="101" y="164" on="0"/>
        <pt x="55" y="300" on="0"/>
        <pt x="55" y="371" on="1"/>
        <pt x="55" y="442" on="0"/>
        <pt x="101" y="577" on="0"/>
        <pt x="191" y="685" on="0"/>
        <pt x="325" y="750" on="0"/>
        <pt x="413" y="750" on="1"/>
        <pt x="501" y="750" on="0"/>
        <pt x="635" y="685" on="0"/>
        <pt x="725" y="577" on="0"/>
        <pt x="771" y="442" on="0"/>
        <pt x="771" y="371" on="1"/>
        <pt x="771" y="300" on="0"/>
        <pt x="725" y="164" on="0"/>
        <pt x="635" y="55" on="0"/>
        <pt x="501" y="-10" on="0"/>
      </contour>
      <contour>
        <pt x="413" y="81" on="1"/>
        <pt x="476" y="81" on="0"/>
        <pt x="572" y="129" on="0"/>
        <pt x="637" y="211" on="0"/>
        <pt x="671" y="315" on="0"/>
        <pt x="671" y="371" on="1"/>
        <pt x="671" y="426" on="0"/>
        <pt x="637" y="529" on="0"/>
        <pt x="572" y="611" on="0"/>
        <pt x="476" y="659" on="0"/>
        <pt x="413" y="659" on="1"/>
        <pt x="350" y="659" on="0"/>
        <pt x="254" y="611" on="0"/>
        <pt x="189" y="529" on="0"/>
        <pt x="155" y="426" on="0"/>
        <pt x="155" y="371" on="1"/>
        <pt x="155" y="315" on="0"/>
        <pt x="189" y="211" on="0"/>
        <pt x="254" y="129" on="0"/>
        <pt x="350" y="81" on="0"/>
      </contour>
    </TTGlyph>
    <TTGlyph name="OE" xMin="55" yMin="0" xMax="935" yMax="740">
      <contour>
        <pt x="930" y="740" on="1"/>
        <pt x="930" y="654" on="1"/>
        <pt x="568" y="654" on="1"/>
        <pt x="568" y="420" on="1"/>
        <pt x="884" y="420" on="1"/>
        <pt x="884" y="334" on="1"/>
        <pt x="568" y="334" on="1"/>
        <pt x="568" y="86" on="1"/>
        <pt x="935" y="86" on="1"/>
        <pt x="935" y="0" on="1"/>
        <pt x="428" y="0" on="1"/>
        <pt x="332" y="0" on="0"/>
        <pt x="191" y="63" on="0"/>
        <pt x="100" y="169" on="0"/>
        <pt x="55" y="301" on="0"/>
        <pt x="55" y="370" on="1"/>
        <pt x="55" y="439" on="0"/>
        <pt x="100" y="571" on="0"/>
        <pt x="191" y="677" on="0"/>
        <pt x="332" y="740" on="0"/>
        <pt x="428" y="740" on="1"/>
      </contour>
      <contour>
        <pt x="153" y="370" on="1"/>
        <pt x="153" y="317" on="0"/>
        <pt x="186" y="215" on="0"/>
        <pt x="254" y="134" on="0"/>
        <pt x="360" y="86" on="0"/>
        <pt x="432" y="86" on="1"/>
        <pt x="470" y="86" on="1"/>
        <pt x="470" y="654" on="1"/>
        <pt x="432" y="654" on="1"/>
        <pt x="360" y="654" on="0"/>
        <pt x="254" y="606" on="0"/>
        <pt x="186" y="525" on="0"/>
        <pt x="153" y="423" on="0"/>
      </contour>
    </TTGlyph>
    <TTGlyph name="Oacute" xMin="55" yMin="-10" xMax="771" yMax="1011">
      <contour>
        <pt x="453" y="830" on="1"/>
        <pt x="372" y="831" on="1"/>
        <pt x="458" y="1011" on="1"/>
        <pt x="556" y="1011" on="1"/>
      </contour>
      <contour>
        <pt x="413" y="-10" on="1"/>
        <pt x="325" y="-10" on="0"/>
        <pt x="191" y="55" on="0"/>
        <pt x="101" y="164" on="0"/>
        <pt x="55" y="300" on="0"/>
        <pt x="55" y="371" on="1"/>
        <pt x="55" y="442" on="0"/>
        <pt x="101" y="577" on="0"/>
        <pt x="191" y="685" on="0"/>
        <pt x="325" y="750" on="0"/>
        <pt x="413" y="750" on="1"/>
        <pt x="501" y="750" on="0"/>
        <pt x="635" y="685" on="0"/>
        <pt x="725" y="577" on="0"/>
        <pt x="771" y="442" on="0"/>
        <pt x="771" y="371" on="1"/>
        <pt x="771" y="300" on="0"/>
        <pt x="725" y="164" on="0"/>
        <pt x="635" y="55" on="0"/>
        <pt x="501" y="-10" on="0"/>
      </contour>
      <contour>
        <pt x="413" y="81" on="1"/>
        <pt x="476" y="81" on="0"/>
        <pt x="572" y="129" on="0"/>
        <pt x="637" y="211" on="0"/>
        <pt x="671" y="315" on="0"/>
        <pt x="671" y="371" on="1"/>
        <pt x="671" y="426" on="0"/>
        <pt x="637" y="529" on="0"/>
        <pt x="572" y="611" on="0"/>
        <pt x="476" y="659" on="0"/>
        <pt x="413" y="659" on="1"/>
        <pt x="350" y="659" on="0"/>
        <pt x="254" y="611" on="0"/>
        <pt x="189" y="529" on="0"/>
        <pt x="155" y="426" on="0"/>
        <pt x="155" y="371" on="1"/>
        <pt x="155" y="315" on="0"/>
        <pt x="189" y="211" on="0"/>
        <pt x="254" y="129" on="0"/>
        <pt x="350" y="81" on="0"/>
      </contour>
    </TTGlyph>
    <TTGlyph name="Ocircumflex" xMin="55" yMin="-10" xMax="771" yMax="973">
      <contour>
        <pt x="252" y="826" on="1"/>
        <pt x="373" y="973" on="1"/>
        <pt x="454" y="973" on="1"/>
        <pt x="575" y="826" on="1"/>
        <pt x="489" y="826" on="1"/>
        <pt x="413" y="918" on="1"/>
        <pt x="338" y="826" on="1"/>
      </contour>
      <contour>
        <pt x="413" y="-10" on="1"/>
        <pt x="325" y="-10" on="0"/>
        <pt x="191" y="55" on="0"/>
        <pt x="101" y="164" on="0"/>
        <pt x="55" y="300" on="0"/>
        <pt x="55" y="371" on="1"/>
        <pt x="55" y="442" on="0"/>
        <pt x="101" y="577" on="0"/>
        <pt x="191" y="685" on="0"/>
        <pt x="325" y="750" on="0"/>
        <pt x="413" y="750" on="1"/>
        <pt x="501" y="750" on="0"/>
        <pt x="635" y="685" on="0"/>
        <pt x="725" y="577" on="0"/>
        <pt x="771" y="442" on="0"/>
        <pt x="771" y="371" on="1"/>
        <pt x="771" y="300" on="0"/>
        <pt x="725" y="164" on="0"/>
        <pt x="635" y="55" on="0"/>
        <pt x="501" y="-10" on="0"/>
      </contour>
      <contour>
        <pt x="413" y="81" on="1"/>
        <pt x="476" y="81" on="0"/>
        <pt x="572" y="129" on="0"/>
        <pt x="637" y="211" on="0"/>
        <pt x="671" y="315" on="0"/>
        <pt x="671" y="371" on="1"/>
        <pt x="671" y="426" on="0"/>
        <pt x="637" y="529" on="0"/>
        <pt x="572" y="611" on="0"/>
        <pt x="476" y="659" on="0"/>
        <pt x="413" y="659" on="1"/>
        <pt x="350" y="659" on="0"/>
        <pt x="254" y="611" on="0"/>
        <pt x="189" y="529" on="0"/>
        <pt x="155" y="426" on="0"/>
        <pt x="155" y="371" on="1"/>
        <pt x="155" y="315" on="0"/>
        <pt x="189" y="211" on="0"/>
        <pt x="254" y="129" on="0"/>
        <pt x="350" y="81" on="0"/>
      </contour>
    </TTGlyph>
    <TTGlyph name="Odieresis" xMin="55" yMin="-10" xMax="771" yMax="954">
      <contour>
        <pt x="508" y="831" on="1"/>
        <pt x="481" y="831" on="0"/>
        <pt x="446" y="867" on="0"/>
        <pt x="446" y="892" on="1"/>
        <pt x="446" y="918" on="0"/>
        <pt x="481" y="954" on="0"/>
        <pt x="508" y="954" on="1"/>
        <pt x="534" y="954" on="0"/>
        <pt x="570" y="918" on="0"/>
        <pt x="570" y="892" on="1"/>
        <pt x="570" y="867" on="0"/>
        <pt x="534" y="831" on="0"/>
      </contour>
      <contour>
        <pt x="318" y="831" on="1"/>
        <pt x="291" y="831" on="0"/>
        <pt x="256" y="867" on="0"/>
        <pt x="256" y="892" on="1"/>
        <pt x="256" y="918" on="0"/>
        <pt x="291" y="954" on="0"/>
        <pt x="318" y="954" on="1"/>
        <pt x="344" y="954" on="0"/>
        <pt x="380" y="918" on="0"/>
        <pt x="380" y="892" on="1"/>
        <pt x="380" y="867" on="0"/>
        <pt x="344" y="831" on="0"/>
      </contour>
      <contour>
        <pt x="413" y="-10" on="1"/>
        <pt x="325" y="-10" on="0"/>
        <pt x="191" y="55" on="0"/>
        <pt x="101" y="164" on="0"/>
        <pt x="55" y="300" on="0"/>
        <pt x="55" y="371" on="1"/>
        <pt x="55" y="442" on="0"/>
        <pt x="101" y="577" on="0"/>
        <pt x="191" y="685" on="0"/>
        <pt x="325" y="750" on="0"/>
        <pt x="413" y="750" on="1"/>
        <pt x="501" y="750" on="0"/>
        <pt x="635" y="685" on="0"/>
        <pt x="725" y="577" on="0"/>
        <pt x="771" y="442" on="0"/>
        <pt x="771" y="371" on="1"/>
        <pt x="771" y="300" on="0"/>
        <pt x="725" y="164" on="0"/>
        <pt x="635" y="55" on="0"/>
        <pt x="501" y="-10" on="0"/>
      </contour>
      <contour>
        <pt x="413" y="81" on="1"/>
        <pt x="476" y="81" on="0"/>
        <pt x="572" y="129" on="0"/>
        <pt x="637" y="211" on="0"/>
        <pt x="671" y="315" on="0"/>
        <pt x="671" y="371" on="1"/>
        <pt x="671" y="426" on="0"/>
        <pt x="637" y="529" on="0"/>
        <pt x="572" y="611" on="0"/>
        <pt x="476" y="659" on="0"/>
        <pt x="413" y="659" on="1"/>
        <pt x="350" y="659" on="0"/>
        <pt x="254" y="611" on="0"/>
        <pt x="189" y="529" on="0"/>
        <pt x="155" y="426" on="0"/>
        <pt x="155" y="371" on="1"/>
        <pt x="155" y="315" on="0"/>
        <pt x="189" y="211" on="0"/>
        <pt x="254" y="129" on="0"/>
        <pt x="350" y="81" on="0"/>
      </contour>
    </TTGlyph>
    <TTGlyph name="Ograve" xMin="55" yMin="-10" xMax="771" yMax="1011">
      <contour>
        <pt x="377" y="830" on="1"/>
        <pt x="274" y="1011" on="1"/>
        <pt x="372" y="1011" on="1"/>
        <pt x="458" y="831" on="1"/>
      </contour>
      <contour>
        <pt x="413" y="-10" on="1"/>
        <pt x="325" y="-10" on="0"/>
        <pt x="191" y="55" on="0"/>
        <pt x="101" y="164" on="0"/>
        <pt x="55" y="300" on="0"/>
        <pt x="55" y="371" on="1"/>
        <pt x="55" y="442" on="0"/>
        <pt x="101" y="577" on="0"/>
        <pt x="191" y="685" on="0"/>
        <pt x="325" y="750" on="0"/>
        <pt x="413" y="750" on="1"/>
        <pt x="501" y="750" on="0"/>
        <pt x="635" y="685" on="0"/>
        <pt x="725" y="577" on="0"/>
        <pt x="771" y="442" on="0"/>
        <pt x="771" y="371" on="1"/>
        <pt x="771" y="300" on="0"/>
        <pt x="725" y="164" on="0"/>
        <pt x="635" y="55" on="0"/>
        <pt x="501" y="-10" on="0"/>
      </contour>
      <contour>
        <pt x="413" y="81" on="1"/>
        <pt x="476" y="81" on="0"/>
        <pt x="572" y="129" on="0"/>
        <pt x="637" y="211" on="0"/>
        <pt x="671" y="315" on="0"/>
        <pt x="671" y="371" on="1"/>
        <pt x="671" y="426" on="0"/>
        <pt x="637" y="529" on="0"/>
        <pt x="572" y="611" on="0"/>
        <pt x="476" y="659" on="0"/>
        <pt x="413" y="659" on="1"/>
        <pt x="350" y="659" on="0"/>
        <pt x="254" y="611" on="0"/>
        <pt x="189" y="529" on="0"/>
        <pt x="155" y="426" on="0"/>
        <pt x="155" y="371" on="1"/>
        <pt x="155" y="315" on="0"/>
        <pt x="189" y="211" on="0"/>
        <pt x="254" y="129" on="0"/>
        <pt x="350" y="81" on="0"/>
      </contour>
    </TTGlyph>
    <TTGlyph name="Ohorn" xMin="55" yMin="-10" xMax="771" yMax="851">
      <contour>
        <pt x="413" y="-10" on="1"/>
        <pt x="325" y="-10" on="0"/>
        <pt x="191" y="55" on="0"/>
        <pt x="101" y="164" on="0"/>
        <pt x="55" y="300" on="0"/>
        <pt x="55" y="371" on="1"/>
        <pt x="55" y="442" on="0"/>
        <pt x="101" y="577" on="0"/>
        <pt x="191" y="685" on="0"/>
        <pt x="325" y="750" on="0"/>
        <pt x="413" y="750" on="1"/>
        <pt x="589" y="750" on="1"/>
        <pt x="628" y="750" on="0"/>
        <pt x="628" y="791" on="1"/>
        <pt x="628" y="851" on="1"/>
        <pt x="719" y="851" on="1"/>
        <pt x="719" y="791" on="1"/>
        <pt x="719" y="743" on="0"/>
        <pt x="674" y="686" on="0"/>
        <pt x="625" y="683" on="1"/>
        <pt x="697" y="629" on="0"/>
        <pt x="771" y="461" on="0"/>
        <pt x="771" y="371" on="1"/>
        <pt x="771" y="300" on="0"/>
        <pt x="725" y="164" on="0"/>
        <pt x="635" y="55" on="0"/>
        <pt x="501" y="-10" on="0"/>
      </contour>
      <contour>
        <pt x="413" y="81" on="1"/>
        <pt x="476" y="81" on="0"/>
        <pt x="572" y="129" on="0"/>
        <pt x="637" y="211" on="0"/>
        <pt x="671" y="315" on="0"/>
        <pt x="671" y="371" on="1"/>
        <pt x="671" y="426" on="0"/>
        <pt x="637" y="529" on="0"/>
        <pt x="572" y="611" on="0"/>
        <pt x="476" y="659" on="0"/>
        <pt x="413" y="659" on="1"/>
        <pt x="350" y="659" on="0"/>
        <pt x="254" y="611" on="0"/>
        <pt x="189" y="529" on="0"/>
        <pt x="155" y="426" on="0"/>
        <pt x="155" y="371" on="1"/>
        <pt x="155" y="315" on="0"/>
        <pt x="189" y="211" on="0"/>
        <pt x="254" y="129" on="0"/>
        <pt x="350" y="81" on="0"/>
      </contour>
    </TTGlyph>
    <TTGlyph name="Ohungarumlaut" xMin="55" yMin="-10" xMax="771" yMax="1011">
      <contour>
        <pt x="371" y="830" on="1"/>
        <pt x="290" y="831" on="1"/>
        <pt x="336" y="1011" on="1"/>
        <pt x="434" y="1011" on="1"/>
      </contour>
      <contour>
        <pt x="533" y="830" on="1"/>
        <pt x="452" y="831" on="1"/>
        <pt x="498" y="1011" on="1"/>
        <pt x="596" y="1011" on="1"/>
      </contour>
      <contour>
        <pt x="413" y="-10" on="1"/>
        <pt x="325" y="-10" on="0"/>
        <pt x="191" y="55" on="0"/>
        <pt x="101" y="164" on="0"/>
        <pt x="55" y="300" on="0"/>
        <pt x="55" y="371" on="1"/>
        <pt x="55" y="442" on="0"/>
        <pt x="101" y="577" on="0"/>
        <pt x="191" y="685" on="0"/>
        <pt x="325" y="750" on="0"/>
        <pt x="413" y="750" on="1"/>
        <pt x="501" y="750" on="0"/>
        <pt x="635" y="685" on="0"/>
        <pt x="725" y="577" on="0"/>
        <pt x="771" y="442" on="0"/>
        <pt x="771" y="371" on="1"/>
        <pt x="771" y="300" on="0"/>
        <pt x="725" y="164" on="0"/>
        <pt x="635" y="55" on="0"/>
        <pt x="501" y="-10" on="0"/>
      </contour>
      <contour>
        <pt x="413" y="81" on="1"/>
        <pt x="476" y="81" on="0"/>
        <pt x="572" y="129" on="0"/>
        <pt x="637" y="211" on="0"/>
        <pt x="671" y="315" on="0"/>
        <pt x="671" y="371" on="1"/>
        <pt x="671" y="426" on="0"/>
        <pt x="637" y="529" on="0"/>
        <pt x="572" y="611" on="0"/>
        <pt x="476" y="659" on="0"/>
        <pt x="413" y="659" on="1"/>
        <pt x="350" y="659" on="0"/>
        <pt x="254" y="611" on="0"/>
        <pt x="189" y="529" on="0"/>
        <pt x="155" y="426" on="0"/>
        <pt x="155" y="371" on="1"/>
        <pt x="155" y="315" on="0"/>
        <pt x="189" y="211" on="0"/>
        <pt x="254" y="129" on="0"/>
        <pt x="350" y="81" on="0"/>
      </contour>
    </TTGlyph>
    <TTGlyph name="Omacron" xMin="55" yMin="-10" xMax="771" yMax="918">
      <contour>
        <pt x="261" y="846" on="1"/>
        <pt x="261" y="918" on="1"/>
        <pt x="565" y="918" on="1"/>
        <pt x="565" y="846" on="1"/>
      </contour>
      <contour>
        <pt x="413" y="-10" on="1"/>
        <pt x="325" y="-10" on="0"/>
        <pt x="191" y="55" on="0"/>
        <pt x="101" y="164" on="0"/>
        <pt x="55" y="300" on="0"/>
        <pt x="55" y="371" on="1"/>
        <pt x="55" y="442" on="0"/>
        <pt x="101" y="577" on="0"/>
        <pt x="191" y="685" on="0"/>
        <pt x="325" y="750" on="0"/>
        <pt x="413" y="750" on="1"/>
        <pt x="501" y="750" on="0"/>
        <pt x="635" y="685" on="0"/>
        <pt x="725" y="577" on="0"/>
        <pt x="771" y="442" on="0"/>
        <pt x="771" y="371" on="1"/>
        <pt x="771" y="300" on="0"/>
        <pt x="725" y="164" on="0"/>
        <pt x="635" y="55" on="0"/>
        <pt x="501" y="-10" on="0"/>
      </contour>
      <contour>
        <pt x="413" y="81" on="1"/>
        <pt x="476" y="81" on="0"/>
        <pt x="572" y="129" on="0"/>
        <pt x="637" y="211" on="0"/>
        <pt x="671" y="315" on="0"/>
        <pt x="671" y="371" on="1"/>
        <pt x="671" y="426" on="0"/>
        <pt x="637" y="529" on="0"/>
        <pt x="572" y="611" on="0"/>
        <pt x="476" y="659" on="0"/>
        <pt x="413" y="659" on="1"/>
        <pt x="350" y="659" on="0"/>
        <pt x="254" y="611" on="0"/>
        <pt x="189" y="529" on="0"/>
        <pt x="155" y="426" on="0"/>
        <pt x="155" y="371" on="1"/>
        <pt x="155" y="315" on="0"/>
        <pt x="189" y="211" on="0"/>
        <pt x="254" y="129" on="0"/>
        <pt x="350" y="81" on="0"/>
      </contour>
    </TTGlyph>
    <TTGlyph name="Oslash" xMin="55" yMin="-24" xMax="771" yMax="763">
      <contour>
        <pt x="107" y="-24" on="1"/>
        <pt x="174" y="80" on="1"/>
        <pt x="115" y="135" on="0"/>
        <pt x="55" y="290" on="0"/>
        <pt x="55" y="371" on="1"/>
        <pt x="55" y="442" on="0"/>
        <pt x="101" y="577" on="0"/>
        <pt x="191" y="685" on="0"/>
        <pt x="325" y="750" on="0"/>
        <pt x="413" y="750" on="1"/>
        <pt x="461" y="750" on="0"/>
        <pt x="543" y="730" on="0"/>
        <pt x="578" y="712" on="1"/>
        <pt x="611" y="763" on="1"/>
        <pt x="718" y="763" on="1"/>
        <pt x="652" y="660" on="1"/>
        <pt x="711" y="605" on="0"/>
        <pt x="771" y="452" on="0"/>
        <pt x="771" y="371" on="1"/>
        <pt x="771" y="300" on="0"/>
        <pt x="725" y="164" on="0"/>
        <pt x="635" y="55" on="0"/>
        <pt x="501" y="-10" on="0"/>
        <pt x="413" y="-10" on="1"/>
        <pt x="365" y="-10" on="0"/>
        <pt x="283" y="10" on="0"/>
        <pt x="247" y="28" on="1"/>
        <pt x="214" y="-24" on="1"/>
      </contour>
      <contour>
        <pt x="155" y="371" on="1"/>
        <pt x="155" y="313" on="0"/>
        <pt x="192" y="204" on="0"/>
        <pt x="227" y="163" on="1"/>
        <pt x="528" y="633" on="1"/>
        <pt x="503" y="645" on="0"/>
        <pt x="446" y="659" on="0"/>
        <pt x="413" y="659" on="1"/>
        <pt x="350" y="659" on="0"/>
        <pt x="254" y="611" on="0"/>
        <pt x="189" y="529" on="0"/>
        <pt x="155" y="426" on="0"/>
      </contour>
      <contour>
        <pt x="413" y="81" on="1"/>
        <pt x="476" y="81" on="0"/>
        <pt x="572" y="129" on="0"/>
        <pt x="637" y="211" on="0"/>
        <pt x="671" y="315" on="0"/>
        <pt x="671" y="371" on="1"/>
        <pt x="671" y="429" on="0"/>
        <pt x="634" y="536" on="0"/>
        <pt x="599" y="577" on="1"/>
        <pt x="298" y="107" on="1"/>
        <pt x="323" y="95" on="0"/>
        <pt x="380" y="81" on="0"/>
      </contour>
    </TTGlyph>
    <TTGlyph name="Otilde" xMin="55" yMin="-10" xMax="771" yMax="972">
      <contour>
        <pt x="481" y="837" on="1"/>
        <pt x="454" y="837" on="0"/>
        <pt x="417" y="857" on="0"/>
        <pt x="390" y="883" on="0"/>
        <pt x="366" y="903" on="0"/>
        <pt x="352" y="903" on="1"/>
        <pt x="335" y="903" on="0"/>
        <pt x="320" y="870" on="0"/>
        <pt x="320" y="843" on="1"/>
        <pt x="256" y="843" on="1"/>
        <pt x="256" y="874" on="0"/>
        <pt x="271" y="933" on="0"/>
        <pt x="311" y="972" on="0"/>
        <pt x="346" y="972" on="1"/>
        <pt x="373" y="972" on="0"/>
        <pt x="411" y="952" on="0"/>
        <pt x="438" y="927" on="0"/>
        <pt x="462" y="907" on="0"/>
        <pt x="475" y="907" on="1"/>
        <pt x="491" y="907" on="0"/>
        <pt x="506" y="939" on="0"/>
        <pt x="506" y="967" on="1"/>
        <pt x="570" y="967" on="1"/>
        <pt x="570" y="936" on="0"/>
        <pt x="555" y="876" on="0"/>
        <pt x="516" y="837" on="0"/>
      </contour>
      <contour>
        <pt x="413" y="-10" on="1"/>
        <pt x="325" y="-10" on="0"/>
        <pt x="191" y="55" on="0"/>
        <pt x="101" y="164" on="0"/>
        <pt x="55" y="300" on="0"/>
        <pt x="55" y="371" on="1"/>
        <pt x="55" y="442" on="0"/>
        <pt x="101" y="577" on="0"/>
        <pt x="191" y="685" on="0"/>
        <pt x="325" y="750" on="0"/>
        <pt x="413" y="750" on="1"/>
        <pt x="501" y="750" on="0"/>
        <pt x="635" y="685" on="0"/>
        <pt x="725" y="577" on="0"/>
        <pt x="771" y="442" on="0"/>
        <pt x="771" y="371" on="1"/>
        <pt x="771" y="300" on="0"/>
        <pt x="725" y="164" on="0"/>
        <pt x="635" y="55" on="0"/>
        <pt x="501" y="-10" on="0"/>
      </contour>
      <contour>
        <pt x="413" y="81" on="1"/>
        <pt x="476" y="81" on="0"/>
        <pt x="572" y="129" on="0"/>
        <pt x="637" y="211" on="0"/>
        <pt x="671" y="315" on="0"/>
        <pt x="671" y="371" on="1"/>
        <pt x="671" y="426" on="0"/>
        <pt x="637" y="529" on="0"/>
        <pt x="572" y="611" on="0"/>
        <pt x="476" y="659" on="0"/>
        <pt x="413" y="659" on="1"/>
        <pt x="350" y="659" on="0"/>
        <pt x="254" y="611" on="0"/>
        <pt x="189" y="529" on="0"/>
        <pt x="155" y="426" on="0"/>
        <pt x="155" y="371" on="1"/>
        <pt x="155" y="315" on="0"/>
        <pt x="189" y="211" on="0"/>
        <pt x="254" y="129" on="0"/>
        <pt x="350" y="81" on="0"/>
      </contour>
    </TTGlyph>
    <TTGlyph name="P" xMin="80" yMin="0" xMax="599" yMax="740">
      <contour>
        <pt x="80" y="0" on="1"/>
        <pt x="80" y="740" on="1"/>
        <pt x="344" y="740" on="1"/>
        <pt x="429" y="740" on="0"/>
        <pt x="542" y="670" on="0"/>
        <pt x="599" y="559" on="0"/>
        <pt x="599" y="499" on="1"/>
        <pt x="599" y="438" on="0"/>
        <pt x="542" y="327" on="0"/>
        <pt x="429" y="256" on="0"/>
        <pt x="344" y="256" on="1"/>
        <pt x="178" y="256" on="1"/>
        <pt x="178" y="0" on="1"/>
      </contour>
      <contour>
        <pt x="344" y="654" on="1"/>
        <pt x="178" y="654" on="1"/>
        <pt x="178" y="342" on="1"/>
        <pt x="344" y="342" on="1"/>
        <pt x="397" y="342" on="0"/>
        <pt x="467" y="388" on="0"/>
        <pt x="502" y="459" on="0"/>
        <pt x="502" y="498" on="1"/>
        <pt x="502" y="537" on="0"/>
        <pt x="467" y="609" on="0"/>
        <pt x="397" y="654" on="0"/>
      </contour>
    </TTGlyph>
    <TTGlyph name="Q" xMin="55" yMin="-10" xMax="792" yMax="750">
      <contour>
        <pt x="413" y="-10" on="1"/>
        <pt x="325" y="-10" on="0"/>
        <pt x="191" y="55" on="0"/>
        <pt x="101" y="164" on="0"/>
        <pt x="55" y="300" on="0"/>
        <pt x="55" y="371" on="1"/>
        <pt x="55" y="442" on="0"/>
        <pt x="101" y="577" on="0"/>
        <pt x="191" y="685" on="0"/>
        <pt x="325" y="750" on="0"/>
        <pt x="413" y="750" on="1"/>
        <pt x="501" y="750" on="0"/>
        <pt x="635" y="685" on="0"/>
        <pt x="725" y="577" on="0"/>
        <pt x="771" y="442" on="0"/>
        <pt x="771" y="371" on="1"/>
        <pt x="771" y="300" on="0"/>
        <pt x="726" y="164" on="0"/>
        <pt x="681" y="110" on="1"/>
        <pt x="792" y="0" on="1"/>
        <pt x="668" y="0" on="1"/>
        <pt x="617" y="51" on="1"/>
        <pt x="576" y="22" on="0"/>
        <pt x="474" y="-10" on="0"/>
      </contour>
      <contour>
        <pt x="413" y="81" on="1"/>
        <pt x="453" y="81" on="0"/>
        <pt x="520" y="101" on="0"/>
        <pt x="548" y="119" on="1"/>
        <pt x="430" y="236" on="1"/>
        <pt x="494" y="296" on="1"/>
        <pt x="612" y="179" on="1"/>
        <pt x="641" y="219" on="0"/>
        <pt x="671" y="318" on="0"/>
        <pt x="671" y="371" on="1"/>
        <pt x="671" y="426" on="0"/>
        <pt x="637" y="529" on="0"/>
        <pt x="572" y="611" on="0"/>
        <pt x="476" y="659" on="0"/>
        <pt x="413" y="659" on="1"/>
        <pt x="350" y="659" on="0"/>
        <pt x="254" y="611" on="0"/>
        <pt x="189" y="529" on="0"/>
        <pt x="155" y="426" on="0"/>
        <pt x="155" y="371" on="1"/>
        <pt x="155" y="315" on="0"/>
        <pt x="189" y="211" on="0"/>
        <pt x="254" y="129" on="0"/>
        <pt x="350" y="81" on="0"/>
      </contour>
    </TTGlyph>
    <TTGlyph name="R" xMin="80" yMin="0" xMax="603" yMax="740">
      <contour>
        <pt x="80" y="0" on="1"/>
        <pt x="80" y="740" on="1"/>
        <pt x="342" y="740" on="1"/>
        <pt x="421" y="740" on="0"/>
        <pt x="525" y="678" on="0"/>
        <pt x="577" y="580" on="0"/>
        <pt x="577" y="526" on="1"/>
        <pt x="577" y="481" on="0"/>
        <pt x="541" y="397" on="0"/>
        <pt x="470" y="334" on="0"/>
        <pt x="416" y="320" on="1"/>
        <pt x="603" y="0" on="1"/>
        <pt x="492" y="0" on="1"/>
        <pt x="313" y="311" on="1"/>
        <pt x="178" y="311" on="1"/>
        <pt x="178" y="0" on="1"/>
      </contour>
      <contour>
        <pt x="341" y="654" on="1"/>
        <pt x="178" y="654" on="1"/>
        <pt x="178" y="395" on="1"/>
        <pt x="341" y="395" on="1"/>
        <pt x="387" y="395" on="0"/>
        <pt x="447" y="433" on="0"/>
        <pt x="477" y="492" on="0"/>
        <pt x="477" y="524" on="1"/>
        <pt x="477" y="557" on="0"/>
        <pt x="447" y="616" on="0"/>
        <pt x="387" y="654" on="0"/>
      </contour>
    </TTGlyph>
    <TTGlyph name="Racute" xMin="90" yMin="0" xMax="613" yMax="1001">
      <contour>
        <pt x="314" y="820" on="1"/>
        <pt x="233" y="821" on="1"/>
        <pt x="319" y="1001" on="1"/>
        <pt x="417" y="1001" on="1"/>
      </contour>
      <contour>
        <pt x="90" y="0" on="1"/>
        <pt x="90" y="740" on="1"/>
        <pt x="352" y="740" on="1"/>
        <pt x="431" y="740" on="0"/>
        <pt x="535" y="678" on="0"/>
        <pt x="587" y="580" on="0"/>
        <pt x="587" y="526" on="1"/>
        <pt x="587" y="481" on="0"/>
        <pt x="551" y="397" on="0"/>
        <pt x="480" y="334" on="0"/>
        <pt x="426" y="320" on="1"/>
        <pt x="613" y="0" on="1"/>
        <pt x="502" y="0" on="1"/>
        <pt x="323" y="311" on="1"/>
        <pt x="188" y="311" on="1"/>
        <pt x="188" y="0" on="1"/>
      </contour>
      <contour>
        <pt x="351" y="654" on="1"/>
        <pt x="188" y="654" on="1"/>
        <pt x="188" y="395" on="1"/>
        <pt x="351" y="395" on="1"/>
        <pt x="397" y="395" on="0"/>
        <pt x="457" y="433" on="0"/>
        <pt x="487" y="492" on="0"/>
        <pt x="487" y="524" on="1"/>
        <pt x="487" y="557" on="0"/>
        <pt x="457" y="616" on="0"/>
        <pt x="397" y="654" on="0"/>
      </contour>
    </TTGlyph>
    <TTGlyph name="Rcaron" xMin="90" yMin="0" xMax="613" yMax="972">
      <contour>
        <pt x="234" y="805" on="1"/>
        <pt x="113" y="972" on="1"/>
        <pt x="199" y="972" on="1"/>
        <pt x="274" y="865" on="1"/>
        <pt x="350" y="972" on="1"/>
        <pt x="436" y="972" on="1"/>
        <pt x="315" y="805" on="1"/>
      </contour>
      <contour>
        <pt x="90" y="0" on="1"/>
        <pt x="90" y="740" on="1"/>
        <pt x="352" y="740" on="1"/>
        <pt x="431" y="740" on="0"/>
        <pt x="535" y="678" on="0"/>
        <pt x="587" y="580" on="0"/>
        <pt x="587" y="526" on="1"/>
        <pt x="587" y="481" on="0"/>
        <pt x="551" y="397" on="0"/>
        <pt x="480" y="334" on="0"/>
        <pt x="426" y="320" on="1"/>
        <pt x="613" y="0" on="1"/>
        <pt x="502" y="0" on="1"/>
        <pt x="323" y="311" on="1"/>
        <pt x="188" y="311" on="1"/>
        <pt x="188" y="0" on="1"/>
      </contour>
      <contour>
        <pt x="351" y="654" on="1"/>
        <pt x="188" y="654" on="1"/>
        <pt x="188" y="395" on="1"/>
        <pt x="351" y="395" on="1"/>
        <pt x="397" y="395" on="0"/>
        <pt x="457" y="433" on="0"/>
        <pt x="487" y="492" on="0"/>
        <pt x="487" y="524" on="1"/>
        <pt x="487" y="557" on="0"/>
        <pt x="457" y="616" on="0"/>
        <pt x="397" y="654" on="0"/>
      </contour>
    </TTGlyph>
    <TTGlyph name="S" xMin="54" yMin="-10" xMax="587" yMax="750">
      <contour>
        <pt x="328" y="-10" on="1"/>
        <pt x="264" y="-10" on="0"/>
        <pt x="173" y="23" on="0"/>
        <pt x="113" y="76" on="0"/>
        <pt x="77" y="134" on="0"/>
        <pt x="59" y="187" on="0"/>
        <pt x="54" y="220" on="0"/>
        <pt x="54" y="220" on="1"/>
        <pt x="154" y="220" on="1"/>
        <pt x="154" y="220" on="0"/>
        <pt x="160" y="192" on="0"/>
        <pt x="179" y="150" on="0"/>
        <pt x="217" y="107" on="0"/>
        <pt x="281" y="79" on="0"/>
        <pt x="330" y="79" on="1"/>
        <pt x="404" y="79" on="0"/>
        <pt x="490" y="150" on="0"/>
        <pt x="490" y="207" on="1"/>
        <pt x="490" y="256" on="0"/>
        <pt x="425" y="310" on="0"/>
        <pt x="365" y="325" on="1"/>
        <pt x="267" y="349" on="1"/>
        <pt x="215" y="362" on="0"/>
        <pt x="126" y="409" on="0"/>
        <pt x="73" y="486" on="0"/>
        <pt x="73" y="544" on="1"/>
        <pt x="73" y="609" on="0"/>
        <pt x="137" y="701" on="0"/>
        <pt x="247" y="750" on="0"/>
        <pt x="317" y="750" on="1"/>
        <pt x="385" y="750" on="0"/>
        <pt x="475" y="708" on="0"/>
        <pt x="529" y="647" on="0"/>
        <pt x="555" y="586" on="0"/>
        <pt x="563" y="544" on="0"/>
        <pt x="563" y="544" on="1"/>
        <pt x="467" y="544" on="1"/>
        <pt x="467" y="544" on="0"/>
        <pt x="459" y="580" on="0"/>
        <pt x="429" y="627" on="0"/>
        <pt x="367" y="663" on="0"/>
        <pt x="314" y="663" on="1"/>
        <pt x="242" y="663" on="0"/>
        <pt x="169" y="595" on="0"/>
        <pt x="169" y="551" on="1"/>
        <pt x="169" y="511" on="0"/>
        <pt x="227" y="462" on="0"/>
        <pt x="278" y="449" on="1"/>
        <pt x="384" y="423" on="1"/>
        <pt x="441" y="409" on="0"/>
        <pt x="533" y="356" on="0"/>
        <pt x="587" y="273" on="0"/>
        <pt x="587" y="213" on="1"/>
        <pt x="587" y="153" on="0"/>
        <pt x="528" y="51" on="0"/>
        <pt x="413" y="-10" on="0"/>
      </contour>
    </TTGlyph>
    <TTGlyph name="Sacute" xMin="54" yMin="-10" xMax="587" yMax="1001">
      <contour>
        <pt x="358" y="820" on="1"/>
        <pt x="277" y="821" on="1"/>
        <pt x="363" y="1001" on="1"/>
        <pt x="461" y="1001" on="1"/>
      </contour>
      <contour>
        <pt x="328" y="-10" on="1"/>
        <pt x="264" y="-10" on="0"/>
        <pt x="173" y="23" on="0"/>
        <pt x="113" y="76" on="0"/>
        <pt x="77" y="134" on="0"/>
        <pt x="59" y="187" on="0"/>
        <pt x="54" y="220" on="0"/>
        <pt x="54" y="220" on="1"/>
        <pt x="154" y="220" on="1"/>
        <pt x="154" y="220" on="0"/>
        <pt x="160" y="192" on="0"/>
        <pt x="179" y="150" on="0"/>
        <pt x="217" y="107" on="0"/>
        <pt x="281" y="79" on="0"/>
        <pt x="330" y="79" on="1"/>
        <pt x="404" y="79" on="0"/>
        <pt x="490" y="150" on="0"/>
        <pt x="490" y="207" on="1"/>
        <pt x="490" y="256" on="0"/>
        <pt x="425" y="310" on="0"/>
        <pt x="365" y="325" on="1"/>
        <pt x="267" y="349" on="1"/>
        <pt x="215" y="362" on="0"/>
        <pt x="126" y="409" on="0"/>
        <pt x="73" y="486" on="0"/>
        <pt x="73" y="544" on="1"/>
        <pt x="73" y="609" on="0"/>
        <pt x="137" y="701" on="0"/>
        <pt x="247" y="750" on="0"/>
        <pt x="317" y="750" on="1"/>
        <pt x="385" y="750" on="0"/>
        <pt x="475" y="708" on="0"/>
        <pt x="529" y="647" on="0"/>
        <pt x="555" y="586" on="0"/>
        <pt x="563" y="544" on="0"/>
        <pt x="563" y="544" on="1"/>
        <pt x="467" y="544" on="1"/>
        <pt x="467" y="544" on="0"/>
        <pt x="459" y="580" on="0"/>
        <pt x="429" y="627" on="0"/>
        <pt x="367" y="663" on="0"/>
        <pt x="314" y="663" on="1"/>
        <pt x="242" y="663" on="0"/>
        <pt x="169" y="595" on="0"/>
        <pt x="169" y="551" on="1"/>
        <pt x="169" y="511" on="0"/>
        <pt x="227" y="462" on="0"/>
        <pt x="278" y="449" on="1"/>
        <pt x="384" y="423" on="1"/>
        <pt x="441" y="409" on="0"/>
        <pt x="533" y="356" on="0"/>
        <pt x="587" y="273" on="0"/>
        <pt x="587" y="213" on="1"/>
        <pt x="587" y="153" on="0"/>
        <pt x="528" y="51" on="0"/>
        <pt x="413" y="-10" on="0"/>
      </contour>
    </TTGlyph>
    <TTGlyph name="Scaron" xMin="54" yMin="-10" xMax="587" yMax="972">
      <contour>
        <pt x="278" y="805" on="1"/>
        <pt x="157" y="972" on="1"/>
        <pt x="243" y="972" on="1"/>
        <pt x="318" y="865" on="1"/>
        <pt x="394" y="972" on="1"/>
        <pt x="480" y="972" on="1"/>
        <pt x="359" y="805" on="1"/>
      </contour>
      <contour>
        <pt x="328" y="-10" on="1"/>
        <pt x="264" y="-10" on="0"/>
        <pt x="173" y="23" on="0"/>
        <pt x="113" y="76" on="0"/>
        <pt x="77" y="134" on="0"/>
        <pt x="59" y="187" on="0"/>
        <pt x="54" y="220" on="0"/>
        <pt x="54" y="220" on="1"/>
        <pt x="154" y="220" on="1"/>
        <pt x="154" y="220" on="0"/>
        <pt x="160" y="192" on="0"/>
        <pt x="179" y="150" on="0"/>
        <pt x="217" y="107" on="0"/>
        <pt x="281" y="79" on="0"/>
        <pt x="330" y="79" on="1"/>
        <pt x="404" y="79" on="0"/>
        <pt x="490" y="150" on="0"/>
        <pt x="490" y="207" on="1"/>
        <pt x="490" y="256" on="0"/>
        <pt x="425" y="310" on="0"/>
        <pt x="365" y="325" on="1"/>
        <pt x="267" y="349" on="1"/>
        <pt x="215" y="362" on="0"/>
        <pt x="126" y="409" on="0"/>
        <pt x="73" y="486" on="0"/>
        <pt x="73" y="544" on="1"/>
        <pt x="73" y="609" on="0"/>
        <pt x="137" y="701" on="0"/>
        <pt x="247" y="750" on="0"/>
        <pt x="317" y="750" on="1"/>
        <pt x="385" y="750" on="0"/>
        <pt x="475" y="708" on="0"/>
        <pt x="529" y="647" on="0"/>
        <pt x="555" y="586" on="0"/>
        <pt x="563" y="544" on="0"/>
        <pt x="563" y="544" on="1"/>
        <pt x="467" y="544" on="1"/>
        <pt x="467" y="544" on="0"/>
        <pt x="459" y="580" on="0"/>
        <pt x="429" y="627" on="0"/>
        <pt x="367" y="663" on="0"/>
        <pt x="314" y="663" on="1"/>
        <pt x="242" y="663" on="0"/>
        <pt x="169" y="595" on="0"/>
        <pt x="169" y="551" on="1"/>
        <pt x="169" y="511" on="0"/>
        <pt x="227" y="462" on="0"/>
        <pt x="278" y="449" on="1"/>
        <pt x="384" y="423" on="1"/>
        <pt x="441" y="409" on="0"/>
        <pt x="533" y="356" on="0"/>
        <pt x="587" y="273" on="0"/>
        <pt x="587" y="213" on="1"/>
        <pt x="587" y="153" on="0"/>
        <pt x="528" y="51" on="0"/>
        <pt x="413" y="-10" on="0"/>
      </contour>
    </TTGlyph>
    <TTGlyph name="Scedilla" xMin="54" yMin="-259" xMax="587" yMax="750">
      <contour>
        <pt x="294" y="-259" on="1"/>
        <pt x="270" y="-259" on="0"/>
        <pt x="224" y="-253" on="0"/>
        <pt x="224" y="-253" on="1"/>
        <pt x="224" y="-195" on="1"/>
        <pt x="224" y="-195" on="0"/>
        <pt x="270" y="-201" on="0"/>
        <pt x="290" y="-201" on="1"/>
        <pt x="333" y="-201" on="0"/>
        <pt x="364" y="-167" on="0"/>
        <pt x="364" y="-150" on="1"/>
        <pt x="364" y="-133" on="0"/>
        <pt x="337" y="-107" on="0"/>
        <pt x="311" y="-107" on="1"/>
        <pt x="286" y="-107" on="0"/>
        <pt x="255" y="-126" on="0"/>
        <pt x="255" y="-126" on="1"/>
        <pt x="218" y="-89" on="1"/>
        <pt x="269" y="-5" on="1"/>
        <pt x="209" y="4" on="0"/>
        <pt x="130" y="56" on="0"/>
        <pt x="84" y="120" on="0"/>
        <pt x="61" y="180" on="0"/>
        <pt x="54" y="220" on="0"/>
        <pt x="54" y="220" on="1"/>
        <pt x="154" y="220" on="1"/>
        <pt x="154" y="220" on="0"/>
        <pt x="160" y="192" on="0"/>
        <pt x="179" y="150" on="0"/>
        <pt x="217" y="107" on="0"/>
        <pt x="281" y="79" on="0"/>
        <pt x="330" y="79" on="1"/>
        <pt x="404" y="79" on="0"/>
        <pt x="490" y="150" on="0"/>
        <pt x="490" y="207" on="1"/>
        <pt x="490" y="256" on="0"/>
        <pt x="425" y="310" on="0"/>
        <pt x="365" y="325" on="1"/>
        <pt x="267" y="349" on="1"/>
        <pt x="215" y="362" on="0"/>
        <pt x="126" y="409" on="0"/>
        <pt x="73" y="486" on="0"/>
        <pt x="73" y="544" on="1"/>
        <pt x="73" y="609" on="0"/>
        <pt x="137" y="701" on="0"/>
        <pt x="247" y="750" on="0"/>
        <pt x="317" y="750" on="1"/>
        <pt x="385" y="750" on="0"/>
        <pt x="475" y="708" on="0"/>
        <pt x="529" y="647" on="0"/>
        <pt x="555" y="586" on="0"/>
        <pt x="563" y="544" on="0"/>
        <pt x="563" y="544" on="1"/>
        <pt x="467" y="544" on="1"/>
        <pt x="467" y="544" on="0"/>
        <pt x="459" y="580" on="0"/>
        <pt x="429" y="627" on="0"/>
        <pt x="367" y="663" on="0"/>
        <pt x="314" y="663" on="1"/>
        <pt x="242" y="663" on="0"/>
        <pt x="169" y="595" on="0"/>
        <pt x="169" y="551" on="1"/>
        <pt x="169" y="511" on="0"/>
        <pt x="227" y="462" on="0"/>
        <pt x="278" y="449" on="1"/>
        <pt x="384" y="423" on="1"/>
        <pt x="441" y="409" on="0"/>
        <pt x="533" y="356" on="0"/>
        <pt x="587" y="273" on="0"/>
        <pt x="587" y="213" on="1"/>
        <pt x="587" y="153" on="0"/>
        <pt x="529" y="51" on="0"/>
        <pt x="415" y="-10" on="0"/>
        <pt x="332" y="-10" on="1"/>
        <pt x="303" y="-57" on="1"/>
        <pt x="316" y="-53" on="0"/>
        <pt x="332" y="-53" on="1"/>
        <pt x="379" y="-53" on="0"/>
        <pt x="430" y="-111" on="0"/>
        <pt x="430" y="-149" on="1"/>
        <pt x="430" y="-175" on="0"/>
        <pt x="402" y="-226" on="0"/>
        <pt x="343" y="-259" on="0"/>
      </contour>
    </TTGlyph>
    <TTGlyph name="T" xMin="45" yMin="0" xMax="605" yMax="740">
      <contour>
        <pt x="276" y="0" on="1"/>
        <pt x="276" y="654" on="1"/>
        <pt x="45" y="654" on="1"/>
        <pt x="45" y="740" on="1"/>
        <pt x="605" y="740" on="1"/>
        <pt x="605" y="654" on="1"/>
        <pt x="374" y="654" on="1"/>
        <pt x="374" y="0" on="1"/>
      </contour>
    </TTGlyph>
    <TTGlyph name="Tbar" xMin="45" yMin="0" xMax="605" yMax="740">
      <contour>
        <pt x="276" y="0" on="1"/>
        <pt x="276" y="326" on="1"/>
        <pt x="84" y="326" on="1"/>
        <pt x="84" y="414" on="1"/>
        <pt x="276" y="414" on="1"/>
        <pt x="276" y="654" on="1"/>
        <pt x="45" y="654" on="1"/>
        <pt x="45" y="740" on="1"/>
        <pt x="605" y="740" on="1"/>
        <pt x="605" y="654" on="1"/>
        <pt x="374" y="654" on="1"/>
        <pt x="374" y="414" on="1"/>
        <pt x="565" y="414" on="1"/>
        <pt x="565" y="326" on="1"/>
        <pt x="374" y="326" on="1"/>
        <pt x="374" y="0" on="1"/>
      </contour>
    </TTGlyph>
    <TTGlyph name="Tcaron" xMin="45" yMin="0" xMax="605" yMax="969">
      <contour>
        <pt x="285" y="802" on="1"/>
        <pt x="164" y="969" on="1"/>
        <pt x="250" y="969" on="1"/>
        <pt x="325" y="862" on="1"/>
        <pt x="401" y="969" on="1"/>
        <pt x="487" y="969" on="1"/>
        <pt x="366" y="802" on="1"/>
      </contour>
      <contour>
        <pt x="276" y="0" on="1"/>
        <pt x="276" y="654" on="1"/>
        <pt x="45" y="654" on="1"/>
        <pt x="45" y="740" on="1"/>
        <pt x="605" y="740" on="1"/>
        <pt x="605" y="654" on="1"/>
        <pt x="374" y="654" on="1"/>
        <pt x="374" y="0" on="1"/>
      </contour>
    </TTGlyph>
    <TTGlyph name="Thorn" xMin="80" yMin="0" xMax="599" yMax="740">
      <contour>
        <pt x="80" y="0" on="1"/>
        <pt x="80" y="740" on="1"/>
        <pt x="178" y="740" on="1"/>
        <pt x="178" y="612" on="1"/>
        <pt x="344" y="612" on="1"/>
        <pt x="429" y="612" on="0"/>
        <pt x="542" y="542" on="0"/>
        <pt x="599" y="431" on="0"/>
        <pt x="599" y="371" on="1"/>
        <pt x="599" y="310" on="0"/>
        <pt x="542" y="199" on="0"/>
        <pt x="429" y="128" on="0"/>
        <pt x="344" y="128" on="1"/>
        <pt x="178" y="128" on="1"/>
        <pt x="178" y="0" on="1"/>
      </contour>
      <contour>
        <pt x="344" y="526" on="1"/>
        <pt x="178" y="526" on="1"/>
        <pt x="178" y="214" on="1"/>
        <pt x="344" y="214" on="1"/>
        <pt x="397" y="214" on="0"/>
        <pt x="467" y="260" on="0"/>
        <pt x="502" y="331" on="0"/>
        <pt x="502" y="370" on="1"/>
        <pt x="502" y="409" on="0"/>
        <pt x="467" y="480" on="0"/>
        <pt x="397" y="526" on="0"/>
      </contour>
    </TTGlyph>
    <TTGlyph name="U" xMin="80" yMin="-10" xMax="645" yMax="740">
      <contour>
        <pt x="362" y="-10" on="1"/>
        <pt x="275" y="-10" on="0"/>
        <pt x="149" y="57" on="0"/>
        <pt x="80" y="180" on="0"/>
        <pt x="80" y="264" on="1"/>
        <pt x="80" y="740" on="1"/>
        <pt x="178" y="740" on="1"/>
        <pt x="178" y="264" on="1"/>
        <pt x="178" y="187" on="0"/>
        <pt x="269" y="83" on="0"/>
        <pt x="362" y="83" on="1"/>
        <pt x="456" y="83" on="0"/>
        <pt x="547" y="187" on="0"/>
        <pt x="547" y="264" on="1"/>
        <pt x="547" y="740" on="1"/>
        <pt x="645" y="740" on="1"/>
        <pt x="645" y="264" on="1"/>
        <pt x="645" y="180" on="0"/>
        <pt x="576" y="57" on="0"/>
        <pt x="450" y="-10" on="0"/>
      </contour>
    </TTGlyph>
    <TTGlyph name="Uacute" xMin="90" yMin="-10" xMax="655" yMax="1001">
      <contour>
        <pt x="408" y="820" on="1"/>
        <pt x="327" y="821" on="1"/>
        <pt x="413" y="1001" on="1"/>
        <pt x="511" y="1001" on="1"/>
      </contour>
      <contour>
        <pt x="372" y="-10" on="1"/>
        <pt x="285" y="-10" on="0"/>
        <pt x="159" y="57" on="0"/>
        <pt x="90" y="180" on="0"/>
        <pt x="90" y="264" on="1"/>
        <pt x="90" y="740" on="1"/>
        <pt x="188" y="740" on="1"/>
        <pt x="188" y="264" on="1"/>
        <pt x="188" y="187" on="0"/>
        <pt x="279" y="83" on="0"/>
        <pt x="372" y="83" on="1"/>
        <pt x="466" y="83" on="0"/>
        <pt x="557" y="187" on="0"/>
        <pt x="557" y="264" on="1"/>
        <pt x="557" y="740" on="1"/>
        <pt x="655" y="740" on="1"/>
        <pt x="655" y="264" on="1"/>
        <pt x="655" y="180" on="0"/>
        <pt x="586" y="57" on="0"/>
        <pt x="460" y="-10" on="0"/>
      </contour>
    </TTGlyph>
    <TTGlyph name="Ucircumflex" xMin="90" yMin="-10" xMax="655" yMax="983">
      <contour>
        <pt x="207" y="816" on="1"/>
        <pt x="328" y="983" on="1"/>
        <pt x="409" y="983" on="1"/>
        <pt x="530" y="816" on="1"/>
        <pt x="444" y="816" on="1"/>
        <pt x="368" y="923" on="1"/>
        <pt x="293" y="816" on="1"/>
      </contour>
      <contour>
        <pt x="372" y="-10" on="1"/>
        <pt x="285" y="-10" on="0"/>
        <pt x="159" y="57" on="0"/>
        <pt x="90" y="180" on="0"/>
        <pt x="90" y="264" on="1"/>
        <pt x="90" y="740" on="1"/>
        <pt x="188" y="740" on="1"/>
        <pt x="188" y="264" on="1"/>
        <pt x="188" y="187" on="0"/>
        <pt x="279" y="83" on="0"/>
        <pt x="372" y="83" on="1"/>
        <pt x="466" y="83" on="0"/>
        <pt x="557" y="187" on="0"/>
        <pt x="557" y="264" on="1"/>
        <pt x="557" y="740" on="1"/>
        <pt x="655" y="740" on="1"/>
        <pt x="655" y="264" on="1"/>
        <pt x="655" y="180" on="0"/>
        <pt x="586" y="57" on="0"/>
        <pt x="460" y="-10" on="0"/>
      </contour>
    </TTGlyph>
    <TTGlyph name="Udieresis" xMin="90" yMin="-10" xMax="655" yMax="944">
      <contour>
        <pt x="463" y="821" on="1"/>
        <pt x="436" y="821" on="0"/>
        <pt x="401" y="857" on="0"/>
        <pt x="401" y="882" on="1"/>
        <pt x="401" y="908" on="0"/>
        <pt x="436" y="944" on="0"/>
        <pt x="463" y="944" on="1"/>
        <pt x="489" y="944" on="0"/>
        <pt x="525" y="908" on="0"/>
        <pt x="525" y="882" on="1"/>
        <pt x="525" y="857" on="0"/>
        <pt x="489" y="821" on="0"/>
      </contour>
      <contour>
        <pt x="273" y="821" on="1"/>
        <pt x="246" y="821" on="0"/>
        <pt x="211" y="857" on="0"/>
        <pt x="211" y="882" on="1"/>
        <pt x="211" y="908" on="0"/>
        <pt x="246" y="944" on="0"/>
        <pt x="273" y="944" on="1"/>
        <pt x="299" y="944" on="0"/>
        <pt x="335" y="908" on="0"/>
        <pt x="335" y="882" on="1"/>
        <pt x="335" y="857" on="0"/>
        <pt x="299" y="821" on="0"/>
      </contour>
      <contour>
        <pt x="372" y="-10" on="1"/>
        <pt x="285" y="-10" on="0"/>
        <pt x="159" y="57" on="0"/>
        <pt x="90" y="180" on="0"/>
        <pt x="90" y="264" on="1"/>
        <pt x="90" y="740" on="1"/>
        <pt x="188" y="740" on="1"/>
        <pt x="188" y="264" on="1"/>
        <pt x="188" y="187" on="0"/>
        <pt x="279" y="83" on="0"/>
        <pt x="372" y="83" on="1"/>
        <pt x="466" y="83" on="0"/>
        <pt x="557" y="187" on="0"/>
        <pt x="557" y="264" on="1"/>
        <pt x="557" y="740" on="1"/>
        <pt x="655" y="740" on="1"/>
        <pt x="655" y="264" on="1"/>
        <pt x="655" y="180" on="0"/>
        <pt x="586" y="57" on="0"/>
        <pt x="460" y="-10" on="0"/>
      </contour>
    </TTGlyph>
    <TTGlyph name="Ugrave" xMin="90" yMin="-10" xMax="655" yMax="1001">
      <contour>
        <pt x="332" y="820" on="1"/>
        <pt x="229" y="1001" on="1"/>
        <pt x="327" y="1001" on="1"/>
        <pt x="413" y="821" on="1"/>
      </contour>
      <contour>
        <pt x="372" y="-10" on="1"/>
        <pt x="285" y="-10" on="0"/>
        <pt x="159" y="57" on="0"/>
        <pt x="90" y="180" on="0"/>
        <pt x="90" y="264" on="1"/>
        <pt x="90" y="740" on="1"/>
        <pt x="188" y="740" on="1"/>
        <pt x="188" y="264" on="1"/>
        <pt x="188" y="187" on="0"/>
        <pt x="279" y="83" on="0"/>
        <pt x="372" y="83" on="1"/>
        <pt x="466" y="83" on="0"/>
        <pt x="557" y="187" on="0"/>
        <pt x="557" y="264" on="1"/>
        <pt x="557" y="740" on="1"/>
        <pt x="655" y="740" on="1"/>
        <pt x="655" y="264" on="1"/>
        <pt x="655" y="180" on="0"/>
        <pt x="586" y="57" on="0"/>
        <pt x="460" y="-10" on="0"/>
      </contour>
    </TTGlyph>
    <TTGlyph name="Uhorn" xMin="90" yMin="-10" xMax="773" yMax="841">
      <contour>
        <pt x="372" y="-10" on="1"/>
        <pt x="285" y="-10" on="0"/>
        <pt x="159" y="57" on="0"/>
        <pt x="90" y="180" on="0"/>
        <pt x="90" y="264" on="1"/>
        <pt x="90" y="740" on="1"/>
        <pt x="188" y="740" on="1"/>
        <pt x="188" y="264" on="1"/>
        <pt x="188" y="187" on="0"/>
        <pt x="279" y="83" on="0"/>
        <pt x="372" y="83" on="1"/>
        <pt x="466" y="83" on="0"/>
        <pt x="557" y="187" on="0"/>
        <pt x="557" y="264" on="1"/>
        <pt x="557" y="740" on="1"/>
        <pt x="643" y="740" on="1"/>
        <pt x="682" y="740" on="0"/>
        <pt x="682" y="781" on="1"/>
        <pt x="682" y="841" on="1"/>
        <pt x="773" y="841" on="1"/>
        <pt x="773" y="782" on="1"/>
        <pt x="773" y="738" on="0"/>
        <pt x="723" y="676" on="0"/>
        <pt x="672" y="676" on="1"/>
        <pt x="655" y="676" on="1"/>
        <pt x="655" y="264" on="1"/>
        <pt x="655" y="180" on="0"/>
        <pt x="586" y="57" on="0"/>
        <pt x="460" y="-10" on="0"/>
      </contour>
    </TTGlyph>
    <TTGlyph name="Uhungarumlaut" xMin="90" yMin="-10" xMax="655" yMax="1001">
      <contour>
        <pt x="326" y="820" on="1"/>
        <pt x="245" y="821" on="1"/>
        <pt x="291" y="1001" on="1"/>
        <pt x="389" y="1001" on="1"/>
      </contour>
      <contour>
        <pt x="488" y="820" on="1"/>
        <pt x="407" y="821" on="1"/>
        <pt x="453" y="1001" on="1"/>
        <pt x="551" y="1001" on="1"/>
      </contour>
      <contour>
        <pt x="372" y="-10" on="1"/>
        <pt x="285" y="-10" on="0"/>
        <pt x="159" y="57" on="0"/>
        <pt x="90" y="180" on="0"/>
        <pt x="90" y="264" on="1"/>
        <pt x="90" y="740" on="1"/>
        <pt x="188" y="740" on="1"/>
        <pt x="188" y="264" on="1"/>
        <pt x="188" y="187" on="0"/>
        <pt x="279" y="83" on="0"/>
        <pt x="372" y="83" on="1"/>
        <pt x="466" y="83" on="0"/>
        <pt x="557" y="187" on="0"/>
        <pt x="557" y="264" on="1"/>
        <pt x="557" y="740" on="1"/>
        <pt x="655" y="740" on="1"/>
        <pt x="655" y="264" on="1"/>
        <pt x="655" y="180" on="0"/>
        <pt x="586" y="57" on="0"/>
        <pt x="460" y="-10" on="0"/>
      </contour>
    </TTGlyph>
    <TTGlyph name="Umacron" xMin="90" yMin="-10" xMax="655" yMax="908">
      <contour>
        <pt x="216" y="836" on="1"/>
        <pt x="216" y="908" on="1"/>
        <pt x="520" y="908" on="1"/>
        <pt x="520" y="836" on="1"/>
      </contour>
      <contour>
        <pt x="372" y="-10" on="1"/>
        <pt x="285" y="-10" on="0"/>
        <pt x="159" y="57" on="0"/>
        <pt x="90" y="180" on="0"/>
        <pt x="90" y="264" on="1"/>
        <pt x="90" y="740" on="1"/>
        <pt x="188" y="740" on="1"/>
        <pt x="188" y="264" on="1"/>
        <pt x="188" y="187" on="0"/>
        <pt x="279" y="83" on="0"/>
        <pt x="372" y="83" on="1"/>
        <pt x="466" y="83" on="0"/>
        <pt x="557" y="187" on="0"/>
        <pt x="557" y="264" on="1"/>
        <pt x="557" y="740" on="1"/>
        <pt x="655" y="740" on="1"/>
        <pt x="655" y="264" on="1"/>
        <pt x="655" y="180" on="0"/>
        <pt x="586" y="57" on="0"/>
        <pt x="460" y="-10" on="0"/>
      </contour>
    </TTGlyph>
    <TTGlyph name="Uogonek" xMin="90" yMin="-176" xMax="655" yMax="740">
      <contour>
        <pt x="407" y="-176" on="1"/>
        <pt x="348" y="-176" on="0"/>
        <pt x="288" y="-123" on="0"/>
        <pt x="288" y="-86" on="1"/>
        <pt x="288" y="-58" on="0"/>
        <pt x="315" y="-20" on="0"/>
        <pt x="332" y="-8" on="1"/>
        <pt x="219" y="3" on="0"/>
        <pt x="90" y="147" on="0"/>
        <pt x="90" y="264" on="1"/>
        <pt x="90" y="740" on="1"/>
        <pt x="188" y="740" on="1"/>
        <pt x="188" y="264" on="1"/>
        <pt x="188" y="187" on="0"/>
        <pt x="279" y="83" on="0"/>
        <pt x="372" y="83" on="1"/>
        <pt x="466" y="83" on="0"/>
        <pt x="557" y="187" on="0"/>
        <pt x="557" y="264" on="1"/>
        <pt x="557" y="740" on="1"/>
        <pt x="655" y="740" on="1"/>
        <pt x="655" y="264" on="1"/>
        <pt x="655" y="148" on="0"/>
        <pt x="528" y="5" on="0"/>
        <pt x="416" y="-8" on="1"/>
        <pt x="410" y="-10" on="0"/>
        <pt x="386" y="-26" on="0"/>
        <pt x="366" y="-51" on="0"/>
        <pt x="366" y="-69" on="1"/>
        <pt x="366" y="-87" on="0"/>
        <pt x="395" y="-112" on="0"/>
        <pt x="423" y="-112" on="1"/>
        <pt x="437" y="-112" on="0"/>
        <pt x="460" y="-107" on="0"/>
        <pt x="460" y="-107" on="1"/>
        <pt x="460" y="-170" on="1"/>
        <pt x="460" y="-170" on="0"/>
        <pt x="430" y="-176" on="0"/>
      </contour>
    </TTGlyph>
    <TTGlyph name="Uring" xMin="90" yMin="-10" xMax="655" yMax="1068">
      <contour>
        <pt x="368" y="812" on="1"/>
        <pt x="333" y="812" on="0"/>
        <pt x="274" y="846" on="0"/>
        <pt x="239" y="905" on="0"/>
        <pt x="239" y="940" on="1"/>
        <pt x="239" y="976" on="0"/>
        <pt x="274" y="1034" on="0"/>
        <pt x="333" y="1068" on="0"/>
        <pt x="368" y="1068" on="1"/>
        <pt x="403" y="1068" on="0"/>
        <pt x="461" y="1034" on="0"/>
        <pt x="496" y="976" on="0"/>
        <pt x="496" y="940" on="1"/>
        <pt x="496" y="905" on="0"/>
        <pt x="461" y="846" on="0"/>
        <pt x="403" y="812" on="0"/>
      </contour>
      <contour>
        <pt x="368" y="880" on="1"/>
        <pt x="393" y="880" on="0"/>
        <pt x="428" y="915" on="0"/>
        <pt x="428" y="940" on="1"/>
        <pt x="428" y="965" on="0"/>
        <pt x="393" y="1000" on="0"/>
        <pt x="368" y="1000" on="1"/>
        <pt x="343" y="1000" on="0"/>
        <pt x="307" y="965" on="0"/>
        <pt x="307" y="940" on="1"/>
        <pt x="307" y="915" on="0"/>
        <pt x="343" y="880" on="0"/>
      </contour>
      <contour>
        <pt x="372" y="-10" on="1"/>
        <pt x="285" y="-10" on="0"/>
        <pt x="159" y="57" on="0"/>
        <pt x="90" y="180" on="0"/>
        <pt x="90" y="264" on="1"/>
        <pt x="90" y="740" on="1"/>
        <pt x="188" y="740" on="1"/>
        <pt x="188" y="264" on="1"/>
        <pt x="188" y="187" on="0"/>
        <pt x="279" y="83" on="0"/>
        <pt x="372" y="83" on="1"/>
        <pt x="466" y="83" on="0"/>
        <pt x="557" y="187" on="0"/>
        <pt x="557" y="264" on="1"/>
        <pt x="557" y="740" on="1"/>
        <pt x="655" y="740" on="1"/>
        <pt x="655" y="264" on="1"/>
        <pt x="655" y="180" on="0"/>
        <pt x="586" y="57" on="0"/>
        <pt x="460" y="-10" on="0"/>
      </contour>
    </TTGlyph>
    <TTGlyph name="Utilde" xMin="90" yMin="-10" xMax="655" yMax="962">
      <contour>
        <pt x="436" y="827" on="1"/>
        <pt x="409" y="827" on="0"/>
        <pt x="372" y="847" on="0"/>
        <pt x="345" y="873" on="0"/>
        <pt x="321" y="893" on="0"/>
        <pt x="307" y="893" on="1"/>
        <pt x="290" y="893" on="0"/>
        <pt x="275" y="860" on="0"/>
        <pt x="275" y="833" on="1"/>
        <pt x="211" y="833" on="1"/>
        <pt x="211" y="864" on="0"/>
        <pt x="226" y="923" on="0"/>
        <pt x="266" y="962" on="0"/>
        <pt x="301" y="962" on="1"/>
        <pt x="328" y="962" on="0"/>
        <pt x="366" y="942" on="0"/>
        <pt x="393" y="917" on="0"/>
        <pt x="417" y="897" on="0"/>
        <pt x="430" y="897" on="1"/>
        <pt x="446" y="897" on="0"/>
        <pt x="461" y="929" on="0"/>
        <pt x="461" y="957" on="1"/>
        <pt x="525" y="957" on="1"/>
        <pt x="525" y="926" on="0"/>
        <pt x="510" y="866" on="0"/>
        <pt x="471" y="827" on="0"/>
      </contour>
      <contour>
        <pt x="372" y="-10" on="1"/>
        <pt x="285" y="-10" on="0"/>
        <pt x="159" y="57" on="0"/>
        <pt x="90" y="180" on="0"/>
        <pt x="90" y="264" on="1"/>
        <pt x="90" y="740" on="1"/>
        <pt x="188" y="740" on="1"/>
        <pt x="188" y="264" on="1"/>
        <pt x="188" y="187" on="0"/>
        <pt x="279" y="83" on="0"/>
        <pt x="372" y="83" on="1"/>
        <pt x="466" y="83" on="0"/>
        <pt x="557" y="187" on="0"/>
        <pt x="557" y="264" on="1"/>
        <pt x="557" y="740" on="1"/>
        <pt x="655" y="740" on="1"/>
        <pt x="655" y="264" on="1"/>
        <pt x="655" y="180" on="0"/>
        <pt x="586" y="57" on="0"/>
        <pt x="460" y="-10" on="0"/>
      </contour>
    </TTGlyph>
    <TTGlyph name="V" xMin="30" yMin="0" xMax="676" yMax="740">
      <contour>
        <pt x="291" y="0" on="1"/>
        <pt x="30" y="740" on="1"/>
        <pt x="134" y="740" on="1"/>
        <pt x="353" y="112" on="1"/>
        <pt x="572" y="740" on="1"/>
        <pt x="676" y="740" on="1"/>
        <pt x="414" y="0" on="1"/>
      </contour>
    </TTGlyph>
    <TTGlyph name="W" xMin="40" yMin="0" xMax="965" yMax="740">
      <contour>
        <pt x="237" y="0" on="1"/>
        <pt x="40" y="740" on="1"/>
        <pt x="141" y="740" on="1"/>
        <pt x="294" y="144" on="1"/>
        <pt x="455" y="740" on="1"/>
        <pt x="551" y="740" on="1"/>
        <pt x="712" y="146" on="1"/>
        <pt x="864" y="740" on="1"/>
        <pt x="965" y="740" on="1"/>
        <pt x="768" y="0" on="1"/>
        <pt x="656" y="0" on="1"/>
        <pt x="503" y="569" on="1"/>
        <pt x="349" y="0" on="1"/>
      </contour>
    </TTGlyph>
    <TTGlyph name="Wacute" xMin="25" yMin="0" xMax="950" yMax="1001">
      <contour>
        <pt x="528" y="820" on="1"/>
        <pt x="447" y="821" on="1"/>
        <pt x="533" y="1001" on="1"/>
        <pt x="631" y="1001" on="1"/>
      </contour>
      <contour>
        <pt x="222" y="0" on="1"/>
        <pt x="25" y="740" on="1"/>
        <pt x="126" y="740" on="1"/>
        <pt x="279" y="144" on="1"/>
        <pt x="440" y="740" on="1"/>
        <pt x="536" y="740" on="1"/>
        <pt x="697" y="146" on="1"/>
        <pt x="849" y="740" on="1"/>
        <pt x="950" y="740" on="1"/>
        <pt x="753" y="0" on="1"/>
        <pt x="641" y="0" on="1"/>
        <pt x="488" y="569" on="1"/>
        <pt x="334" y="0" on="1"/>
      </contour>
    </TTGlyph>
    <TTGlyph name="Wcircumflex" xMin="25" yMin="0" xMax="950" yMax="983">
      <contour>
        <pt x="327" y="816" on="1"/>
        <pt x="448" y="983" on="1"/>
        <pt x="529" y="983" on="1"/>
        <pt x="650" y="816" on="1"/>
        <pt x="564" y="816" on="1"/>
        <pt x="488" y="923" on="1"/>
        <pt x="413" y="816" on="1"/>
      </contour>
      <contour>
        <pt x="222" y="0" on="1"/>
        <pt x="25" y="740" on="1"/>
        <pt x="126" y="740" on="1"/>
        <pt x="279" y="144" on="1"/>
        <pt x="440" y="740" on="1"/>
        <pt x="536" y="740" on="1"/>
        <pt x="697" y="146" on="1"/>
        <pt x="849" y="740" on="1"/>
        <pt x="950" y="740" on="1"/>
        <pt x="753" y="0" on="1"/>
        <pt x="641" y="0" on="1"/>
        <pt x="488" y="569" on="1"/>
        <pt x="334" y="0" on="1"/>
      </contour>
    </TTGlyph>
    <TTGlyph name="Wdieresis" xMin="25" yMin="0" xMax="950" yMax="944">
      <contour>
        <pt x="583" y="821" on="1"/>
        <pt x="556" y="821" on="0"/>
        <pt x="521" y="857" on="0"/>
        <pt x="521" y="882" on="1"/>
        <pt x="521" y="908" on="0"/>
        <pt x="556" y="944" on="0"/>
        <pt x="583" y="944" on="1"/>
        <pt x="609" y="944" on="0"/>
        <pt x="645" y="908" on="0"/>
        <pt x="645" y="882" on="1"/>
        <pt x="645" y="857" on="0"/>
        <pt x="609" y="821" on="0"/>
      </contour>
      <contour>
        <pt x="393" y="821" on="1"/>
        <pt x="366" y="821" on="0"/>
        <pt x="331" y="857" on="0"/>
        <pt x="331" y="882" on="1"/>
        <pt x="331" y="908" on="0"/>
        <pt x="366" y="944" on="0"/>
        <pt x="393" y="944" on="1"/>
        <pt x="419" y="944" on="0"/>
        <pt x="455" y="908" on="0"/>
        <pt x="455" y="882" on="1"/>
        <pt x="455" y="857" on="0"/>
        <pt x="419" y="821" on="0"/>
      </contour>
      <contour>
        <pt x="222" y="0" on="1"/>
        <pt x="25" y="740" on="1"/>
        <pt x="126" y="740" on="1"/>
        <pt x="279" y="144" on="1"/>
        <pt x="440" y="740" on="1"/>
        <pt x="536" y="740" on="1"/>
        <pt x="697" y="146" on="1"/>
        <pt x="849" y="740" on="1"/>
        <pt x="950" y="740" on="1"/>
        <pt x="753" y="0" on="1"/>
        <pt x="641" y="0" on="1"/>
        <pt x="488" y="569" on="1"/>
        <pt x="334" y="0" on="1"/>
      </contour>
    </TTGlyph>
    <TTGlyph name="Wgrave" xMin="25" yMin="0" xMax="950" yMax="1001">
      <contour>
        <pt x="452" y="820" on="1"/>
        <pt x="349" y="1001" on="1"/>
        <pt x="447" y="1001" on="1"/>
        <pt x="533" y="821" on="1"/>
      </contour>
      <contour>
        <pt x="222" y="0" on="1"/>
        <pt x="25" y="740" on="1"/>
        <pt x="126" y="740" on="1"/>
        <pt x="279" y="144" on="1"/>
        <pt x="440" y="740" on="1"/>
        <pt x="536" y="740" on="1"/>
        <pt x="697" y="146" on="1"/>
        <pt x="849" y="740" on="1"/>
        <pt x="950" y="740" on="1"/>
        <pt x="753" y="0" on="1"/>
        <pt x="641" y="0" on="1"/>
        <pt x="488" y="569" on="1"/>
        <pt x="334" y="0" on="1"/>
      </contour>
    </TTGlyph>
    <TTGlyph name="X" xMin="55" yMin="0" xMax="665" yMax="740">
      <contour>
        <pt x="55" y="0" on="1"/>
        <pt x="293" y="370" on="1"/>
        <pt x="55" y="740" on="1"/>
        <pt x="172" y="740" on="1"/>
        <pt x="360" y="443" on="1"/>
        <pt x="548" y="740" on="1"/>
        <pt x="665" y="740" on="1"/>
        <pt x="425" y="370" on="1"/>
        <pt x="665" y="0" on="1"/>
        <pt x="548" y="0" on="1"/>
        <pt x="360" y="297" on="1"/>
        <pt x="172" y="0" on="1"/>
      </contour>
    </TTGlyph>
    <TTGlyph name="Y" xMin="25" yMin="0" xMax="640" yMax="740">
      <contour>
        <pt x="284" y="0" on="1"/>
        <pt x="284" y="263" on="1"/>
        <pt x="25" y="740" on="1"/>
        <pt x="132" y="740" on="1"/>
        <pt x="333" y="363" on="1"/>
        <pt x="533" y="740" on="1"/>
        <pt x="640" y="740" on="1"/>
        <pt x="381" y="263" on="1"/>
        <pt x="381" y="0" on="1"/>
      </contour>
    </TTGlyph>
    <TTGlyph name="Yacute" xMin="25" yMin="0" xMax="640" yMax="998">
      <contour>
        <pt x="376" y="817" on="1"/>
        <pt x="295" y="818" on="1"/>
        <pt x="381" y="998" on="1"/>
        <pt x="479" y="998" on="1"/>
      </contour>
      <contour>
        <pt x="284" y="0" on="1"/>
        <pt x="284" y="263" on="1"/>
        <pt x="25" y="740" on="1"/>
        <pt x="132" y="740" on="1"/>
        <pt x="333" y="363" on="1"/>
        <pt x="533" y="740" on="1"/>
        <pt x="640" y="740" on="1"/>
        <pt x="381" y="263" on="1"/>
        <pt x="381" y="0" on="1"/>
      </contour>
    </TTGlyph>
    <TTGlyph name="Ycircumflex" xMin="25" yMin="0" xMax="640" yMax="980">
      <contour>
        <pt x="175" y="813" on="1"/>
        <pt x="296" y="980" on="1"/>
        <pt x="377" y="980" on="1"/>
        <pt x="498" y="813" on="1"/>
        <pt x="412" y="813" on="1"/>
        <pt x="336" y="920" on="1"/>
        <pt x="261" y="813" on="1"/>
      </contour>
      <contour>
        <pt x="284" y="0" on="1"/>
        <pt x="284" y="263" on="1"/>
        <pt x="25" y="740" on="1"/>
        <pt x="132" y="740" on="1"/>
        <pt x="333" y="363" on="1"/>
        <pt x="533" y="740" on="1"/>
        <pt x="640" y="740" on="1"/>
        <pt x="381" y="263" on="1"/>
        <pt x="381" y="0" on="1"/>
      </contour>
    </TTGlyph>
    <TTGlyph name="Ydieresis" xMin="25" yMin="0" xMax="640" yMax="941">
      <contour>
        <pt x="431" y="818" on="1"/>
        <pt x="404" y="818" on="0"/>
        <pt x="369" y="854" on="0"/>
        <pt x="369" y="879" on="1"/>
        <pt x="369" y="905" on="0"/>
        <pt x="404" y="941" on="0"/>
        <pt x="431" y="941" on="1"/>
        <pt x="457" y="941" on="0"/>
        <pt x="493" y="905" on="0"/>
        <pt x="493" y="879" on="1"/>
        <pt x="493" y="854" on="0"/>
        <pt x="457" y="818" on="0"/>
      </contour>
      <contour>
        <pt x="241" y="818" on="1"/>
        <pt x="214" y="818" on="0"/>
        <pt x="179" y="854" on="0"/>
        <pt x="179" y="879" on="1"/>
        <pt x="179" y="905" on="0"/>
        <pt x="214" y="941" on="0"/>
        <pt x="241" y="941" on="1"/>
        <pt x="267" y="941" on="0"/>
        <pt x="303" y="905" on="0"/>
        <pt x="303" y="879" on="1"/>
        <pt x="303" y="854" on="0"/>
        <pt x="267" y="818" on="0"/>
      </contour>
      <contour>
        <pt x="284" y="0" on="1"/>
        <pt x="284" y="263" on="1"/>
        <pt x="25" y="740" on="1"/>
        <pt x="132" y="740" on="1"/>
        <pt x="333" y="363" on="1"/>
        <pt x="533" y="740" on="1"/>
        <pt x="640" y="740" on="1"/>
        <pt x="381" y="263" on="1"/>
        <pt x="381" y="0" on="1"/>
      </contour>
    </TTGlyph>
    <TTGlyph name="Ygrave" xMin="25" yMin="0" xMax="640" yMax="998">
      <contour>
        <pt x="300" y="817" on="1"/>
        <pt x="197" y="998" on="1"/>
        <pt x="295" y="998" on="1"/>
        <pt x="381" y="818" on="1"/>
      </contour>
      <contour>
        <pt x="284" y="0" on="1"/>
        <pt x="284" y="263" on="1"/>
        <pt x="25" y="740" on="1"/>
        <pt x="132" y="740" on="1"/>
        <pt x="333" y="363" on="1"/>
        <pt x="533" y="740" on="1"/>
        <pt x="640" y="740" on="1"/>
        <pt x="381" y="263" on="1"/>
        <pt x="381" y="0" on="1"/>
      </contour>
    </TTGlyph>
    <TTGlyph name="Z" xMin="64" yMin="0" xMax="594" yMax="740">
      <contour>
        <pt x="64" y="0" on="1"/>
        <pt x="64" y="75" on="1"/>
        <pt x="473" y="654" on="1"/>
        <pt x="64" y="654" on="1"/>
        <pt x="64" y="740" on="1"/>
        <pt x="594" y="740" on="1"/>
        <pt x="594" y="665" on="1"/>
        <pt x="184" y="86" on="1"/>
        <pt x="594" y="86" on="1"/>
        <pt x="594" y="0" on="1"/>
      </contour>
    </TTGlyph>
    <TTGlyph name="Zacute" xMin="64" yMin="0" xMax="594" yMax="1001">
      <contour>
        <pt x="361" y="820" on="1"/>
        <pt x="280" y="821" on="1"/>
        <pt x="366" y="1001" on="1"/>
        <pt x="464" y="1001" on="1"/>
      </contour>
      <contour>
        <pt x="64" y="0" on="1"/>
        <pt x="64" y="75" on="1"/>
        <pt x="473" y="654" on="1"/>
        <pt x="64" y="654" on="1"/>
        <pt x="64" y="740" on="1"/>
        <pt x="594" y="740" on="1"/>
        <pt x="594" y="665" on="1"/>
        <pt x="184" y="86" on="1"/>
        <pt x="594" y="86" on="1"/>
        <pt x="594" y="0" on="1"/>
      </contour>
    </TTGlyph>
    <TTGlyph name="Zcaron" xMin="64" yMin="0" xMax="594" yMax="972">
      <contour>
        <pt x="281" y="805" on="1"/>
        <pt x="160" y="972" on="1"/>
        <pt x="246" y="972" on="1"/>
        <pt x="321" y="865" on="1"/>
        <pt x="397" y="972" on="1"/>
        <pt x="483" y="972" on="1"/>
        <pt x="362" y="805" on="1"/>
      </contour>
      <contour>
        <pt x="64" y="0" on="1"/>
        <pt x="64" y="75" on="1"/>
        <pt x="473" y="654" on="1"/>
        <pt x="64" y="654" on="1"/>
        <pt x="64" y="740" on="1"/>
        <pt x="594" y="740" on="1"/>
        <pt x="594" y="665" on="1"/>
        <pt x="184" y="86" on="1"/>
        <pt x="594" y="86" on="1"/>
        <pt x="594" y="0" on="1"/>
      </contour>
    </TTGlyph>
    <TTGlyph name="Zdotaccent" xMin="64" yMin="0" xMax="594" yMax="964">
      <contour>
        <pt x="321" y="841" on="1"/>
        <pt x="294" y="841" on="0"/>
        <pt x="259" y="877" on="0"/>
        <pt x="259" y="902" on="1"/>
        <pt x="259" y="928" on="0"/>
        <pt x="294" y="964" on="0"/>
        <pt x="321" y="964" on="1"/>
        <pt x="347" y="964" on="0"/>
        <pt x="383" y="928" on="0"/>
        <pt x="383" y="902" on="1"/>
        <pt x="383" y="877" on="0"/>
        <pt x="347" y="841" on="0"/>
      </contour>
      <contour>
        <pt x="64" y="0" on="1"/>
        <pt x="64" y="75" on="1"/>
        <pt x="473" y="654" on="1"/>
        <pt x="64" y="654" on="1"/>
        <pt x="64" y="740" on="1"/>
        <pt x="594" y="740" on="1"/>
        <pt x="594" y="665" on="1"/>
        <pt x="184" y="86" on="1"/>
        <pt x="594" y="86" on="1"/>
        <pt x="594" y="0" on="1"/>
      </contour>
    </TTGlyph>
    <TTGlyph name="a" xMin="60" yMin="-10" xMax="572" yMax="540">
      <contour>
        <pt x="300" y="540" on="1"/>
        <pt x="350" y="540" on="0"/>
        <pt x="418" y="508" on="0"/>
        <pt x="460" y="465" on="0"/>
        <pt x="471" y="446" on="1"/>
        <pt x="477" y="446" on="1"/>
        <pt x="477" y="530" on="1"/>
        <pt x="572" y="530" on="1"/>
        <pt x="572" y="0" on="1"/>
        <pt x="477" y="0" on="1"/>
        <pt x="477" y="84" on="1"/>
        <pt x="471" y="84" on="1"/>
        <pt x="460" y="65" on="0"/>
        <pt x="418" y="21" on="0"/>
        <pt x="350" y="-10" on="0"/>
        <pt x="300" y="-10" on="1"/>
        <pt x="240" y="-10" on="0"/>
        <pt x="150" y="37" on="0"/>
        <pt x="90" y="116" on="0"/>
        <pt x="60" y="214" on="0"/>
        <pt x="60" y="265" on="1"/>
        <pt x="60" y="316" on="0"/>
        <pt x="90" y="414" on="0"/>
        <pt x="150" y="493" on="0"/>
        <pt x="240" y="540" on="0"/>
      </contour>
      <contour>
        <pt x="316" y="459" on="1"/>
        <pt x="263" y="459" on="0"/>
        <pt x="191" y="402" on="0"/>
        <pt x="156" y="314" on="0"/>
        <pt x="156" y="265" on="1"/>
        <pt x="156" y="217" on="0"/>
        <pt x="191" y="128" on="0"/>
        <pt x="263" y="71" on="0"/>
        <pt x="316" y="71" on="1"/>
        <pt x="369" y="71" on="0"/>
        <pt x="440" y="128" on="0"/>
        <pt x="475" y="217" on="0"/>
        <pt x="475" y="265" on="1"/>
        <pt x="475" y="314" on="0"/>
        <pt x="440" y="402" on="0"/>
        <pt x="369" y="459" on="0"/>
      </contour>
    </TTGlyph>
    <TTGlyph name="a.ss01" xMin="55" yMin="-10" xMax="496" yMax="540">
      <contour>
        <pt x="393" y="71" on="1"/>
        <pt x="393" y="71" on="0"/>
        <pt x="376" y="47" on="0"/>
        <pt x="338" y="14" on="0"/>
        <pt x="276" y="-10" on="0"/>
        <pt x="231" y="-10" on="1"/>
        <pt x="153" y="-10" on="0"/>
        <pt x="55" y="72" on="0"/>
        <pt x="55" y="142" on="1"/>
        <pt x="55" y="195" on="0"/>
        <pt x="109" y="261" on="0"/>
        <pt x="196" y="297" on="0"/>
        <pt x="246" y="305" on="1"/>
        <pt x="401" y="329" on="1"/>
        <pt x="401" y="343" on="1"/>
        <pt x="401" y="367" on="0"/>
        <pt x="382" y="421" on="0"/>
        <pt x="331" y="460" on="0"/>
        <pt x="283" y="460" on="1"/>
        <pt x="241" y="460" on="0"/>
        <pt x="192" y="432" on="0"/>
        <pt x="167" y="396" on="0"/>
        <pt x="160" y="368" on="0"/>
        <pt x="160" y="368" on="1"/>
        <pt x="68" y="368" on="1"/>
        <pt x="68" y="368" on="0"/>
        <pt x="75" y="403" on="0"/>
        <pt x="98" y="454" on="0"/>
        <pt x="145" y="505" on="0"/>
        <pt x="223" y="540" on="0"/>
        <pt x="283" y="540" on="1"/>
        <pt x="353" y="540" on="0"/>
        <pt x="447" y="487" on="0"/>
        <pt x="496" y="398" on="0"/>
        <pt x="496" y="343" on="1"/>
        <pt x="496" y="0" on="1"/>
        <pt x="401" y="0" on="1"/>
        <pt x="401" y="71" on="1"/>
      </contour>
      <contour>
        <pt x="149" y="146" on="1"/>
        <pt x="149" y="103" on="0"/>
        <pt x="210" y="63" on="0"/>
        <pt x="250" y="63" on="1"/>
        <pt x="294" y="63" on="0"/>
        <pt x="362" y="107" on="0"/>
        <pt x="401" y="185" on="0"/>
        <pt x="401" y="236" on="1"/>
        <pt x="401" y="255" on="1"/>
        <pt x="259" y="232" on="1"/>
        <pt x="213" y="225" on="0"/>
        <pt x="149" y="189" on="0"/>
      </contour>
    </TTGlyph>
    <TTGlyph name="aacute" xMin="65" yMin="-10" xMax="577" yMax="791">
      <contour>
        <pt x="367" y="610" on="1"/>
        <pt x="286" y="611" on="1"/>
        <pt x="372" y="791" on="1"/>
        <pt x="470" y="791" on="1"/>
      </contour>
      <contour>
        <pt x="305" y="540" on="1"/>
        <pt x="355" y="540" on="0"/>
        <pt x="423" y="508" on="0"/>
        <pt x="465" y="465" on="0"/>
        <pt x="476" y="446" on="1"/>
        <pt x="482" y="446" on="1"/>
        <pt x="482" y="530" on="1"/>
        <pt x="577" y="530" on="1"/>
        <pt x="577" y="0" on="1"/>
        <pt x="482" y="0" on="1"/>
        <pt x="482" y="84" on="1"/>
        <pt x="476" y="84" on="1"/>
        <pt x="465" y="65" on="0"/>
        <pt x="423" y="21" on="0"/>
        <pt x="355" y="-10" on="0"/>
        <pt x="305" y="-10" on="1"/>
        <pt x="245" y="-10" on="0"/>
        <pt x="155" y="37" on="0"/>
        <pt x="95" y="116" on="0"/>
        <pt x="65" y="214" on="0"/>
        <pt x="65" y="265" on="1"/>
        <pt x="65" y="316" on="0"/>
        <pt x="95" y="414" on="0"/>
        <pt x="155" y="493" on="0"/>
        <pt x="245" y="540" on="0"/>
      </contour>
      <contour>
        <pt x="321" y="459" on="1"/>
        <pt x="268" y="459" on="0"/>
        <pt x="196" y="402" on="0"/>
        <pt x="161" y="314" on="0"/>
        <pt x="161" y="265" on="1"/>
        <pt x="161" y="217" on="0"/>
        <pt x="196" y="128" on="0"/>
        <pt x="268" y="71" on="0"/>
        <pt x="321" y="71" on="1"/>
        <pt x="374" y="71" on="0"/>
        <pt x="445" y="128" on="0"/>
        <pt x="480" y="217" on="0"/>
        <pt x="480" y="265" on="1"/>
        <pt x="480" y="314" on="0"/>
        <pt x="445" y="402" on="0"/>
        <pt x="374" y="459" on="0"/>
      </contour>
    </TTGlyph>
    <TTGlyph name="aacute.ss01" xMin="67" yMin="-10" xMax="508" yMax="791">
      <contour>
        <pt x="337" y="610" on="1"/>
        <pt x="256" y="611" on="1"/>
        <pt x="342" y="791" on="1"/>
        <pt x="440" y="791" on="1"/>
      </contour>
      <contour>
        <pt x="405" y="71" on="1"/>
        <pt x="405" y="71" on="0"/>
        <pt x="388" y="47" on="0"/>
        <pt x="350" y="14" on="0"/>
        <pt x="288" y="-10" on="0"/>
        <pt x="243" y="-10" on="1"/>
        <pt x="165" y="-10" on="0"/>
        <pt x="67" y="72" on="0"/>
        <pt x="67" y="142" on="1"/>
        <pt x="67" y="195" on="0"/>
        <pt x="121" y="261" on="0"/>
        <pt x="208" y="297" on="0"/>
        <pt x="258" y="305" on="1"/>
        <pt x="413" y="329" on="1"/>
        <pt x="413" y="343" on="1"/>
        <pt x="413" y="367" on="0"/>
        <pt x="394" y="421" on="0"/>
        <pt x="343" y="460" on="0"/>
        <pt x="295" y="460" on="1"/>
        <pt x="253" y="460" on="0"/>
        <pt x="204" y="432" on="0"/>
        <pt x="179" y="396" on="0"/>
        <pt x="172" y="368" on="0"/>
        <pt x="172" y="368" on="1"/>
        <pt x="80" y="368" on="1"/>
        <pt x="80" y="368" on="0"/>
        <pt x="87" y="403" on="0"/>
        <pt x="110" y="454" on="0"/>
        <pt x="157" y="505" on="0"/>
        <pt x="235" y="540" on="0"/>
        <pt x="295" y="540" on="1"/>
        <pt x="365" y="540" on="0"/>
        <pt x="459" y="487" on="0"/>
        <pt x="508" y="398" on="0"/>
        <pt x="508" y="343" on="1"/>
        <pt x="508" y="0" on="1"/>
        <pt x="413" y="0" on="1"/>
        <pt x="413" y="71" on="1"/>
      </contour>
      <contour>
        <pt x="161" y="146" on="1"/>
        <pt x="161" y="103" on="0"/>
        <pt x="222" y="63" on="0"/>
        <pt x="262" y="63" on="1"/>
        <pt x="306" y="63" on="0"/>
        <pt x="374" y="107" on="0"/>
        <pt x="413" y="185" on="0"/>
        <pt x="413" y="236" on="1"/>
        <pt x="413" y="255" on="1"/>
        <pt x="271" y="232" on="1"/>
        <pt x="225" y="225" on="0"/>
        <pt x="161" y="189" on="0"/>
      </contour>
    </TTGlyph>
    <TTGlyph name="abreve" xMin="65" yMin="-10" xMax="577" yMax="757">
      <contour>
        <pt x="327" y="605" on="1"/>
        <pt x="279" y="605" on="0"/>
        <pt x="218" y="636" on="0"/>
        <pt x="184" y="681" on="0"/>
        <pt x="170" y="726" on="0"/>
        <pt x="167" y="757" on="0"/>
        <pt x="167" y="757" on="1"/>
        <pt x="238" y="757" on="1"/>
        <pt x="238" y="757" on="0"/>
        <pt x="242" y="730" on="0"/>
        <pt x="257" y="696" on="0"/>
        <pt x="294" y="669" on="0"/>
        <pt x="327" y="669" on="1"/>
        <pt x="360" y="669" on="0"/>
        <pt x="397" y="696" on="0"/>
        <pt x="412" y="730" on="0"/>
        <pt x="416" y="757" on="0"/>
        <pt x="416" y="757" on="1"/>
        <pt x="487" y="757" on="1"/>
        <pt x="487" y="757" on="0"/>
        <pt x="484" y="726" on="0"/>
        <pt x="470" y="681" on="0"/>
        <pt x="436" y="636" on="0"/>
        <pt x="375" y="605" on="0"/>
      </contour>
      <contour>
        <pt x="305" y="540" on="1"/>
        <pt x="355" y="540" on="0"/>
        <pt x="423" y="508" on="0"/>
        <pt x="465" y="465" on="0"/>
        <pt x="476" y="446" on="1"/>
        <pt x="482" y="446" on="1"/>
        <pt x="482" y="530" on="1"/>
        <pt x="577" y="530" on="1"/>
        <pt x="577" y="0" on="1"/>
        <pt x="482" y="0" on="1"/>
        <pt x="482" y="84" on="1"/>
        <pt x="476" y="84" on="1"/>
        <pt x="465" y="65" on="0"/>
        <pt x="423" y="21" on="0"/>
        <pt x="355" y="-10" on="0"/>
        <pt x="305" y="-10" on="1"/>
        <pt x="245" y="-10" on="0"/>
        <pt x="155" y="37" on="0"/>
        <pt x="95" y="116" on="0"/>
        <pt x="65" y="214" on="0"/>
        <pt x="65" y="265" on="1"/>
        <pt x="65" y="316" on="0"/>
        <pt x="95" y="414" on="0"/>
        <pt x="155" y="493" on="0"/>
        <pt x="245" y="540" on="0"/>
      </contour>
      <contour>
        <pt x="321" y="459" on="1"/>
        <pt x="268" y="459" on="0"/>
        <pt x="196" y="402" on="0"/>
        <pt x="161" y="314" on="0"/>
        <pt x="161" y="265" on="1"/>
        <pt x="161" y="217" on="0"/>
        <pt x="196" y="128" on="0"/>
        <pt x="268" y="71" on="0"/>
        <pt x="321" y="71" on="1"/>
        <pt x="374" y="71" on="0"/>
        <pt x="445" y="128" on="0"/>
        <pt x="480" y="217" on="0"/>
        <pt x="480" y="265" on="1"/>
        <pt x="480" y="314" on="0"/>
        <pt x="445" y="402" on="0"/>
        <pt x="374" y="459" on="0"/>
      </contour>
    </TTGlyph>
    <TTGlyph name="abreve.ss01" xMin="67" yMin="-10" xMax="508" yMax="757">
      <contour>
        <pt x="297" y="605" on="1"/>
        <pt x="249" y="605" on="0"/>
        <pt x="188" y="636" on="0"/>
        <pt x="154" y="681" on="0"/>
        <pt x="140" y="726" on="0"/>
        <pt x="137" y="757" on="0"/>
        <pt x="137" y="757" on="1"/>
        <pt x="208" y="757" on="1"/>
        <pt x="208" y="757" on="0"/>
        <pt x="212" y="730" on="0"/>
        <pt x="227" y="696" on="0"/>
        <pt x="264" y="669" on="0"/>
        <pt x="297" y="669" on="1"/>
        <pt x="330" y="669" on="0"/>
        <pt x="367" y="696" on="0"/>
        <pt x="382" y="730" on="0"/>
        <pt x="386" y="757" on="0"/>
        <pt x="386" y="757" on="1"/>
        <pt x="457" y="757" on="1"/>
        <pt x="457" y="757" on="0"/>
        <pt x="454" y="726" on="0"/>
        <pt x="440" y="681" on="0"/>
        <pt x="406" y="636" on="0"/>
        <pt x="345" y="605" on="0"/>
      </contour>
      <contour>
        <pt x="405" y="71" on="1"/>
        <pt x="405" y="71" on="0"/>
        <pt x="388" y="47" on="0"/>
        <pt x="350" y="14" on="0"/>
        <pt x="288" y="-10" on="0"/>
        <pt x="243" y="-10" on="1"/>
        <pt x="165" y="-10" on="0"/>
        <pt x="67" y="72" on="0"/>
        <pt x="67" y="142" on="1"/>
        <pt x="67" y="195" on="0"/>
        <pt x="121" y="261" on="0"/>
        <pt x="208" y="297" on="0"/>
        <pt x="258" y="305" on="1"/>
        <pt x="413" y="329" on="1"/>
        <pt x="413" y="343" on="1"/>
        <pt x="413" y="367" on="0"/>
        <pt x="394" y="421" on="0"/>
        <pt x="343" y="460" on="0"/>
        <pt x="295" y="460" on="1"/>
        <pt x="253" y="460" on="0"/>
        <pt x="204" y="432" on="0"/>
        <pt x="179" y="396" on="0"/>
        <pt x="172" y="368" on="0"/>
        <pt x="172" y="368" on="1"/>
        <pt x="80" y="368" on="1"/>
        <pt x="80" y="368" on="0"/>
        <pt x="87" y="403" on="0"/>
        <pt x="110" y="454" on="0"/>
        <pt x="157" y="505" on="0"/>
        <pt x="235" y="540" on="0"/>
        <pt x="295" y="540" on="1"/>
        <pt x="365" y="540" on="0"/>
        <pt x="459" y="487" on="0"/>
        <pt x="508" y="398" on="0"/>
        <pt x="508" y="343" on="1"/>
        <pt x="508" y="0" on="1"/>
        <pt x="413" y="0" on="1"/>
        <pt x="413" y="71" on="1"/>
      </contour>
      <contour>
        <pt x="161" y="146" on="1"/>
        <pt x="161" y="103" on="0"/>
        <pt x="222" y="63" on="0"/>
        <pt x="262" y="63" on="1"/>
        <pt x="306" y="63" on="0"/>
        <pt x="374" y="107" on="0"/>
        <pt x="413" y="185" on="0"/>
        <pt x="413" y="236" on="1"/>
        <pt x="413" y="255" on="1"/>
        <pt x="271" y="232" on="1"/>
        <pt x="225" y="225" on="0"/>
        <pt x="161" y="189" on="0"/>
      </contour>
    </TTGlyph>
    <TTGlyph name="acircumflex" xMin="65" yMin="-10" xMax="577" yMax="773">
      <contour>
        <pt x="166" y="606" on="1"/>
        <pt x="287" y="773" on="1"/>
        <pt x="368" y="773" on="1"/>
        <pt x="489" y="606" on="1"/>
        <pt x="403" y="606" on="1"/>
        <pt x="327" y="713" on="1"/>
        <pt x="252" y="606" on="1"/>
      </contour>
      <contour>
        <pt x="305" y="540" on="1"/>
        <pt x="355" y="540" on="0"/>
        <pt x="423" y="508" on="0"/>
        <pt x="465" y="465" on="0"/>
        <pt x="476" y="446" on="1"/>
        <pt x="482" y="446" on="1"/>
        <pt x="482" y="530" on="1"/>
        <pt x="577" y="530" on="1"/>
        <pt x="577" y="0" on="1"/>
        <pt x="482" y="0" on="1"/>
        <pt x="482" y="84" on="1"/>
        <pt x="476" y="84" on="1"/>
        <pt x="465" y="65" on="0"/>
        <pt x="423" y="21" on="0"/>
        <pt x="355" y="-10" on="0"/>
        <pt x="305" y="-10" on="1"/>
        <pt x="245" y="-10" on="0"/>
        <pt x="155" y="37" on="0"/>
        <pt x="95" y="116" on="0"/>
        <pt x="65" y="214" on="0"/>
        <pt x="65" y="265" on="1"/>
        <pt x="65" y="316" on="0"/>
        <pt x="95" y="414" on="0"/>
        <pt x="155" y="493" on="0"/>
        <pt x="245" y="540" on="0"/>
      </contour>
      <contour>
        <pt x="321" y="459" on="1"/>
        <pt x="268" y="459" on="0"/>
        <pt x="196" y="402" on="0"/>
        <pt x="161" y="314" on="0"/>
        <pt x="161" y="265" on="1"/>
        <pt x="161" y="217" on="0"/>
        <pt x="196" y="128" on="0"/>
        <pt x="268" y="71" on="0"/>
        <pt x="321" y="71" on="1"/>
        <pt x="374" y="71" on="0"/>
        <pt x="445" y="128" on="0"/>
        <pt x="480" y="217" on="0"/>
        <pt x="480" y="265" on="1"/>
        <pt x="480" y="314" on="0"/>
        <pt x="445" y="402" on="0"/>
        <pt x="374" y="459" on="0"/>
      </contour>
    </TTGlyph>
    <TTGlyph name="acircumflex.ss01" xMin="67" yMin="-10" xMax="508" yMax="773">
      <contour>
        <pt x="136" y="606" on="1"/>
        <pt x="257" y="773" on="1"/>
        <pt x="338" y="773" on="1"/>
        <pt x="459" y="606" on="1"/>
        <pt x="373" y="606" on="1"/>
        <pt x="297" y="713" on="1"/>
        <pt x="222" y="606" on="1"/>
      </contour>
      <contour>
        <pt x="405" y="71" on="1"/>
        <pt x="405" y="71" on="0"/>
        <pt x="388" y="47" on="0"/>
        <pt x="350" y="14" on="0"/>
        <pt x="288" y="-10" on="0"/>
        <pt x="243" y="-10" on="1"/>
        <pt x="165" y="-10" on="0"/>
        <pt x="67" y="72" on="0"/>
        <pt x="67" y="142" on="1"/>
        <pt x="67" y="195" on="0"/>
        <pt x="121" y="261" on="0"/>
        <pt x="208" y="297" on="0"/>
        <pt x="258" y="305" on="1"/>
        <pt x="413" y="329" on="1"/>
        <pt x="413" y="343" on="1"/>
        <pt x="413" y="367" on="0"/>
        <pt x="394" y="421" on="0"/>
        <pt x="343" y="460" on="0"/>
        <pt x="295" y="460" on="1"/>
        <pt x="253" y="460" on="0"/>
        <pt x="204" y="432" on="0"/>
        <pt x="179" y="396" on="0"/>
        <pt x="172" y="368" on="0"/>
        <pt x="172" y="368" on="1"/>
        <pt x="80" y="368" on="1"/>
        <pt x="80" y="368" on="0"/>
        <pt x="87" y="403" on="0"/>
        <pt x="110" y="454" on="0"/>
        <pt x="157" y="505" on="0"/>
        <pt x="235" y="540" on="0"/>
        <pt x="295" y="540" on="1"/>
        <pt x="365" y="540" on="0"/>
        <pt x="459" y="487" on="0"/>
        <pt x="508" y="398" on="0"/>
        <pt x="508" y="343" on="1"/>
        <pt x="508" y="0" on="1"/>
        <pt x="413" y="0" on="1"/>
        <pt x="413" y="71" on="1"/>
      </contour>
      <contour>
        <pt x="161" y="146" on="1"/>
        <pt x="161" y="103" on="0"/>
        <pt x="222" y="63" on="0"/>
        <pt x="262" y="63" on="1"/>
        <pt x="306" y="63" on="0"/>
        <pt x="374" y="107" on="0"/>
        <pt x="413" y="185" on="0"/>
        <pt x="413" y="236" on="1"/>
        <pt x="413" y="255" on="1"/>
        <pt x="271" y="232" on="1"/>
        <pt x="225" y="225" on="0"/>
        <pt x="161" y="189" on="0"/>
      </contour>
    </TTGlyph>
    <TTGlyph name="acute" xMin="-9" yMin="610" xMax="175" yMax="791">
      <contour>
        <pt x="72" y="610" on="1"/>
        <pt x="-9" y="611" on="1"/>
        <pt x="77" y="791" on="1"/>
        <pt x="175" y="791" on="1"/>
      </contour>
    </TTGlyph>
    <TTGlyph name="acutecomb" xMin="21" yMin="610" xMax="205" yMax="791">
      <contour>
        <pt x="102" y="610" on="1"/>
        <pt x="21" y="611" on="1"/>
        <pt x="107" y="791" on="1"/>
        <pt x="205" y="791" on="1"/>
      </contour>
    </TTGlyph>
    <TTGlyph name="adieresis" xMin="65" yMin="-10" xMax="577" yMax="734">
      <contour>
        <pt x="422" y="611" on="1"/>
        <pt x="395" y="611" on="0"/>
        <pt x="360" y="647" on="0"/>
        <pt x="360" y="672" on="1"/>
        <pt x="360" y="698" on="0"/>
        <pt x="395" y="734" on="0"/>
        <pt x="422" y="734" on="1"/>
        <pt x="448" y="734" on="0"/>
        <pt x="484" y="698" on="0"/>
        <pt x="484" y="672" on="1"/>
        <pt x="484" y="647" on="0"/>
        <pt x="448" y="611" on="0"/>
      </contour>
      <contour>
        <pt x="232" y="611" on="1"/>
        <pt x="205" y="611" on="0"/>
        <pt x="170" y="647" on="0"/>
        <pt x="170" y="672" on="1"/>
        <pt x="170" y="698" on="0"/>
        <pt x="205" y="734" on="0"/>
        <pt x="232" y="734" on="1"/>
        <pt x="258" y="734" on="0"/>
        <pt x="294" y="698" on="0"/>
        <pt x="294" y="672" on="1"/>
        <pt x="294" y="647" on="0"/>
        <pt x="258" y="611" on="0"/>
      </contour>
      <contour>
        <pt x="305" y="540" on="1"/>
        <pt x="355" y="540" on="0"/>
        <pt x="423" y="508" on="0"/>
        <pt x="465" y="465" on="0"/>
        <pt x="476" y="446" on="1"/>
        <pt x="482" y="446" on="1"/>
        <pt x="482" y="530" on="1"/>
        <pt x="577" y="530" on="1"/>
        <pt x="577" y="0" on="1"/>
        <pt x="482" y="0" on="1"/>
        <pt x="482" y="84" on="1"/>
        <pt x="476" y="84" on="1"/>
        <pt x="465" y="65" on="0"/>
        <pt x="423" y="21" on="0"/>
        <pt x="355" y="-10" on="0"/>
        <pt x="305" y="-10" on="1"/>
        <pt x="245" y="-10" on="0"/>
        <pt x="155" y="37" on="0"/>
        <pt x="95" y="116" on="0"/>
        <pt x="65" y="214" on="0"/>
        <pt x="65" y="265" on="1"/>
        <pt x="65" y="316" on="0"/>
        <pt x="95" y="414" on="0"/>
        <pt x="155" y="493" on="0"/>
        <pt x="245" y="540" on="0"/>
      </contour>
      <contour>
        <pt x="321" y="459" on="1"/>
        <pt x="268" y="459" on="0"/>
        <pt x="196" y="402" on="0"/>
        <pt x="161" y="314" on="0"/>
        <pt x="161" y="265" on="1"/>
        <pt x="161" y="217" on="0"/>
        <pt x="196" y="128" on="0"/>
        <pt x="268" y="71" on="0"/>
        <pt x="321" y="71" on="1"/>
        <pt x="374" y="71" on="0"/>
        <pt x="445" y="128" on="0"/>
        <pt x="480" y="217" on="0"/>
        <pt x="480" y="265" on="1"/>
        <pt x="480" y="314" on="0"/>
        <pt x="445" y="402" on="0"/>
        <pt x="374" y="459" on="0"/>
      </contour>
    </TTGlyph>
    <TTGlyph name="adieresis.ss01" xMin="67" yMin="-10" xMax="508" yMax="734">
      <contour>
        <pt x="392" y="611" on="1"/>
        <pt x="365" y="611" on="0"/>
        <pt x="330" y="647" on="0"/>
        <pt x="330" y="672" on="1"/>
        <pt x="330" y="698" on="0"/>
        <pt x="365" y="734" on="0"/>
        <pt x="392" y="734" on="1"/>
        <pt x="418" y="734" on="0"/>
        <pt x="454" y="698" on="0"/>
        <pt x="454" y="672" on="1"/>
        <pt x="454" y="647" on="0"/>
        <pt x="418" y="611" on="0"/>
      </contour>
      <contour>
        <pt x="202" y="611" on="1"/>
        <pt x="175" y="611" on="0"/>
        <pt x="140" y="647" on="0"/>
        <pt x="140" y="672" on="1"/>
        <pt x="140" y="698" on="0"/>
        <pt x="175" y="734" on="0"/>
        <pt x="202" y="734" on="1"/>
        <pt x="228" y="734" on="0"/>
        <pt x="264" y="698" on="0"/>
        <pt x="264" y="672" on="1"/>
        <pt x="264" y="647" on="0"/>
        <pt x="228" y="611" on="0"/>
      </contour>
      <contour>
        <pt x="405" y="71" on="1"/>
        <pt x="405" y="71" on="0"/>
        <pt x="388" y="47" on="0"/>
        <pt x="350" y="14" on="0"/>
        <pt x="288" y="-10" on="0"/>
        <pt x="243" y="-10" on="1"/>
        <pt x="165" y="-10" on="0"/>
        <pt x="67" y="72" on="0"/>
        <pt x="67" y="142" on="1"/>
        <pt x="67" y="195" on="0"/>
        <pt x="121" y="261" on="0"/>
        <pt x="208" y="297" on="0"/>
        <pt x="258" y="305" on="1"/>
        <pt x="413" y="329" on="1"/>
        <pt x="413" y="343" on="1"/>
        <pt x="413" y="367" on="0"/>
        <pt x="394" y="421" on="0"/>
        <pt x="343" y="460" on="0"/>
        <pt x="295" y="460" on="1"/>
        <pt x="253" y="460" on="0"/>
        <pt x="204" y="432" on="0"/>
        <pt x="179" y="396" on="0"/>
        <pt x="172" y="368" on="0"/>
        <pt x="172" y="368" on="1"/>
        <pt x="80" y="368" on="1"/>
        <pt x="80" y="368" on="0"/>
        <pt x="87" y="403" on="0"/>
        <pt x="110" y="454" on="0"/>
        <pt x="157" y="505" on="0"/>
        <pt x="235" y="540" on="0"/>
        <pt x="295" y="540" on="1"/>
        <pt x="365" y="540" on="0"/>
        <pt x="459" y="487" on="0"/>
        <pt x="508" y="398" on="0"/>
        <pt x="508" y="343" on="1"/>
        <pt x="508" y="0" on="1"/>
        <pt x="413" y="0" on="1"/>
        <pt x="413" y="71" on="1"/>
      </contour>
      <contour>
        <pt x="161" y="146" on="1"/>
        <pt x="161" y="103" on="0"/>
        <pt x="222" y="63" on="0"/>
        <pt x="262" y="63" on="1"/>
        <pt x="306" y="63" on="0"/>
        <pt x="374" y="107" on="0"/>
        <pt x="413" y="185" on="0"/>
        <pt x="413" y="236" on="1"/>
        <pt x="413" y="255" on="1"/>
        <pt x="271" y="232" on="1"/>
        <pt x="225" y="225" on="0"/>
        <pt x="161" y="189" on="0"/>
      </contour>
    </TTGlyph>
    <TTGlyph name="ae" xMin="60" yMin="-10" xMax="906" yMax="540">
      <contour>
        <pt x="245" y="-10" on="1"/>
        <pt x="194" y="-10" on="0"/>
        <pt x="110" y="26" on="0"/>
        <pt x="60" y="98" on="0"/>
        <pt x="60" y="150" on="1"/>
        <pt x="60" y="224" on="0"/>
        <pt x="170" y="309" on="0"/>
        <pt x="261" y="309" on="1"/>
        <pt x="412" y="309" on="1"/>
        <pt x="412" y="339" on="1"/>
        <pt x="412" y="365" on="0"/>
        <pt x="392" y="423" on="0"/>
        <pt x="339" y="464" on="0"/>
        <pt x="289" y="464" on="1"/>
        <pt x="246" y="464" on="0"/>
        <pt x="195" y="435" on="0"/>
        <pt x="171" y="397" on="0"/>
        <pt x="163" y="368" on="0"/>
        <pt x="163" y="368" on="1"/>
        <pt x="71" y="368" on="1"/>
        <pt x="71" y="368" on="0"/>
        <pt x="79" y="403" on="0"/>
        <pt x="102" y="454" on="0"/>
        <pt x="149" y="505" on="0"/>
        <pt x="227" y="540" on="0"/>
        <pt x="285" y="540" on="1"/>
        <pt x="364" y="540" on="0"/>
        <pt x="456" y="474" on="0"/>
        <pt x="469" y="430" on="1"/>
        <pt x="472" y="430" on="1"/>
        <pt x="485" y="457" on="0"/>
        <pt x="536" y="507" on="0"/>
        <pt x="615" y="540" on="0"/>
        <pt x="669" y="540" on="1"/>
        <pt x="737" y="540" on="0"/>
        <pt x="844" y="478" on="0"/>
        <pt x="906" y="354" on="0"/>
        <pt x="906" y="262" on="1"/>
        <pt x="906" y="234" on="1"/>
        <pt x="509" y="234" on="1"/>
        <pt x="511" y="190" on="0"/>
        <pt x="550" y="114" on="0"/>
        <pt x="622" y="67" on="0"/>
        <pt x="672" y="67" on="1"/>
        <pt x="713" y="67" on="0"/>
        <pt x="767" y="95" on="0"/>
        <pt x="798" y="133" on="0"/>
        <pt x="810" y="161" on="0"/>
        <pt x="810" y="161" on="1"/>
        <pt x="900" y="161" on="1"/>
        <pt x="900" y="161" on="0"/>
        <pt x="889" y="126" on="0"/>
        <pt x="861" y="76" on="0"/>
        <pt x="810" y="25" on="0"/>
        <pt x="729" y="-10" on="0"/>
        <pt x="670" y="-10" on="1"/>
        <pt x="604" y="-10" on="0"/>
        <pt x="515" y="35" on="0"/>
        <pt x="464" y="94" on="0"/>
        <pt x="454" y="115" on="1"/>
        <pt x="449" y="115" on="1"/>
        <pt x="449" y="115" on="0"/>
        <pt x="432" y="77" on="0"/>
        <pt x="388" y="28" on="0"/>
        <pt x="308" y="-10" on="0"/>
      </contour>
      <contour>
        <pt x="508" y="307" on="1"/>
        <pt x="813" y="307" on="1"/>
        <pt x="810" y="365" on="0"/>
        <pt x="769" y="434" on="0"/>
        <pt x="705" y="464" on="0"/>
        <pt x="667" y="464" on="1"/>
        <pt x="600" y="464" on="0"/>
        <pt x="513" y="381" on="0"/>
      </contour>
      <contour>
        <pt x="262" y="63" on="1"/>
        <pt x="309" y="63" on="0"/>
        <pt x="376" y="107" on="0"/>
        <pt x="412" y="180" on="0"/>
        <pt x="412" y="223" on="1"/>
        <pt x="412" y="236" on="1"/>
        <pt x="261" y="236" on="1"/>
        <pt x="206" y="236" on="0"/>
        <pt x="152" y="187" on="0"/>
        <pt x="152" y="150" on="1"/>
        <pt x="152" y="106" on="0"/>
        <pt x="219" y="63" on="0"/>
      </contour>
    </TTGlyph>
    <TTGlyph name="agrave" xMin="65" yMin="-10" xMax="577" yMax="791">
      <contour>
        <pt x="291" y="610" on="1"/>
        <pt x="188" y="791" on="1"/>
        <pt x="286" y="791" on="1"/>
        <pt x="372" y="611" on="1"/>
      </contour>
      <contour>
        <pt x="305" y="540" on="1"/>
        <pt x="355" y="540" on="0"/>
        <pt x="423" y="508" on="0"/>
        <pt x="465" y="465" on="0"/>
        <pt x="476" y="446" on="1"/>
        <pt x="482" y="446" on="1"/>
        <pt x="482" y="530" on="1"/>
        <pt x="577" y="530" on="1"/>
        <pt x="577" y="0" on="1"/>
        <pt x="482" y="0" on="1"/>
        <pt x="482" y="84" on="1"/>
        <pt x="476" y="84" on="1"/>
        <pt x="465" y="65" on="0"/>
        <pt x="423" y="21" on="0"/>
        <pt x="355" y="-10" on="0"/>
        <pt x="305" y="-10" on="1"/>
        <pt x="245" y="-10" on="0"/>
        <pt x="155" y="37" on="0"/>
        <pt x="95" y="116" on="0"/>
        <pt x="65" y="214" on="0"/>
        <pt x="65" y="265" on="1"/>
        <pt x="65" y="316" on="0"/>
        <pt x="95" y="414" on="0"/>
        <pt x="155" y="493" on="0"/>
        <pt x="245" y="540" on="0"/>
      </contour>
      <contour>
        <pt x="321" y="459" on="1"/>
        <pt x="268" y="459" on="0"/>
        <pt x="196" y="402" on="0"/>
        <pt x="161" y="314" on="0"/>
        <pt x="161" y="265" on="1"/>
        <pt x="161" y="217" on="0"/>
        <pt x="196" y="128" on="0"/>
        <pt x="268" y="71" on="0"/>
        <pt x="321" y="71" on="1"/>
        <pt x="374" y="71" on="0"/>
        <pt x="445" y="128" on="0"/>
        <pt x="480" y="217" on="0"/>
        <pt x="480" y="265" on="1"/>
        <pt x="480" y="314" on="0"/>
        <pt x="445" y="402" on="0"/>
        <pt x="374" y="459" on="0"/>
      </contour>
    </TTGlyph>
    <TTGlyph name="agrave.ss01" xMin="67" yMin="-10" xMax="508" yMax="791">
      <contour>
        <pt x="261" y="610" on="1"/>
        <pt x="158" y="791" on="1"/>
        <pt x="256" y="791" on="1"/>
        <pt x="342" y="611" on="1"/>
      </contour>
      <contour>
        <pt x="405" y="71" on="1"/>
        <pt x="405" y="71" on="0"/>
        <pt x="388" y="47" on="0"/>
        <pt x="350" y="14" on="0"/>
        <pt x="288" y="-10" on="0"/>
        <pt x="243" y="-10" on="1"/>
        <pt x="165" y="-10" on="0"/>
        <pt x="67" y="72" on="0"/>
        <pt x="67" y="142" on="1"/>
        <pt x="67" y="195" on="0"/>
        <pt x="121" y="261" on="0"/>
        <pt x="208" y="297" on="0"/>
        <pt x="258" y="305" on="1"/>
        <pt x="413" y="329" on="1"/>
        <pt x="413" y="343" on="1"/>
        <pt x="413" y="367" on="0"/>
        <pt x="394" y="421" on="0"/>
        <pt x="343" y="460" on="0"/>
        <pt x="295" y="460" on="1"/>
        <pt x="253" y="460" on="0"/>
        <pt x="204" y="432" on="0"/>
        <pt x="179" y="396" on="0"/>
        <pt x="172" y="368" on="0"/>
        <pt x="172" y="368" on="1"/>
        <pt x="80" y="368" on="1"/>
        <pt x="80" y="368" on="0"/>
        <pt x="87" y="403" on="0"/>
        <pt x="110" y="454" on="0"/>
        <pt x="157" y="505" on="0"/>
        <pt x="235" y="540" on="0"/>
        <pt x="295" y="540" on="1"/>
        <pt x="365" y="540" on="0"/>
        <pt x="459" y="487" on="0"/>
        <pt x="508" y="398" on="0"/>
        <pt x="508" y="343" on="1"/>
        <pt x="508" y="0" on="1"/>
        <pt x="413" y="0" on="1"/>
        <pt x="413" y="71" on="1"/>
      </contour>
      <contour>
        <pt x="161" y="146" on="1"/>
        <pt x="161" y="103" on="0"/>
        <pt x="222" y="63" on="0"/>
        <pt x="262" y="63" on="1"/>
        <pt x="306" y="63" on="0"/>
        <pt x="374" y="107" on="0"/>
        <pt x="413" y="185" on="0"/>
        <pt x="413" y="236" on="1"/>
        <pt x="413" y="255" on="1"/>
        <pt x="271" y="232" on="1"/>
        <pt x="225" y="225" on="0"/>
        <pt x="161" y="189" on="0"/>
      </contour>
    </TTGlyph>
    <TTGlyph name="amacron" xMin="65" yMin="-10" xMax="577" yMax="698">
      <contour>
        <pt x="175" y="626" on="1"/>
        <pt x="175" y="698" on="1"/>
        <pt x="479" y="698" on="1"/>
        <pt x="479" y="626" on="1"/>
      </contour>
      <contour>
        <pt x="305" y="540" on="1"/>
        <pt x="355" y="540" on="0"/>
        <pt x="423" y="508" on="0"/>
        <pt x="465" y="465" on="0"/>
        <pt x="476" y="446" on="1"/>
        <pt x="482" y="446" on="1"/>
        <pt x="482" y="530" on="1"/>
        <pt x="577" y="530" on="1"/>
        <pt x="577" y="0" on="1"/>
        <pt x="482" y="0" on="1"/>
        <pt x="482" y="84" on="1"/>
        <pt x="476" y="84" on="1"/>
        <pt x="465" y="65" on="0"/>
        <pt x="423" y="21" on="0"/>
        <pt x="355" y="-10" on="0"/>
        <pt x="305" y="-10" on="1"/>
        <pt x="245" y="-10" on="0"/>
        <pt x="155" y="37" on="0"/>
        <pt x="95" y="116" on="0"/>
        <pt x="65" y="214" on="0"/>
        <pt x="65" y="265" on="1"/>
        <pt x="65" y="316" on="0"/>
        <pt x="95" y="414" on="0"/>
        <pt x="155" y="493" on="0"/>
        <pt x="245" y="540" on="0"/>
      </contour>
      <contour>
        <pt x="321" y="459" on="1"/>
        <pt x="268" y="459" on="0"/>
        <pt x="196" y="402" on="0"/>
        <pt x="161" y="314" on="0"/>
        <pt x="161" y="265" on="1"/>
        <pt x="161" y="217" on="0"/>
        <pt x="196" y="128" on="0"/>
        <pt x="268" y="71" on="0"/>
        <pt x="321" y="71" on="1"/>
        <pt x="374" y="71" on="0"/>
        <pt x="445" y="128" on="0"/>
        <pt x="480" y="217" on="0"/>
        <pt x="480" y="265" on="1"/>
        <pt x="480" y="314" on="0"/>
        <pt x="445" y="402" on="0"/>
        <pt x="374" y="459" on="0"/>
      </contour>
    </TTGlyph>
    <TTGlyph name="amacron.ss01" xMin="67" yMin="-10" xMax="508" yMax="698">
      <contour>
        <pt x="145" y="626" on="1"/>
        <pt x="145" y="698" on="1"/>
        <pt x="449" y="698" on="1"/>
        <pt x="449" y="626" on="1"/>
      </contour>
      <contour>
        <pt x="405" y="71" on="1"/>
        <pt x="405" y="71" on="0"/>
        <pt x="388" y="47" on="0"/>
        <pt x="350" y="14" on="0"/>
        <pt x="288" y="-10" on="0"/>
        <pt x="243" y="-10" on="1"/>
        <pt x="165" y="-10" on="0"/>
        <pt x="67" y="72" on="0"/>
        <pt x="67" y="142" on="1"/>
        <pt x="67" y="195" on="0"/>
        <pt x="121" y="261" on="0"/>
        <pt x="208" y="297" on="0"/>
        <pt x="258" y="305" on="1"/>
        <pt x="413" y="329" on="1"/>
        <pt x="413" y="343" on="1"/>
        <pt x="413" y="367" on="0"/>
        <pt x="394" y="421" on="0"/>
        <pt x="343" y="460" on="0"/>
        <pt x="295" y="460" on="1"/>
        <pt x="253" y="460" on="0"/>
        <pt x="204" y="432" on="0"/>
        <pt x="179" y="396" on="0"/>
        <pt x="172" y="368" on="0"/>
        <pt x="172" y="368" on="1"/>
        <pt x="80" y="368" on="1"/>
        <pt x="80" y="368" on="0"/>
        <pt x="87" y="403" on="0"/>
        <pt x="110" y="454" on="0"/>
        <pt x="157" y="505" on="0"/>
        <pt x="235" y="540" on="0"/>
        <pt x="295" y="540" on="1"/>
        <pt x="365" y="540" on="0"/>
        <pt x="459" y="487" on="0"/>
        <pt x="508" y="398" on="0"/>
        <pt x="508" y="343" on="1"/>
        <pt x="508" y="0" on="1"/>
        <pt x="413" y="0" on="1"/>
        <pt x="413" y="71" on="1"/>
      </contour>
      <contour>
        <pt x="161" y="146" on="1"/>
        <pt x="161" y="103" on="0"/>
        <pt x="222" y="63" on="0"/>
        <pt x="262" y="63" on="1"/>
        <pt x="306" y="63" on="0"/>
        <pt x="374" y="107" on="0"/>
        <pt x="413" y="185" on="0"/>
        <pt x="413" y="236" on="1"/>
        <pt x="413" y="255" on="1"/>
        <pt x="271" y="232" on="1"/>
        <pt x="225" y="225" on="0"/>
        <pt x="161" y="189" on="0"/>
      </contour>
    </TTGlyph>
    <TTGlyph name="ampersand" xMin="62" yMin="-10" xMax="695" yMax="750">
      <contour>
        <pt x="317" y="-10" on="1"/>
        <pt x="248" y="-10" on="0"/>
        <pt x="132" y="40" on="0"/>
        <pt x="62" y="134" on="0"/>
        <pt x="62" y="201" on="1"/>
        <pt x="62" y="273" on="0"/>
        <pt x="147" y="376" on="0"/>
        <pt x="215" y="415" on="1"/>
        <pt x="207" y="424" on="1"/>
        <pt x="181" y="454" on="0"/>
        <pt x="137" y="528" on="0"/>
        <pt x="137" y="581" on="1"/>
        <pt x="137" y="637" on="0"/>
        <pt x="188" y="712" on="0"/>
        <pt x="270" y="750" on="0"/>
        <pt x="315" y="750" on="1"/>
        <pt x="360" y="750" on="0"/>
        <pt x="439" y="714" on="0"/>
        <pt x="488" y="644" on="0"/>
        <pt x="488" y="593" on="1"/>
        <pt x="488" y="533" on="0"/>
        <pt x="412" y="435" on="0"/>
        <pt x="342" y="400" on="1"/>
        <pt x="522" y="197" on="1"/>
        <pt x="543" y="238" on="0"/>
        <pt x="567" y="352" on="0"/>
        <pt x="567" y="425" on="1"/>
        <pt x="648" y="425" on="1"/>
        <pt x="648" y="330" on="0"/>
        <pt x="611" y="184" on="0"/>
        <pt x="579" y="132" on="1"/>
        <pt x="695" y="1" on="1"/>
        <pt x="575" y="1" on="1"/>
        <pt x="521" y="63" on="1"/>
        <pt x="478" y="26" on="0"/>
        <pt x="374" y="-10" on="0"/>
      </contour>
      <contour>
        <pt x="283" y="467" on="1"/>
        <pt x="294" y="455" on="1"/>
        <pt x="301" y="458" on="1"/>
        <pt x="349" y="481" on="0"/>
        <pt x="404" y="548" on="0"/>
        <pt x="404" y="588" on="1"/>
        <pt x="404" y="630" on="0"/>
        <pt x="351" y="675" on="0"/>
        <pt x="316" y="675" on="1"/>
        <pt x="279" y="675" on="0"/>
        <pt x="222" y="626" on="0"/>
        <pt x="222" y="584" on="1"/>
        <pt x="222" y="554" on="0"/>
        <pt x="254" y="500" on="0"/>
      </contour>
      <contour>
        <pt x="152" y="209" on="1"/>
        <pt x="152" y="165" on="0"/>
        <pt x="198" y="102" on="0"/>
        <pt x="275" y="70" on="0"/>
        <pt x="322" y="70" on="1"/>
        <pt x="363" y="70" on="0"/>
        <pt x="438" y="96" on="0"/>
        <pt x="468" y="124" on="1"/>
        <pt x="262" y="361" on="1"/>
        <pt x="213" y="333" on="0"/>
        <pt x="152" y="259" on="0"/>
      </contour>
    </TTGlyph>
    <TTGlyph name="aogonek" xMin="65" yMin="-170" xMax="617" yMax="540">
      <contour>
        <pt x="564" y="-170" on="1"/>
        <pt x="505" y="-170" on="0"/>
        <pt x="445" y="-117" on="0"/>
        <pt x="445" y="-80" on="1"/>
        <pt x="445" y="-51" on="0"/>
        <pt x="475" y="-12" on="0"/>
        <pt x="492" y="0" on="1"/>
        <pt x="482" y="0" on="1"/>
        <pt x="482" y="84" on="1"/>
        <pt x="476" y="84" on="1"/>
        <pt x="465" y="65" on="0"/>
        <pt x="423" y="21" on="0"/>
        <pt x="355" y="-10" on="0"/>
        <pt x="305" y="-10" on="1"/>
        <pt x="245" y="-10" on="0"/>
        <pt x="155" y="37" on="0"/>
        <pt x="95" y="116" on="0"/>
        <pt x="65" y="214" on="0"/>
        <pt x="65" y="265" on="1"/>
        <pt x="65" y="316" on="0"/>
        <pt x="95" y="414" on="0"/>
        <pt x="155" y="493" on="0"/>
        <pt x="245" y="540" on="0"/>
        <pt x="305" y="540" on="1"/>
        <pt x="355" y="540" on="0"/>
        <pt x="423" y="508" on="0"/>
        <pt x="465" y="465" on="0"/>
        <pt x="476" y="446" on="1"/>
        <pt x="482" y="446" on="1"/>
        <pt x="482" y="530" on="1"/>
        <pt x="577" y="530" on="1"/>
        <pt x="577" y="0" on="1"/>
        <pt x="577" y="0" on="0"/>
        <pt x="550" y="-14" on="0"/>
        <pt x="523" y="-42" on="0"/>
        <pt x="523" y="-63" on="1"/>
        <pt x="523" y="-81" on="0"/>
        <pt x="552" y="-106" on="0"/>
        <pt x="580" y="-106" on="1"/>
        <pt x="594" y="-106" on="0"/>
        <pt x="617" y="-101" on="0"/>
        <pt x="617" y="-101" on="1"/>
        <pt x="617" y="-164" on="1"/>
        <pt x="617" y="-164" on="0"/>
        <pt x="587" y="-170" on="0"/>
      </contour>
      <contour>
        <pt x="321" y="459" on="1"/>
        <pt x="268" y="459" on="0"/>
        <pt x="196" y="402" on="0"/>
        <pt x="161" y="314" on="0"/>
        <pt x="161" y="265" on="1"/>
        <pt x="161" y="217" on="0"/>
        <pt x="196" y="128" on="0"/>
        <pt x="268" y="71" on="0"/>
        <pt x="321" y="71" on="1"/>
        <pt x="374" y="71" on="0"/>
        <pt x="445" y="128" on="0"/>
        <pt x="480" y="217" on="0"/>
        <pt x="480" y="265" on="1"/>
        <pt x="480" y="314" on="0"/>
        <pt x="445" y="402" on="0"/>
        <pt x="374" y="459" on="0"/>
      </contour>
    </TTGlyph>
    <TTGlyph name="aogonek.ss01" xMin="67" yMin="-170" xMax="548" yMax="540">
      <contour>
        <pt x="495" y="-170" on="1"/>
        <pt x="436" y="-170" on="0"/>
        <pt x="376" y="-117" on="0"/>
        <pt x="376" y="-80" on="1"/>
        <pt x="376" y="-51" on="0"/>
        <pt x="406" y="-12" on="0"/>
        <pt x="423" y="0" on="1"/>
        <pt x="413" y="0" on="1"/>
        <pt x="413" y="71" on="1"/>
        <pt x="405" y="71" on="1"/>
        <pt x="405" y="71" on="0"/>
        <pt x="388" y="47" on="0"/>
        <pt x="350" y="14" on="0"/>
        <pt x="288" y="-10" on="0"/>
        <pt x="243" y="-10" on="1"/>
        <pt x="165" y="-10" on="0"/>
        <pt x="67" y="72" on="0"/>
        <pt x="67" y="142" on="1"/>
        <pt x="67" y="195" on="0"/>
        <pt x="121" y="261" on="0"/>
        <pt x="208" y="297" on="0"/>
        <pt x="258" y="305" on="1"/>
        <pt x="413" y="329" on="1"/>
        <pt x="413" y="343" on="1"/>
        <pt x="413" y="367" on="0"/>
        <pt x="394" y="421" on="0"/>
        <pt x="343" y="460" on="0"/>
        <pt x="295" y="460" on="1"/>
        <pt x="253" y="460" on="0"/>
        <pt x="204" y="432" on="0"/>
        <pt x="179" y="396" on="0"/>
        <pt x="172" y="368" on="0"/>
        <pt x="172" y="368" on="1"/>
        <pt x="80" y="368" on="1"/>
        <pt x="80" y="368" on="0"/>
        <pt x="87" y="403" on="0"/>
        <pt x="110" y="454" on="0"/>
        <pt x="157" y="505" on="0"/>
        <pt x="235" y="540" on="0"/>
        <pt x="295" y="540" on="1"/>
        <pt x="365" y="540" on="0"/>
        <pt x="459" y="487" on="0"/>
        <pt x="508" y="398" on="0"/>
        <pt x="508" y="343" on="1"/>
        <pt x="508" y="0" on="1"/>
        <pt x="508" y="0" on="0"/>
        <pt x="481" y="-14" on="0"/>
        <pt x="454" y="-42" on="0"/>
        <pt x="454" y="-63" on="1"/>
        <pt x="454" y="-81" on="0"/>
        <pt x="483" y="-106" on="0"/>
        <pt x="511" y="-106" on="1"/>
        <pt x="525" y="-106" on="0"/>
        <pt x="548" y="-101" on="0"/>
        <pt x="548" y="-101" on="1"/>
        <pt x="548" y="-164" on="1"/>
        <pt x="548" y="-164" on="0"/>
        <pt x="518" y="-170" on="0"/>
      </contour>
      <contour>
        <pt x="161" y="146" on="1"/>
        <pt x="161" y="103" on="0"/>
        <pt x="222" y="63" on="0"/>
        <pt x="262" y="63" on="1"/>
        <pt x="306" y="63" on="0"/>
        <pt x="374" y="107" on="0"/>
        <pt x="413" y="185" on="0"/>
        <pt x="413" y="236" on="1"/>
        <pt x="413" y="255" on="1"/>
        <pt x="271" y="232" on="1"/>
        <pt x="225" y="225" on="0"/>
        <pt x="161" y="189" on="0"/>
      </contour>
    </TTGlyph>
    <TTGlyph name="approxequal" xMin="118" yMin="162" xMax="446" yMax="503">
      <contour>
        <pt x="352" y="372" on="1"/>
        <pt x="324" y="372" on="0"/>
        <pt x="286" y="392" on="0"/>
        <pt x="257" y="418" on="0"/>
        <pt x="231" y="438" on="0"/>
        <pt x="216" y="438" on="1"/>
        <pt x="197" y="438" on="0"/>
        <pt x="181" y="405" on="0"/>
        <pt x="181" y="377" on="1"/>
        <pt x="118" y="377" on="1"/>
        <pt x="118" y="408" on="0"/>
        <pt x="134" y="465" on="0"/>
        <pt x="175" y="503" on="0"/>
        <pt x="212" y="503" on="1"/>
        <pt x="240" y="503" on="0"/>
        <pt x="279" y="483" on="0"/>
        <pt x="309" y="457" on="0"/>
        <pt x="334" y="437" on="0"/>
        <pt x="349" y="437" on="1"/>
        <pt x="366" y="437" on="0"/>
        <pt x="383" y="470" on="0"/>
        <pt x="383" y="498" on="1"/>
        <pt x="446" y="498" on="1"/>
        <pt x="446" y="468" on="0"/>
        <pt x="430" y="410" on="0"/>
        <pt x="389" y="372" on="0"/>
      </contour>
      <contour>
        <pt x="352" y="162" on="1"/>
        <pt x="324" y="162" on="0"/>
        <pt x="286" y="182" on="0"/>
        <pt x="257" y="208" on="0"/>
        <pt x="231" y="228" on="0"/>
        <pt x="216" y="228" on="1"/>
        <pt x="197" y="228" on="0"/>
        <pt x="181" y="195" on="0"/>
        <pt x="181" y="167" on="1"/>
        <pt x="118" y="167" on="1"/>
        <pt x="118" y="198" on="0"/>
        <pt x="134" y="255" on="0"/>
        <pt x="175" y="293" on="0"/>
        <pt x="212" y="293" on="1"/>
        <pt x="240" y="293" on="0"/>
        <pt x="279" y="273" on="0"/>
        <pt x="309" y="247" on="0"/>
        <pt x="334" y="227" on="0"/>
        <pt x="349" y="227" on="1"/>
        <pt x="366" y="227" on="0"/>
        <pt x="383" y="260" on="0"/>
        <pt x="383" y="288" on="1"/>
        <pt x="446" y="288" on="1"/>
        <pt x="446" y="258" on="0"/>
        <pt x="430" y="200" on="0"/>
        <pt x="389" y="162" on="0"/>
      </contour>
    </TTGlyph>
    <TTGlyph name="aring" xMin="65" yMin="-10" xMax="577" yMax="858">
      <contour>
        <pt x="327" y="602" on="1"/>
        <pt x="292" y="602" on="0"/>
        <pt x="233" y="636" on="0"/>
        <pt x="198" y="695" on="0"/>
        <pt x="198" y="730" on="1"/>
        <pt x="198" y="766" on="0"/>
        <pt x="233" y="824" on="0"/>
        <pt x="292" y="858" on="0"/>
        <pt x="327" y="858" on="1"/>
        <pt x="362" y="858" on="0"/>
        <pt x="420" y="824" on="0"/>
        <pt x="455" y="766" on="0"/>
        <pt x="455" y="730" on="1"/>
        <pt x="455" y="695" on="0"/>
        <pt x="420" y="636" on="0"/>
        <pt x="362" y="602" on="0"/>
      </contour>
      <contour>
        <pt x="327" y="670" on="1"/>
        <pt x="352" y="670" on="0"/>
        <pt x="387" y="705" on="0"/>
        <pt x="387" y="730" on="1"/>
        <pt x="387" y="755" on="0"/>
        <pt x="352" y="790" on="0"/>
        <pt x="327" y="790" on="1"/>
        <pt x="302" y="790" on="0"/>
        <pt x="266" y="755" on="0"/>
        <pt x="266" y="730" on="1"/>
        <pt x="266" y="705" on="0"/>
        <pt x="302" y="670" on="0"/>
      </contour>
      <contour>
        <pt x="305" y="540" on="1"/>
        <pt x="355" y="540" on="0"/>
        <pt x="423" y="508" on="0"/>
        <pt x="465" y="465" on="0"/>
        <pt x="476" y="446" on="1"/>
        <pt x="482" y="446" on="1"/>
        <pt x="482" y="530" on="1"/>
        <pt x="577" y="530" on="1"/>
        <pt x="577" y="0" on="1"/>
        <pt x="482" y="0" on="1"/>
        <pt x="482" y="84" on="1"/>
        <pt x="476" y="84" on="1"/>
        <pt x="465" y="65" on="0"/>
        <pt x="423" y="21" on="0"/>
        <pt x="355" y="-10" on="0"/>
        <pt x="305" y="-10" on="1"/>
        <pt x="245" y="-10" on="0"/>
        <pt x="155" y="37" on="0"/>
        <pt x="95" y="116" on="0"/>
        <pt x="65" y="214" on="0"/>
        <pt x="65" y="265" on="1"/>
        <pt x="65" y="316" on="0"/>
        <pt x="95" y="414" on="0"/>
        <pt x="155" y="493" on="0"/>
        <pt x="245" y="540" on="0"/>
      </contour>
      <contour>
        <pt x="321" y="459" on="1"/>
        <pt x="268" y="459" on="0"/>
        <pt x="196" y="402" on="0"/>
        <pt x="161" y="314" on="0"/>
        <pt x="161" y="265" on="1"/>
        <pt x="161" y="217" on="0"/>
        <pt x="196" y="128" on="0"/>
        <pt x="268" y="71" on="0"/>
        <pt x="321" y="71" on="1"/>
        <pt x="374" y="71" on="0"/>
        <pt x="445" y="128" on="0"/>
        <pt x="480" y="217" on="0"/>
        <pt x="480" y="265" on="1"/>
        <pt x="480" y="314" on="0"/>
        <pt x="445" y="402" on="0"/>
        <pt x="374" y="459" on="0"/>
      </contour>
    </TTGlyph>
    <TTGlyph name="aring.ss01" xMin="67" yMin="-10" xMax="508" yMax="858">
      <contour>
        <pt x="297" y="602" on="1"/>
        <pt x="262" y="602" on="0"/>
        <pt x="203" y="636" on="0"/>
        <pt x="168" y="695" on="0"/>
        <pt x="168" y="730" on="1"/>
        <pt x="168" y="766" on="0"/>
        <pt x="203" y="824" on="0"/>
        <pt x="262" y="858" on="0"/>
        <pt x="297" y="858" on="1"/>
        <pt x="332" y="858" on="0"/>
        <pt x="390" y="824" on="0"/>
        <pt x="425" y="766" on="0"/>
        <pt x="425" y="730" on="1"/>
        <pt x="425" y="695" on="0"/>
        <pt x="390" y="636" on="0"/>
        <pt x="332" y="602" on="0"/>
      </contour>
      <contour>
        <pt x="297" y="670" on="1"/>
        <pt x="322" y="670" on="0"/>
        <pt x="357" y="705" on="0"/>
        <pt x="357" y="730" on="1"/>
        <pt x="357" y="755" on="0"/>
        <pt x="322" y="790" on="0"/>
        <pt x="297" y="790" on="1"/>
        <pt x="272" y="790" on="0"/>
        <pt x="236" y="755" on="0"/>
        <pt x="236" y="730" on="1"/>
        <pt x="236" y="705" on="0"/>
        <pt x="272" y="670" on="0"/>
      </contour>
      <contour>
        <pt x="405" y="71" on="1"/>
        <pt x="405" y="71" on="0"/>
        <pt x="388" y="47" on="0"/>
        <pt x="350" y="14" on="0"/>
        <pt x="288" y="-10" on="0"/>
        <pt x="243" y="-10" on="1"/>
        <pt x="165" y="-10" on="0"/>
        <pt x="67" y="72" on="0"/>
        <pt x="67" y="142" on="1"/>
        <pt x="67" y="195" on="0"/>
        <pt x="121" y="261" on="0"/>
        <pt x="208" y="297" on="0"/>
        <pt x="258" y="305" on="1"/>
        <pt x="413" y="329" on="1"/>
        <pt x="413" y="343" on="1"/>
        <pt x="413" y="367" on="0"/>
        <pt x="394" y="421" on="0"/>
        <pt x="343" y="460" on="0"/>
        <pt x="295" y="460" on="1"/>
        <pt x="253" y="460" on="0"/>
        <pt x="204" y="432" on="0"/>
        <pt x="179" y="396" on="0"/>
        <pt x="172" y="368" on="0"/>
        <pt x="172" y="368" on="1"/>
        <pt x="80" y="368" on="1"/>
        <pt x="80" y="368" on="0"/>
        <pt x="87" y="403" on="0"/>
        <pt x="110" y="454" on="0"/>
        <pt x="157" y="505" on="0"/>
        <pt x="235" y="540" on="0"/>
        <pt x="295" y="540" on="1"/>
        <pt x="365" y="540" on="0"/>
        <pt x="459" y="487" on="0"/>
        <pt x="508" y="398" on="0"/>
        <pt x="508" y="343" on="1"/>
        <pt x="508" y="0" on="1"/>
        <pt x="413" y="0" on="1"/>
        <pt x="413" y="71" on="1"/>
      </contour>
      <contour>
        <pt x="161" y="146" on="1"/>
        <pt x="161" y="103" on="0"/>
        <pt x="222" y="63" on="0"/>
        <pt x="262" y="63" on="1"/>
        <pt x="306" y="63" on="0"/>
        <pt x="374" y="107" on="0"/>
        <pt x="413" y="185" on="0"/>
        <pt x="413" y="236" on="1"/>
        <pt x="413" y="255" on="1"/>
        <pt x="271" y="232" on="1"/>
        <pt x="225" y="225" on="0"/>
        <pt x="161" y="189" on="0"/>
      </contour>
    </TTGlyph>
    <TTGlyph name="asciicircum" xMin="118" yMin="573" xMax="441" yMax="740">
      <contour>
        <pt x="118" y="573" on="1"/>
        <pt x="239" y="740" on="1"/>
        <pt x="320" y="740" on="1"/>
        <pt x="441" y="573" on="1"/>
        <pt x="355" y="573" on="1"/>
        <pt x="279" y="680" on="1"/>
        <pt x="204" y="573" on="1"/>
      </contour>
    </TTGlyph>
    <TTGlyph name="asciitilde" xMin="70" yMin="318" xMax="398" yMax="449">
      <contour>
        <pt x="304" y="318" on="1"/>
        <pt x="276" y="318" on="0"/>
        <pt x="238" y="338" on="0"/>
        <pt x="209" y="364" on="0"/>
        <pt x="183" y="384" on="0"/>
        <pt x="168" y="384" on="1"/>
        <pt x="149" y="384" on="0"/>
        <pt x="133" y="351" on="0"/>
        <pt x="133" y="323" on="1"/>
        <pt x="70" y="323" on="1"/>
        <pt x="70" y="354" on="0"/>
        <pt x="86" y="411" on="0"/>
        <pt x="127" y="449" on="0"/>
        <pt x="164" y="449" on="1"/>
        <pt x="192" y="449" on="0"/>
        <pt x="231" y="429" on="0"/>
        <pt x="261" y="403" on="0"/>
        <pt x="286" y="383" on="0"/>
        <pt x="301" y="383" on="1"/>
        <pt x="318" y="383" on="0"/>
        <pt x="335" y="416" on="0"/>
        <pt x="335" y="444" on="1"/>
        <pt x="398" y="444" on="1"/>
        <pt x="398" y="414" on="0"/>
        <pt x="382" y="356" on="0"/>
        <pt x="341" y="318" on="0"/>
      </contour>
    </TTGlyph>
    <TTGlyph name="asterisk" xMin="40" yMin="344" xMax="457" yMax="740">
      <contour>
        <pt x="158" y="344" on="1"/>
        <pt x="96" y="388" on="1"/>
        <pt x="190" y="514" on="1"/>
        <pt x="40" y="561" on="1"/>
        <pt x="63" y="634" on="1"/>
        <pt x="212" y="583" on="1"/>
        <pt x="210" y="740" on="1"/>
        <pt x="286" y="740" on="1"/>
        <pt x="285" y="583" on="1"/>
        <pt x="434" y="634" on="1"/>
        <pt x="457" y="561" on="1"/>
        <pt x="308" y="514" on="1"/>
        <pt x="401" y="388" on="1"/>
        <pt x="339" y="344" on="1"/>
        <pt x="248" y="471" on="1"/>
      </contour>
    </TTGlyph>
    <TTGlyph name="at" xMin="55" yMin="-138" xMax="950" yMax="750">
      <contour>
        <pt x="515" y="-138" on="1"/>
        <pt x="399" y="-138" on="0"/>
        <pt x="226" y="-63" on="0"/>
        <pt x="112" y="63" on="0"/>
        <pt x="55" y="221" on="0"/>
        <pt x="55" y="303" on="1"/>
        <pt x="55" y="387" on="0"/>
        <pt x="112" y="546" on="0"/>
        <pt x="225" y="674" on="0"/>
        <pt x="394" y="750" on="0"/>
        <pt x="505" y="750" on="1"/>
        <pt x="592" y="750" on="0"/>
        <pt x="752" y="694" on="0"/>
        <pt x="877" y="586" on="0"/>
        <pt x="950" y="427" on="0"/>
        <pt x="950" y="325" on="1"/>
        <pt x="950" y="257" on="0"/>
        <pt x="909" y="146" on="0"/>
        <pt x="830" y="81" on="0"/>
        <pt x="772" y="81" on="1"/>
        <pt x="717" y="81" on="0"/>
        <pt x="641" y="132" on="0"/>
        <pt x="625" y="175" on="1"/>
        <pt x="619" y="175" on="1"/>
        <pt x="613" y="161" on="0"/>
        <pt x="578" y="116" on="0"/>
        <pt x="514" y="81" on="0"/>
        <pt x="465" y="81" on="1"/>
        <pt x="403" y="81" on="0"/>
        <pt x="319" y="146" on="0"/>
        <pt x="277" y="247" on="0"/>
        <pt x="277" y="302" on="1"/>
        <pt x="277" y="357" on="0"/>
        <pt x="318" y="457" on="0"/>
        <pt x="401" y="521" on="0"/>
        <pt x="463" y="521" on="1"/>
        <pt x="513" y="521" on="0"/>
        <pt x="581" y="480" on="0"/>
        <pt x="599" y="452" on="1"/>
        <pt x="604" y="452" on="1"/>
        <pt x="604" y="513" on="1"/>
        <pt x="695" y="513" on="1"/>
        <pt x="695" y="322" on="1"/>
        <pt x="695" y="307" on="0"/>
        <pt x="698" y="254" on="0"/>
        <pt x="712" y="197" on="0"/>
        <pt x="746" y="158" on="0"/>
        <pt x="776" y="158" on="1"/>
        <pt x="820" y="158" on="0"/>
        <pt x="862" y="244" on="0"/>
        <pt x="862" y="325" on="1"/>
        <pt x="862" y="409" on="0"/>
        <pt x="804" y="538" on="0"/>
        <pt x="704" y="626" on="0"/>
        <pt x="576" y="670" on="0"/>
        <pt x="505" y="670" on="1"/>
        <pt x="416" y="670" on="0"/>
        <pt x="281" y="608" on="0"/>
        <pt x="190" y="503" on="0"/>
        <pt x="144" y="373" on="0"/>
        <pt x="144" y="305" on="1"/>
        <pt x="144" y="237" on="0"/>
        <pt x="190" y="108" on="0"/>
        <pt x="282" y="5" on="0"/>
        <pt x="421" y="-56" on="0"/>
        <pt x="514" y="-56" on="1"/>
        <pt x="584" y="-56" on="0"/>
        <pt x="690" y="-28" on="0"/>
        <pt x="750" y="-1" on="0"/>
        <pt x="750" y="-1" on="1"/>
        <pt x="781" y="-76" on="1"/>
        <pt x="781" y="-76" on="0"/>
        <pt x="718" y="-107" on="0"/>
        <pt x="600" y="-138" on="0"/>
      </contour>
      <contour>
        <pt x="484" y="157" on="1"/>
        <pt x="523" y="157" on="0"/>
        <pt x="573" y="199" on="0"/>
        <pt x="598" y="266" on="0"/>
        <pt x="598" y="301" on="1"/>
        <pt x="598" y="336" on="0"/>
        <pt x="573" y="401" on="0"/>
        <pt x="523" y="444" on="0"/>
        <pt x="484" y="444" on="1"/>
        <pt x="446" y="444" on="0"/>
        <pt x="395" y="402" on="0"/>
        <pt x="370" y="337" on="0"/>
        <pt x="370" y="301" on="1"/>
        <pt x="370" y="265" on="0"/>
        <pt x="395" y="199" on="0"/>
        <pt x="446" y="157" on="0"/>
      </contour>
    </TTGlyph>
    <TTGlyph name="atilde" xMin="65" yMin="-10" xMax="577" yMax="752">
      <contour>
        <pt x="395" y="617" on="1"/>
        <pt x="368" y="617" on="0"/>
        <pt x="331" y="637" on="0"/>
        <pt x="304" y="663" on="0"/>
        <pt x="280" y="683" on="0"/>
        <pt x="266" y="683" on="1"/>
        <pt x="249" y="683" on="0"/>
        <pt x="234" y="650" on="0"/>
        <pt x="234" y="623" on="1"/>
        <pt x="170" y="623" on="1"/>
        <pt x="170" y="654" on="0"/>
        <pt x="185" y="713" on="0"/>
        <pt x="225" y="752" on="0"/>
        <pt x="260" y="752" on="1"/>
        <pt x="287" y="752" on="0"/>
        <pt x="325" y="732" on="0"/>
        <pt x="352" y="707" on="0"/>
        <pt x="376" y="687" on="0"/>
        <pt x="389" y="687" on="1"/>
        <pt x="405" y="687" on="0"/>
        <pt x="420" y="719" on="0"/>
        <pt x="420" y="747" on="1"/>
        <pt x="484" y="747" on="1"/>
        <pt x="484" y="716" on="0"/>
        <pt x="469" y="656" on="0"/>
        <pt x="430" y="617" on="0"/>
      </contour>
      <contour>
        <pt x="305" y="540" on="1"/>
        <pt x="355" y="540" on="0"/>
        <pt x="423" y="508" on="0"/>
        <pt x="465" y="465" on="0"/>
        <pt x="476" y="446" on="1"/>
        <pt x="482" y="446" on="1"/>
        <pt x="482" y="530" on="1"/>
        <pt x="577" y="530" on="1"/>
        <pt x="577" y="0" on="1"/>
        <pt x="482" y="0" on="1"/>
        <pt x="482" y="84" on="1"/>
        <pt x="476" y="84" on="1"/>
        <pt x="465" y="65" on="0"/>
        <pt x="423" y="21" on="0"/>
        <pt x="355" y="-10" on="0"/>
        <pt x="305" y="-10" on="1"/>
        <pt x="245" y="-10" on="0"/>
        <pt x="155" y="37" on="0"/>
        <pt x="95" y="116" on="0"/>
        <pt x="65" y="214" on="0"/>
        <pt x="65" y="265" on="1"/>
        <pt x="65" y="316" on="0"/>
        <pt x="95" y="414" on="0"/>
        <pt x="155" y="493" on="0"/>
        <pt x="245" y="540" on="0"/>
      </contour>
      <contour>
        <pt x="321" y="459" on="1"/>
        <pt x="268" y="459" on="0"/>
        <pt x="196" y="402" on="0"/>
        <pt x="161" y="314" on="0"/>
        <pt x="161" y="265" on="1"/>
        <pt x="161" y="217" on="0"/>
        <pt x="196" y="128" on="0"/>
        <pt x="268" y="71" on="0"/>
        <pt x="321" y="71" on="1"/>
        <pt x="374" y="71" on="0"/>
        <pt x="445" y="128" on="0"/>
        <pt x="480" y="217" on="0"/>
        <pt x="480" y="265" on="1"/>
        <pt x="480" y="314" on="0"/>
        <pt x="445" y="402" on="0"/>
        <pt x="374" y="459" on="0"/>
      </contour>
    </TTGlyph>
    <TTGlyph name="atilde.ss01" xMin="67" yMin="-10" xMax="508" yMax="752">
      <contour>
        <pt x="365" y="617" on="1"/>
        <pt x="338" y="617" on="0"/>
        <pt x="301" y="637" on="0"/>
        <pt x="274" y="663" on="0"/>
        <pt x="250" y="683" on="0"/>
        <pt x="236" y="683" on="1"/>
        <pt x="219" y="683" on="0"/>
        <pt x="204" y="650" on="0"/>
        <pt x="204" y="623" on="1"/>
        <pt x="140" y="623" on="1"/>
        <pt x="140" y="654" on="0"/>
        <pt x="155" y="713" on="0"/>
        <pt x="195" y="752" on="0"/>
        <pt x="230" y="752" on="1"/>
        <pt x="257" y="752" on="0"/>
        <pt x="295" y="732" on="0"/>
        <pt x="322" y="707" on="0"/>
        <pt x="346" y="687" on="0"/>
        <pt x="359" y="687" on="1"/>
        <pt x="375" y="687" on="0"/>
        <pt x="390" y="719" on="0"/>
        <pt x="390" y="747" on="1"/>
        <pt x="454" y="747" on="1"/>
        <pt x="454" y="716" on="0"/>
        <pt x="439" y="656" on="0"/>
        <pt x="400" y="617" on="0"/>
      </contour>
      <contour>
        <pt x="405" y="71" on="1"/>
        <pt x="405" y="71" on="0"/>
        <pt x="388" y="47" on="0"/>
        <pt x="350" y="14" on="0"/>
        <pt x="288" y="-10" on="0"/>
        <pt x="243" y="-10" on="1"/>
        <pt x="165" y="-10" on="0"/>
        <pt x="67" y="72" on="0"/>
        <pt x="67" y="142" on="1"/>
        <pt x="67" y="195" on="0"/>
        <pt x="121" y="261" on="0"/>
        <pt x="208" y="297" on="0"/>
        <pt x="258" y="305" on="1"/>
        <pt x="413" y="329" on="1"/>
        <pt x="413" y="343" on="1"/>
        <pt x="413" y="367" on="0"/>
        <pt x="394" y="421" on="0"/>
        <pt x="343" y="460" on="0"/>
        <pt x="295" y="460" on="1"/>
        <pt x="253" y="460" on="0"/>
        <pt x="204" y="432" on="0"/>
        <pt x="179" y="396" on="0"/>
        <pt x="172" y="368" on="0"/>
        <pt x="172" y="368" on="1"/>
        <pt x="80" y="368" on="1"/>
        <pt x="80" y="368" on="0"/>
        <pt x="87" y="403" on="0"/>
        <pt x="110" y="454" on="0"/>
        <pt x="157" y="505" on="0"/>
        <pt x="235" y="540" on="0"/>
        <pt x="295" y="540" on="1"/>
        <pt x="365" y="540" on="0"/>
        <pt x="459" y="487" on="0"/>
        <pt x="508" y="398" on="0"/>
        <pt x="508" y="343" on="1"/>
        <pt x="508" y="0" on="1"/>
        <pt x="413" y="0" on="1"/>
        <pt x="413" y="71" on="1"/>
      </contour>
      <contour>
        <pt x="161" y="146" on="1"/>
        <pt x="161" y="103" on="0"/>
        <pt x="222" y="63" on="0"/>
        <pt x="262" y="63" on="1"/>
        <pt x="306" y="63" on="0"/>
        <pt x="374" y="107" on="0"/>
        <pt x="413" y="185" on="0"/>
        <pt x="413" y="236" on="1"/>
        <pt x="413" y="255" on="1"/>
        <pt x="271" y="232" on="1"/>
        <pt x="225" y="225" on="0"/>
        <pt x="161" y="189" on="0"/>
      </contour>
    </TTGlyph>
    <TTGlyph name="b" xMin="80" yMin="-10" xMax="592" yMax="760">
      <contour>
        <pt x="352" y="-10" on="1"/>
        <pt x="302" y="-10" on="0"/>
        <pt x="234" y="22" on="0"/>
        <pt x="193" y="66" on="0"/>
        <pt x="181" y="84" on="1"/>
        <pt x="175" y="84" on="1"/>
        <pt x="175" y="0" on="1"/>
        <pt x="80" y="0" on="1"/>
        <pt x="80" y="760" on="1"/>
        <pt x="175" y="760" on="1"/>
        <pt x="175" y="446" on="1"/>
        <pt x="181" y="446" on="1"/>
        <pt x="193" y="465" on="0"/>
        <pt x="234" y="509" on="0"/>
        <pt x="302" y="540" on="0"/>
        <pt x="352" y="540" on="1"/>
        <pt x="412" y="540" on="0"/>
        <pt x="502" y="493" on="0"/>
        <pt x="562" y="414" on="0"/>
        <pt x="592" y="316" on="0"/>
        <pt x="592" y="265" on="1"/>
        <pt x="592" y="214" on="0"/>
        <pt x="562" y="116" on="0"/>
        <pt x="502" y="37" on="0"/>
        <pt x="412" y="-10" on="0"/>
      </contour>
      <contour>
        <pt x="336" y="71" on="1"/>
        <pt x="390" y="71" on="0"/>
        <pt x="461" y="128" on="0"/>
        <pt x="496" y="217" on="0"/>
        <pt x="496" y="265" on="1"/>
        <pt x="496" y="314" on="0"/>
        <pt x="461" y="402" on="0"/>
        <pt x="390" y="459" on="0"/>
        <pt x="336" y="459" on="1"/>
        <pt x="283" y="459" on="0"/>
        <pt x="212" y="402" on="0"/>
        <pt x="177" y="314" on="0"/>
        <pt x="177" y="265" on="1"/>
        <pt x="177" y="217" on="0"/>
        <pt x="212" y="128" on="0"/>
        <pt x="283" y="71" on="0"/>
      </contour>
    </TTGlyph>
    <TTGlyph name="backslash" xMin="7" yMin="-151" xMax="445" yMax="824">
      <contour>
        <pt x="445" y="-151" on="1"/>
        <pt x="354" y="-151" on="1"/>
        <pt x="7" y="824" on="1"/>
        <pt x="98" y="824" on="1"/>
      </contour>
    </TTGlyph>
    <TTGlyph name="bar" xMin="160" yMin="-222" xMax="248" yMax="950">
      <contour>
        <pt x="160" y="-222" on="1"/>
        <pt x="160" y="950" on="1"/>
        <pt x="248" y="950" on="1"/>
        <pt x="248" y="-222" on="1"/>
      </contour>
    </TTGlyph>
    <TTGlyph name="braceleft" xMin="20" yMin="-200" xMax="386" yMax="836">
      <contour>
        <pt x="281" y="-200" on="1"/>
        <pt x="206" y="-200" on="0"/>
        <pt x="126" y="-120" on="0"/>
        <pt x="126" y="-46" on="1"/>
        <pt x="126" y="211" on="1"/>
        <pt x="126" y="277" on="0"/>
        <pt x="60" y="277" on="1"/>
        <pt x="20" y="277" on="1"/>
        <pt x="20" y="359" on="1"/>
        <pt x="60" y="359" on="1"/>
        <pt x="126" y="359" on="0"/>
        <pt x="126" y="425" on="1"/>
        <pt x="126" y="682" on="1"/>
        <pt x="126" y="756" on="0"/>
        <pt x="206" y="836" on="0"/>
        <pt x="281" y="836" on="1"/>
        <pt x="386" y="836" on="1"/>
        <pt x="386" y="752" on="1"/>
        <pt x="288" y="752" on="1"/>
        <pt x="222" y="752" on="0"/>
        <pt x="222" y="686" on="1"/>
        <pt x="222" y="427" on="1"/>
        <pt x="222" y="385" on="0"/>
        <pt x="196" y="334" on="0"/>
        <pt x="157" y="320" on="1"/>
        <pt x="157" y="316" on="1"/>
        <pt x="196" y="302" on="0"/>
        <pt x="222" y="250" on="0"/>
        <pt x="222" y="209" on="1"/>
        <pt x="222" y="-50" on="1"/>
        <pt x="222" y="-116" on="0"/>
        <pt x="288" y="-116" on="1"/>
        <pt x="386" y="-116" on="1"/>
        <pt x="386" y="-200" on="1"/>
      </contour>
    </TTGlyph>
</ttFont>
